<svg xmlns="http://www.w3.org/2000/svg" xmlns:xlink="http://www.w3.org/1999/xlink" width="500" zoomAndPan="magnify" viewBox="0 0 375 374.999991" height="500" preserveAspectRatio="xMidYMid meet" version="1.0"><defs><clipPath id="4b39046033"><path d="M 163 55.507812 L 309 55.507812 L 309 88 L 163 88 Z M 163 55.507812 " clip-rule="nonzero"/></clipPath><clipPath id="ef1327c512"><path d="M 53 235.417969 L 142 235.417969 L 142 255 L 53 255 Z M 53 235.417969 " clip-rule="nonzero"/></clipPath><clipPath id="c4fd141243"><path d="M 111 291.351562 L 244 291.351562 L 244 321 L 111 321 Z M 111 291.351562 " clip-rule="nonzero"/></clipPath></defs><path fill="#545454" d="M 375.023438 187.488281 C 375.023438 187.929688 375.023438 188.417969 374.992188 188.867188 C 374.933594 198.105469 374.210938 207.1875 372.824219 216.070312 C 366.296875 258.964844 345.238281 297.046875 314.828125 325.148438 L 314.796875 325.148438 C 281.34375 356.101562 236.609375 375.023438 187.488281 375.023438 C 163.449219 375.023438 140.464844 370.511719 119.378906 362.234375 C 116.765625 361.246094 114.171875 360.160156 111.609375 359.023438 C 75.933594 343.222656 46.148438 316.636719 26.324219 283.359375 C 16.375 266.636719 8.910156 248.222656 4.515625 228.671875 C 1.539062 215.40625 -0.0234375 201.621094 -0.0234375 187.488281 C -0.0234375 182.527344 0.160156 177.617188 0.582031 172.78125 C 3.742188 131.648438 20.199219 94.253906 45.648438 64.867188 C 55.445312 53.546875 66.578125 43.410156 78.800781 34.71875 L 78.828125 34.691406 C 82.136719 32.351562 85.53125 30.0625 89.023438 27.929688 C 110.324219 14.75 134.445312 5.691406 160.289062 1.929688 C 169.164062 0.632812 178.25 -0.0234375 187.488281 -0.0234375 C 209.503906 -0.0234375 230.679688 3.792969 250.296875 10.777344 C 282.007812 22.027344 309.742188 41.578125 330.980469 66.785156 C 358.484375 99.40625 375.023438 141.519531 375.023438 187.488281 " fill-opacity="1" fill-rule="nonzero"/><path fill="#545454" d="M 212.539062 334.246094 C 212.539062 334.246094 202.328125 320.003906 203.464844 295.585938 C 204.59375 271.171875 202.328125 267.101562 186.453125 262.015625 C 170.582031 256.929688 154.699219 247.765625 152.433594 235.5625 C 150.164062 223.347656 163.773438 194.863281 163.773438 194.863281 C 163.773438 194.863281 181.921875 182.660156 197.796875 184.691406 C 213.667969 186.726562 240.890625 186.726562 253.363281 197.921875 C 265.839844 209.105469 273.769531 234.542969 279.441406 235.5625 C 285.109375 236.578125 271.503906 280.324219 269.234375 287.449219 C 266.96875 294.566406 260.167969 323.058594 254.5 334.246094 C 248.828125 345.4375 243.15625 355.613281 238.617188 355.613281 C 234.085938 355.613281 213.667969 357.652344 212.539062 334.246094 " fill-opacity="1" fill-rule="nonzero"/><path fill="#545454" d="M 124.425781 331.921875 C 123.4375 336.726562 121.667969 349.515625 119.378906 362.234375 C 116.765625 361.246094 114.171875 360.160156 111.609375 359.023438 C 75.933594 343.222656 46.148438 316.636719 26.324219 283.359375 C 16.375 266.636719 8.910156 248.222656 4.515625 228.671875 C 11.433594 224.996094 20.101562 221.6875 28.613281 221.84375 C 47.265625 222.203125 49.613281 226.789062 65.496094 238.183594 C 81.347656 249.589844 93.773438 278.042969 100.484375 278.53125 C 107.1875 278.980469 126.148438 323.371094 124.425781 331.921875 " fill-opacity="1" fill-rule="nonzero"/><path fill="#545454" d="M 375.023438 187.488281 C 375.023438 187.929688 375.023438 188.417969 374.992188 188.867188 C 374.933594 198.105469 374.210938 207.1875 372.824219 216.070312 C 364.40625 203.703125 355.316406 185.140625 350.6875 181.890625 C 343.554688 176.863281 317.417969 173.859375 326.921875 186.914062 C 336.429688 200.003906 340.457031 200.003906 340.457031 200.003906 C 340.457031 200.003906 322.167969 236.824219 309.113281 233.25 C 296.03125 229.699219 269.886719 181.890625 269.886719 181.890625 C 254.445312 169.738281 284.144531 160.777344 284.144531 160.777344 C 284.144531 160.777344 293.652344 152.46875 279.386719 142.960938 C 265.128906 133.457031 254.445312 153.644531 244.945312 151.265625 C 235.441406 148.886719 233.058594 158.390625 230.082031 167.898438 C 227.105469 177.402344 218.4375 183.09375 216.421875 167.898438 C 214.378906 152.707031 192.65625 161.980469 185.53125 161.980469 C 178.398438 161.980469 164.140625 186.914062 151.050781 186.914062 C 137.996094 186.914062 137.996094 169.105469 140.375 160.777344 C 142.753906 152.46875 162.9375 144.132812 181.949219 142.960938 C 200.960938 141.761719 183.152344 125.121094 189.082031 121.902344 C 195.035156 118.652344 212.851562 123.949219 230.082031 131.078125 C 247.292969 138.210938 265.128906 121.570312 280.589844 121.902344 C 296.03125 122.234375 247.324219 109.691406 262.753906 97.804688 C 278.222656 85.921875 244.945312 75.21875 246.117188 62.15625 C 247.324219 49.074219 236.609375 33.636719 236.609375 19.378906 C 236.609375 14.835938 241.667969 11.882812 250.296875 10.777344 C 282.007812 22.027344 309.742188 41.578125 330.980469 66.785156 C 358.484375 99.40625 375.023438 141.519531 375.023438 187.488281 " fill-opacity="1" fill-rule="nonzero"/><path fill="#545454" d="M 109.558594 124.09375 C 109.558594 124.09375 116.445312 132.230469 121.753906 124.09375 C 127.070312 115.953125 127.824219 109.460938 124.5 108.878906 C 121.164062 108.28125 101.390625 120.707031 109.558594 124.09375 " fill-opacity="1" fill-rule="nonzero"/><path fill="#545454" d="M 69.429688 124.09375 C 69.429688 124.09375 83.589844 120.476562 86.734375 113.398438 C 89.886719 106.308594 107.984375 109.460938 112.703125 102.375 C 117.429688 95.292969 129.648438 92.769531 132.59375 86.160156 C 135.523438 79.558594 138.722656 69.332031 126.503906 68.535156 C 114.28125 67.753906 102.234375 62.253906 102.359375 68.535156 C 102.476562 74.839844 99.332031 73.261719 88.316406 77.195312 C 77.300781 81.132812 65.496094 75.453125 65.496094 86.160156 C 65.496094 96.875 68.648438 108.847656 68.648438 108.847656 C 68.648438 108.847656 62.347656 117.488281 69.429688 124.09375 " fill-opacity="1" fill-rule="nonzero"/><path fill="#545454" d="M 160.289062 1.929688 C 160.289062 1.929688 139.203125 30.089844 135.289062 30.84375 C 131.351562 31.589844 119.289062 39.859375 117.058594 48.144531 C 114.808594 56.421875 99.007812 61.675781 86.980469 56.421875 C 74.945312 51.148438 72.175781 45.34375 78.800781 34.71875 L 78.828125 34.691406 C 82.136719 32.351562 85.53125 30.0625 89.023438 27.929688 C 110.324219 14.75 134.445312 5.691406 160.289062 1.929688 " fill-opacity="1" fill-rule="nonzero"/><path fill="#545454" d="M 42.097656 112.578125 C 40.101562 118.59375 40.589844 125.609375 34.09375 127.707031 C 27.558594 129.816406 30.0625 137.636719 25.550781 147.65625 C 21.488281 156.683594 4.074219 170.160156 0.582031 172.78125 C 3.742188 131.648438 20.199219 94.253906 45.648438 64.867188 C 48.292969 72.898438 47.265625 86.160156 49.613281 90.492188 C 53.132812 97.019531 44.105469 106.558594 42.097656 112.578125 " fill-opacity="1" fill-rule="nonzero"/><path fill="#b07a60" d="M 274.921875 184.605469 C 264.640625 183.449219 241.296875 182.980469 230.972656 182.332031 C 221.09375 181.714844 188.597656 183.476562 185.414062 188.390625 C 182.632812 193.4375 177.066406 203.535156 180.859375 209.589844 C 184.652344 215.648438 210.050781 209.355469 221.109375 209.589844 C 243.375 210.0625 252.378906 212.15625 274.921875 213.375 C 285.816406 213.964844 332.328125 221.472656 337.125 213.375 C 341.042969 206.757812 340.558594 200.570312 337.125 193.691406 C 334.027344 187.492188 331.054688 185.550781 323.46875 185.550781 C 306.816406 185.550781 293.121094 186.652344 274.921875 184.605469 Z M 274.921875 184.605469 " fill-opacity="1" fill-rule="nonzero"/><path fill="#ca7a53" d="M 134.886719 116.394531 C 122.679688 115.015625 94.964844 114.457031 82.703125 113.691406 C 70.972656 112.957031 32.390625 115.050781 28.609375 120.898438 C 25.304688 126.902344 18.699219 138.910156 23.203125 146.117188 C 27.707031 153.320312 57.863281 145.835938 70.992188 146.117188 C 97.429688 146.675781 108.121094 149.167969 134.886719 150.617188 C 147.820312 151.320312 203.050781 160.25 208.742188 150.617188 C 213.394531 142.746094 212.820312 135.386719 208.742188 127.203125 C 205.066406 119.824219 201.535156 117.519531 192.53125 117.519531 C 172.757812 117.519531 156.496094 118.828125 134.886719 116.394531 Z M 134.886719 116.394531 " fill-opacity="1" fill-rule="nonzero"/><g clip-path="url(#4b39046033)"><path fill="#b07a60" d="M 249.460938 58.125 C 240.164062 57.078125 219.054688 56.652344 209.714844 56.066406 C 200.785156 55.507812 171.398438 57.101562 168.519531 61.554688 C 166.003906 66.125 160.972656 75.269531 164.402344 80.753906 C 167.832031 86.238281 190.800781 80.542969 200.800781 80.753906 C 220.933594 81.179688 229.074219 83.078125 249.460938 84.183594 C 259.3125 84.714844 301.375 91.515625 305.707031 84.183594 C 309.253906 78.1875 308.816406 72.585938 305.707031 66.355469 C 302.910156 60.738281 300.222656 58.980469 293.363281 58.980469 C 278.304688 58.980469 265.917969 59.980469 249.460938 58.125 Z M 249.460938 58.125 " fill-opacity="1" fill-rule="nonzero"/></g><g clip-path="url(#ef1327c512)"><path fill="#b07a60" d="M 105.90625 237 C 100.273438 236.367188 87.480469 236.113281 81.820312 235.757812 C 76.40625 235.421875 58.597656 236.382812 56.851562 239.074219 C 55.328125 241.835938 52.28125 247.359375 54.359375 250.671875 C 56.4375 253.988281 70.355469 250.546875 76.414062 250.671875 C 88.617188 250.929688 93.550781 252.078125 105.90625 252.746094 C 111.878906 253.066406 137.367188 257.175781 139.996094 252.746094 C 142.140625 249.121094 141.878906 245.738281 139.996094 241.972656 C 138.296875 238.582031 136.667969 237.519531 132.511719 237.519531 C 123.386719 237.519531 115.882812 238.121094 105.90625 237 Z M 105.90625 237 " fill-opacity="1" fill-rule="nonzero"/></g><g clip-path="url(#c4fd141243)"><path fill="#ca7a53" d="M 189.960938 293.730469 C 181.515625 292.777344 162.335938 292.390625 153.851562 291.859375 C 145.738281 291.351562 119.042969 292.800781 116.421875 296.847656 C 114.136719 301 109.566406 309.3125 112.683594 314.296875 C 115.800781 319.28125 136.667969 314.105469 145.75 314.296875 C 164.046875 314.683594 171.441406 316.410156 189.960938 317.414062 C 198.914062 317.898438 237.128906 324.078125 241.066406 317.414062 C 244.285156 311.964844 243.890625 306.871094 241.066406 301.207031 C 238.523438 296.105469 236.082031 294.507812 229.847656 294.507812 C 216.167969 294.507812 204.914062 295.414062 189.960938 293.730469 Z M 189.960938 293.730469 " fill-opacity="1" fill-rule="nonzero"/></g></svg>