<svg xmlns="http://www.w3.org/2000/svg" xmlns:xlink="http://www.w3.org/1999/xlink" width="500" zoomAndPan="magnify" viewBox="0 0 375 374.999991" height="500" preserveAspectRatio="xMidYMid meet" version="1.0"><defs><clipPath id="449f7bb5e2"><path d="M 169.660156 89.125 L 319.660156 89.125 L 319.660156 108 L 169.660156 108 Z M 169.660156 89.125 " clip-rule="nonzero"/></clipPath><clipPath id="ceaf71f7ff"><path d="M 215 103 L 290 103 L 290 116.125 L 215 116.125 Z M 215 103 " clip-rule="nonzero"/></clipPath><clipPath id="adea3e8bde"><path d="M 42.65625 160.3125 L 192.65625 160.3125 L 192.65625 180 L 42.65625 180 Z M 42.65625 160.3125 " clip-rule="nonzero"/></clipPath><clipPath id="5e1636e194"><path d="M 88 175 L 163 175 L 163 187.3125 L 88 187.3125 Z M 88 175 " clip-rule="nonzero"/></clipPath><clipPath id="c886ade434"><path d="M 86.246094 271 L 236.246094 271 L 236.246094 290 L 86.246094 290 Z M 86.246094 271 " clip-rule="nonzero"/></clipPath><clipPath id="13e19da6f5"><path d="M 132 285 L 206 285 L 206 297.988281 L 132 297.988281 Z M 132 285 " clip-rule="nonzero"/></clipPath></defs><path fill="#03a8e8" d="M 375.023438 187.488281 C 375.023438 187.929688 375.023438 188.417969 374.992188 188.867188 C 374.933594 198.105469 374.210938 207.1875 372.824219 216.070312 C 366.296875 258.964844 345.238281 297.046875 314.828125 325.148438 L 314.796875 325.148438 C 281.34375 356.101562 236.609375 375.023438 187.488281 375.023438 C 163.449219 375.023438 140.464844 370.511719 119.378906 362.234375 C 116.765625 361.246094 114.171875 360.160156 111.609375 359.023438 C 75.933594 343.222656 46.148438 316.636719 26.324219 283.359375 C 16.375 266.636719 8.910156 248.222656 4.515625 228.671875 C 1.539062 215.40625 -0.0234375 201.621094 -0.0234375 187.488281 C -0.0234375 182.527344 0.160156 177.617188 0.582031 172.78125 C 3.742188 131.648438 20.199219 94.253906 45.648438 64.867188 C 55.445312 53.546875 66.578125 43.410156 78.800781 34.71875 L 78.828125 34.691406 C 82.136719 32.351562 85.53125 30.0625 89.023438 27.929688 C 110.324219 14.75 134.445312 5.691406 160.289062 1.929688 C 169.164062 0.632812 178.25 -0.0234375 187.488281 -0.0234375 C 209.503906 -0.0234375 230.679688 3.792969 250.296875 10.777344 C 282.007812 22.027344 309.742188 41.578125 330.980469 66.785156 C 358.484375 99.40625 375.023438 141.519531 375.023438 187.488281 " fill-opacity="1" fill-rule="nonzero"/><path fill="#03a8e8" d="M 212.539062 334.246094 C 212.539062 334.246094 202.328125 320.003906 203.464844 295.585938 C 204.59375 271.171875 202.328125 267.101562 186.453125 262.015625 C 170.582031 256.929688 154.699219 247.765625 152.433594 235.5625 C 150.164062 223.347656 163.773438 194.863281 163.773438 194.863281 C 163.773438 194.863281 181.921875 182.660156 197.796875 184.691406 C 213.667969 186.726562 240.890625 186.726562 253.363281 197.921875 C 265.839844 209.105469 273.769531 234.542969 279.441406 235.5625 C 285.109375 236.578125 271.503906 280.324219 269.234375 287.449219 C 266.96875 294.566406 260.167969 323.058594 254.5 334.246094 C 248.828125 345.4375 243.15625 355.613281 238.617188 355.613281 C 234.085938 355.613281 213.667969 357.652344 212.539062 334.246094 " fill-opacity="1" fill-rule="nonzero"/><path fill="#03a8e8" d="M 124.425781 331.921875 C 123.4375 336.726562 121.667969 349.515625 119.378906 362.234375 C 116.765625 361.246094 114.171875 360.160156 111.609375 359.023438 C 75.933594 343.222656 46.148438 316.636719 26.324219 283.359375 C 16.375 266.636719 8.910156 248.222656 4.515625 228.671875 C 11.433594 224.996094 20.101562 221.6875 28.613281 221.84375 C 47.265625 222.203125 49.613281 226.789062 65.496094 238.183594 C 81.347656 249.589844 93.773438 278.042969 100.484375 278.53125 C 107.1875 278.980469 126.148438 323.371094 124.425781 331.921875 " fill-opacity="1" fill-rule="nonzero"/><path fill="#03a8e8" d="M 375.023438 187.488281 C 375.023438 187.929688 375.023438 188.417969 374.992188 188.867188 C 374.933594 198.105469 374.210938 207.1875 372.824219 216.070312 C 364.40625 203.703125 355.316406 185.140625 350.6875 181.890625 C 343.554688 176.863281 317.417969 173.859375 326.921875 186.914062 C 336.429688 200.003906 340.457031 200.003906 340.457031 200.003906 C 340.457031 200.003906 322.167969 236.824219 309.113281 233.25 C 296.03125 229.699219 269.886719 181.890625 269.886719 181.890625 C 254.445312 169.738281 284.144531 160.777344 284.144531 160.777344 C 284.144531 160.777344 293.652344 152.46875 279.386719 142.960938 C 265.128906 133.457031 254.445312 153.644531 244.945312 151.265625 C 235.441406 148.886719 233.058594 158.390625 230.082031 167.898438 C 227.105469 177.402344 218.4375 183.09375 216.421875 167.898438 C 214.378906 152.707031 192.65625 161.980469 185.53125 161.980469 C 178.398438 161.980469 164.140625 186.914062 151.050781 186.914062 C 137.996094 186.914062 137.996094 169.105469 140.375 160.777344 C 142.753906 152.46875 162.9375 144.132812 181.949219 142.960938 C 200.960938 141.761719 183.152344 125.121094 189.082031 121.902344 C 195.035156 118.652344 212.851562 123.949219 230.082031 131.078125 C 247.292969 138.210938 265.128906 121.570312 280.589844 121.902344 C 296.03125 122.234375 247.324219 109.691406 262.753906 97.804688 C 278.222656 85.921875 244.945312 75.21875 246.117188 62.15625 C 247.324219 49.074219 236.609375 33.636719 236.609375 19.378906 C 236.609375 14.835938 241.667969 11.882812 250.296875 10.777344 C 282.007812 22.027344 309.742188 41.578125 330.980469 66.785156 C 358.484375 99.40625 375.023438 141.519531 375.023438 187.488281 " fill-opacity="1" fill-rule="nonzero"/><path fill="#03a8e8" d="M 109.558594 124.09375 C 109.558594 124.09375 116.445312 132.230469 121.753906 124.09375 C 127.070312 115.953125 127.824219 109.460938 124.5 108.878906 C 121.164062 108.28125 101.390625 120.707031 109.558594 124.09375 " fill-opacity="1" fill-rule="nonzero"/><path fill="#03a8e8" d="M 69.429688 124.09375 C 69.429688 124.09375 83.589844 120.476562 86.734375 113.398438 C 89.886719 106.308594 107.984375 109.460938 112.703125 102.375 C 117.429688 95.292969 129.648438 92.769531 132.59375 86.160156 C 135.523438 79.558594 138.722656 69.332031 126.503906 68.535156 C 114.28125 67.753906 102.234375 62.253906 102.359375 68.535156 C 102.476562 74.839844 99.332031 73.261719 88.316406 77.195312 C 77.300781 81.132812 65.496094 75.453125 65.496094 86.160156 C 65.496094 96.875 68.648438 108.847656 68.648438 108.847656 C 68.648438 108.847656 62.347656 117.488281 69.429688 124.09375 " fill-opacity="1" fill-rule="nonzero"/><path fill="#03a8e8" d="M 160.289062 1.929688 C 160.289062 1.929688 139.203125 30.089844 135.289062 30.84375 C 131.351562 31.589844 119.289062 39.859375 117.058594 48.144531 C 114.808594 56.421875 99.007812 61.675781 86.980469 56.421875 C 74.945312 51.148438 72.175781 45.34375 78.800781 34.71875 L 78.828125 34.691406 C 82.136719 32.351562 85.53125 30.0625 89.023438 27.929688 C 110.324219 14.75 134.445312 5.691406 160.289062 1.929688 " fill-opacity="1" fill-rule="nonzero"/><path fill="#03a8e8" d="M 42.097656 112.578125 C 40.101562 118.59375 40.589844 125.609375 34.09375 127.707031 C 27.558594 129.816406 30.0625 137.636719 25.550781 147.65625 C 21.488281 156.683594 4.074219 170.160156 0.582031 172.78125 C 3.742188 131.648438 20.199219 94.253906 45.648438 64.867188 C 48.292969 72.898438 47.265625 86.160156 49.613281 90.492188 C 53.132812 97.019531 44.105469 106.558594 42.097656 112.578125 " fill-opacity="1" fill-rule="nonzero"/><g clip-path="url(#449f7bb5e2)"><path fill="#21b8ed" d="M 319.550781 102.867188 C 317.25 103.675781 314.828125 104.230469 312.347656 104.464844 C 309.871094 104.699219 307.320312 104.644531 304.824219 104.175781 C 302.328125 103.746094 299.867188 102.9375 297.535156 101.824219 C 296.378906 101.25 295.253906 100.601562 294.1875 99.867188 C 293.699219 99.523438 293.230469 99.164062 292.757812 98.789062 C 290.878906 100.871094 288.6875 102.792969 286.066406 104.230469 C 282.863281 106.027344 278.941406 106.925781 275.140625 106.496094 C 271.34375 106.082031 267.832031 104.574219 264.832031 102.613281 C 263.328125 101.625 261.917969 100.53125 260.597656 99.34375 C 260.128906 98.914062 259.675781 98.464844 259.222656 98.015625 C 256.796875 100.261719 254.140625 102.328125 251.15625 104.035156 C 247.230469 106.332031 242.5625 107.914062 237.679688 107.894531 C 232.792969 107.914062 228.019531 106.1875 224.203125 103.566406 C 222.285156 102.253906 220.546875 100.746094 218.976562 99.09375 C 218.195312 98.265625 217.457031 97.40625 216.769531 96.523438 C 216.75 96.507812 216.730469 96.472656 216.714844 96.453125 C 215.84375 97.226562 214.921875 97.960938 213.984375 98.664062 C 212.136719 100.0625 210.148438 101.320312 208.066406 102.34375 C 203.890625 104.464844 199.257812 105.652344 194.628906 105.832031 C 189.996094 106.046875 185.421875 105.128906 181.207031 103.601562 C 177.027344 102.003906 173.101562 99.792969 169.773438 96.921875 C 171.671875 98.035156 173.644531 98.933594 175.671875 99.722656 C 177.679688 100.511719 179.742188 101.140625 181.820312 101.609375 C 185.980469 102.597656 190.230469 102.8125 194.320312 102.273438 C 198.40625 101.714844 202.296875 100.277344 205.789062 98.214844 C 209.296875 96.148438 212.390625 93.382812 215.140625 90.328125 C 216.152344 89.214844 217.871094 89.125 218.992188 90.113281 C 219.15625 90.253906 219.320312 90.433594 219.425781 90.613281 L 219.554688 90.792969 C 219.734375 91.082031 220.058594 91.511719 220.332031 91.855469 C 220.621094 92.230469 220.910156 92.589844 221.234375 92.949219 C 221.851562 93.667969 222.503906 94.367188 223.191406 95.035156 C 224.546875 96.363281 226.011719 97.546875 227.566406 98.535156 C 230.679688 100.53125 234.152344 101.644531 237.660156 101.589844 C 241.171875 101.589844 244.699219 100.386719 247.988281 98.535156 C 251.28125 96.667969 254.320312 94.171875 257.160156 91.386719 L 257.214844 91.332031 C 258.425781 90.148438 260.378906 90.164062 261.554688 91.367188 C 261.664062 91.476562 261.773438 91.601562 261.84375 91.710938 C 261.992188 91.90625 262.242188 92.230469 262.480469 92.5 C 262.714844 92.769531 262.949219 93.058594 263.203125 93.328125 C 263.707031 93.867188 264.214844 94.40625 264.757812 94.925781 C 265.824219 95.96875 266.964844 96.921875 268.160156 97.765625 C 270.546875 99.453125 273.152344 100.726562 275.847656 101.140625 C 278.542969 101.609375 281.308594 101.175781 283.914062 100.011719 C 285.214844 99.433594 286.484375 98.644531 287.675781 97.746094 C 288.886719 96.867188 290.027344 95.84375 291.113281 94.746094 L 291.257812 94.601562 C 291.980469 93.867188 293.15625 93.867188 293.878906 94.585938 C 293.933594 94.636719 294.007812 94.710938 294.0625 94.78125 C 294.316406 95.105469 294.730469 95.554688 295.109375 95.933594 C 295.507812 96.328125 295.925781 96.703125 296.359375 97.0625 C 297.226562 97.78125 298.148438 98.464844 299.125 99.058594 C 301.042969 100.296875 303.160156 101.304688 305.386719 101.96875 C 307.609375 102.652344 309.960938 103.097656 312.347656 103.207031 C 314.699219 103.332031 317.125 103.226562 319.550781 102.867188 Z M 319.550781 102.867188 " fill-opacity="1" fill-rule="nonzero"/></g><g clip-path="url(#ceaf71f7ff)"><path fill="#0081c9" d="M 289.125 110.25 C 287.984375 110.859375 286.808594 111.507812 285.597656 112.027344 L 283.734375 112.726562 L 282.792969 113.070312 C 282.46875 113.175781 282.140625 113.25 281.816406 113.339844 L 279.84375 113.824219 C 279.175781 113.96875 278.503906 114.023438 277.835938 114.128906 L 276.824219 114.253906 C 276.480469 114.292969 276.136719 114.292969 275.792969 114.308594 C 275.105469 114.328125 274.417969 114.363281 273.710938 114.34375 C 270.945312 114.238281 268.160156 113.714844 265.5 112.746094 C 264.160156 112.261719 262.875 111.652344 261.628906 110.949219 C 261.050781 110.589844 260.453125 110.230469 259.890625 109.835938 C 257.015625 111.882812 253.796875 113.574219 250.359375 114.652344 C 248.296875 115.316406 246.164062 115.691406 244.027344 115.925781 C 241.875 116.125 239.722656 116.105469 237.605469 115.871094 C 233.375 115.441406 229.320312 114.148438 225.632812 112.332031 C 221.960938 110.5 218.539062 108.164062 215.792969 105.21875 C 219.390625 106.996094 223.0625 108.382812 226.769531 109.421875 C 230.480469 110.429688 234.222656 111.058594 237.914062 111.074219 C 239.757812 111.074219 241.585938 110.984375 243.375 110.699219 C 245.167969 110.410156 246.941406 109.996094 248.640625 109.421875 C 252.058594 108.273438 255.28125 106.511719 258.265625 104.355469 L 258.28125 104.355469 C 259.402344 103.546875 260.921875 103.691406 261.863281 104.625 L 262.082031 104.84375 C 262.171875 104.933594 262.261719 105.023438 262.371094 105.113281 C 262.570312 105.292969 262.769531 105.472656 263.003906 105.652344 C 263.417969 106.011719 263.90625 106.332031 264.359375 106.675781 C 265.320312 107.285156 266.3125 107.914062 267.378906 108.398438 C 269.480469 109.421875 271.757812 110.175781 274.128906 110.644531 C 275.320312 110.824219 276.515625 111.058594 277.746094 111.09375 C 278.359375 111.128906 278.976562 111.203125 279.589844 111.203125 L 281.472656 111.164062 C 281.78125 111.164062 282.105469 111.164062 282.414062 111.148438 L 283.351562 111.058594 L 285.269531 110.894531 C 286.535156 110.644531 287.804688 110.410156 289.125 110.25 Z M 289.125 110.25 " fill-opacity="1" fill-rule="nonzero"/></g><g clip-path="url(#adea3e8bde)"><path fill="#21b8ed" d="M 192.542969 174.054688 C 190.246094 174.863281 187.824219 175.421875 185.34375 175.652344 C 182.867188 175.886719 180.316406 175.832031 177.820312 175.367188 C 175.324219 174.933594 172.863281 174.125 170.53125 173.011719 C 169.375 172.4375 168.25 171.792969 167.183594 171.054688 C 166.695312 170.714844 166.226562 170.355469 165.753906 169.976562 C 163.875 172.0625 161.683594 173.984375 159.0625 175.421875 C 155.859375 177.214844 151.933594 178.113281 148.136719 177.683594 C 144.339844 177.269531 140.828125 175.761719 137.828125 173.804688 C 136.324219 172.816406 134.914062 171.71875 133.59375 170.535156 C 133.125 170.101562 132.671875 169.652344 132.21875 169.203125 C 129.792969 171.449219 127.136719 173.515625 124.152344 175.222656 C 120.226562 177.523438 115.558594 179.101562 110.675781 179.085938 C 105.789062 179.101562 101.015625 177.378906 97.199219 174.753906 C 95.28125 173.445312 93.542969 171.933594 91.972656 170.28125 C 91.191406 169.457031 90.453125 168.59375 89.765625 167.714844 C 89.746094 167.695312 89.726562 167.660156 89.710938 167.640625 C 88.839844 168.414062 87.917969 169.152344 86.980469 169.851562 C 85.132812 171.253906 83.144531 172.511719 81.0625 173.535156 C 76.886719 175.652344 72.253906 176.839844 67.625 177.019531 C 62.992188 177.234375 58.417969 176.320312 54.203125 174.792969 C 50.023438 173.191406 46.097656 170.984375 42.769531 168.109375 C 44.667969 169.222656 46.640625 170.121094 48.667969 170.910156 C 50.675781 171.703125 52.738281 172.332031 54.816406 172.796875 C 58.976562 173.785156 63.226562 174 67.316406 173.460938 C 71.402344 172.90625 75.292969 171.46875 78.785156 169.402344 C 82.292969 167.335938 85.386719 164.570312 88.136719 161.515625 C 89.148438 160.402344 90.867188 160.3125 91.988281 161.300781 C 92.152344 161.445312 92.316406 161.625 92.421875 161.804688 L 92.550781 161.984375 C 92.730469 162.269531 93.054688 162.703125 93.328125 163.042969 C 93.617188 163.421875 93.90625 163.78125 94.230469 164.140625 C 94.847656 164.855469 95.5 165.558594 96.1875 166.222656 C 97.542969 167.550781 99.007812 168.738281 100.5625 169.726562 C 103.675781 171.71875 107.148438 172.832031 110.65625 172.78125 C 114.167969 172.78125 117.691406 171.574219 120.984375 169.726562 C 124.277344 167.855469 127.316406 165.359375 130.15625 162.574219 L 130.210938 162.523438 C 131.421875 161.335938 133.375 161.355469 134.550781 162.558594 C 134.660156 162.664062 134.769531 162.792969 134.839844 162.898438 C 134.984375 163.097656 135.238281 163.421875 135.476562 163.691406 C 135.710938 163.960938 135.945312 164.246094 136.199219 164.515625 C 136.703125 165.054688 137.210938 165.59375 137.753906 166.113281 C 138.820312 167.15625 139.960938 168.109375 141.15625 168.953125 C 143.542969 170.640625 146.148438 171.917969 148.84375 172.332031 C 151.539062 172.796875 154.304688 172.367188 156.910156 171.199219 C 158.210938 170.625 159.476562 169.832031 160.671875 168.933594 C 161.882812 168.054688 163.023438 167.03125 164.109375 165.933594 L 164.253906 165.792969 C 164.976562 165.054688 166.152344 165.054688 166.875 165.773438 C 166.929688 165.828125 167.003906 165.898438 167.058594 165.972656 C 167.3125 166.292969 167.726562 166.742188 168.105469 167.121094 C 168.503906 167.515625 168.921875 167.894531 169.355469 168.253906 C 170.222656 168.972656 171.144531 169.652344 172.121094 170.246094 C 174.039062 171.484375 176.15625 172.492188 178.382812 173.15625 C 180.605469 173.839844 182.957031 174.289062 185.34375 174.394531 C 187.695312 174.523438 190.121094 174.414062 192.542969 174.054688 Z M 192.542969 174.054688 " fill-opacity="1" fill-rule="nonzero"/></g><g clip-path="url(#5e1636e194)"><path fill="#0081c9" d="M 162.121094 181.4375 C 160.980469 182.050781 159.804688 182.695312 158.59375 183.214844 L 156.730469 183.917969 L 155.789062 184.257812 C 155.460938 184.367188 155.136719 184.4375 154.8125 184.527344 L 152.839844 185.011719 C 152.171875 185.15625 151.5 185.210938 150.832031 185.320312 L 149.820312 185.445312 C 149.476562 185.480469 149.132812 185.480469 148.789062 185.5 C 148.101562 185.515625 147.414062 185.550781 146.707031 185.535156 C 143.941406 185.425781 141.15625 184.90625 138.496094 183.933594 C 137.15625 183.449219 135.871094 182.839844 134.625 182.140625 C 134.046875 181.78125 133.449219 181.421875 132.886719 181.023438 C 130.011719 183.074219 126.792969 184.761719 123.355469 185.839844 C 121.292969 186.503906 119.160156 186.882812 117.023438 187.113281 C 114.871094 187.3125 112.71875 187.292969 110.601562 187.0625 C 106.371094 186.628906 102.316406 185.335938 98.628906 183.523438 C 94.957031 181.691406 91.535156 179.355469 88.789062 176.410156 C 92.386719 178.1875 96.058594 179.570312 99.765625 180.613281 C 103.476562 181.617188 107.21875 182.246094 110.910156 182.265625 C 112.753906 182.265625 114.582031 182.175781 116.371094 181.886719 C 118.164062 181.601562 119.9375 181.1875 121.636719 180.613281 C 125.054688 179.460938 128.273438 177.703125 131.261719 175.546875 L 131.277344 175.546875 C 132.398438 174.738281 133.917969 174.882812 134.859375 175.816406 L 135.078125 176.03125 C 135.167969 176.121094 135.257812 176.210938 135.367188 176.300781 C 135.566406 176.480469 135.765625 176.660156 136 176.839844 C 136.414062 177.199219 136.902344 177.523438 137.355469 177.863281 C 138.316406 178.472656 139.308594 179.101562 140.375 179.589844 C 142.476562 180.613281 144.753906 181.367188 147.125 181.832031 C 148.316406 182.011719 149.511719 182.246094 150.742188 182.28125 C 151.355469 182.320312 151.972656 182.390625 152.585938 182.390625 L 154.46875 182.355469 C 154.777344 182.355469 155.101562 182.355469 155.410156 182.335938 L 156.347656 182.246094 L 158.265625 182.085938 C 159.53125 181.832031 160.800781 181.601562 162.121094 181.4375 Z M 162.121094 181.4375 " fill-opacity="1" fill-rule="nonzero"/></g><g clip-path="url(#c886ade434)"><path fill="#21b8ed" d="M 236.132812 284.730469 C 233.835938 285.539062 231.410156 286.09375 228.933594 286.328125 C 226.453125 286.5625 223.902344 286.507812 221.40625 286.042969 C 218.910156 285.609375 216.453125 284.800781 214.117188 283.6875 C 212.960938 283.113281 211.839844 282.464844 210.773438 281.730469 C 210.28125 281.386719 209.8125 281.027344 209.34375 280.652344 C 207.460938 282.734375 205.273438 284.65625 202.648438 286.09375 C 199.449219 287.890625 195.523438 288.789062 191.722656 288.359375 C 187.925781 287.945312 184.417969 286.4375 181.414062 284.476562 C 179.910156 283.492188 178.5 282.394531 177.179688 281.207031 C 176.710938 280.777344 176.257812 280.328125 175.804688 279.878906 C 173.382812 282.125 170.722656 284.191406 167.738281 285.898438 C 163.8125 288.195312 159.144531 289.777344 154.261719 289.757812 C 149.378906 289.777344 144.601562 288.054688 140.785156 285.429688 C 138.867188 284.117188 137.132812 282.609375 135.558594 280.957031 C 134.78125 280.132812 134.039062 279.269531 133.351562 278.386719 C 133.332031 278.371094 133.316406 278.335938 133.296875 278.316406 C 132.429688 279.089844 131.507812 279.824219 130.566406 280.527344 C 128.71875 281.925781 126.730469 283.183594 124.652344 284.207031 C 120.472656 286.328125 115.839844 287.515625 111.210938 287.695312 C 106.578125 287.910156 102.003906 286.992188 97.789062 285.464844 C 93.609375 283.867188 89.683594 281.65625 86.355469 278.785156 C 88.257812 279.898438 90.226562 280.796875 92.253906 281.585938 C 94.261719 282.375 96.324219 283.003906 98.402344 283.472656 C 102.5625 284.460938 106.816406 284.675781 110.902344 284.136719 C 114.992188 283.582031 118.878906 282.144531 122.371094 280.078125 C 125.878906 278.011719 128.972656 275.246094 131.722656 272.191406 C 132.738281 271.078125 134.453125 270.988281 135.578125 271.976562 C 135.738281 272.117188 135.902344 272.296875 136.011719 272.476562 L 136.136719 272.65625 C 136.316406 272.945312 136.644531 273.375 136.914062 273.71875 C 137.203125 274.09375 137.492188 274.453125 137.820312 274.8125 C 138.433594 275.53125 139.085938 276.234375 139.773438 276.898438 C 141.128906 278.226562 142.59375 279.414062 144.152344 280.402344 C 147.261719 282.394531 150.734375 283.507812 154.242188 283.453125 C 157.753906 283.453125 161.28125 282.25 164.574219 280.402344 C 167.863281 278.53125 170.902344 276.035156 173.742188 273.25 L 173.796875 273.195312 C 175.011719 272.011719 176.964844 272.027344 178.140625 273.234375 C 178.246094 273.339844 178.355469 273.464844 178.429688 273.574219 C 178.574219 273.773438 178.828125 274.09375 179.0625 274.363281 C 179.296875 274.632812 179.53125 274.921875 179.785156 275.191406 C 180.292969 275.730469 180.796875 276.269531 181.339844 276.789062 C 182.410156 277.832031 183.546875 278.785156 184.742188 279.628906 C 187.128906 281.316406 189.734375 282.59375 192.429688 283.003906 C 195.125 283.472656 197.890625 283.042969 200.496094 281.875 C 201.800781 281.296875 203.066406 280.507812 204.257812 279.609375 C 205.472656 278.730469 206.609375 277.707031 207.695312 276.609375 L 207.839844 276.464844 C 208.566406 275.730469 209.742188 275.730469 210.464844 276.449219 C 210.519531 276.503906 210.589844 276.574219 210.644531 276.644531 C 210.898438 276.96875 211.3125 277.417969 211.695312 277.796875 C 212.09375 278.191406 212.507812 278.566406 212.941406 278.925781 C 213.808594 279.644531 214.734375 280.328125 215.710938 280.921875 C 217.628906 282.160156 219.742188 283.167969 221.96875 283.832031 C 224.195312 284.515625 226.546875 284.964844 228.933594 285.070312 C 231.285156 285.195312 233.707031 285.089844 236.132812 284.730469 Z M 236.132812 284.730469 " fill-opacity="1" fill-rule="nonzero"/></g><g clip-path="url(#13e19da6f5)"><path fill="#0081c9" d="M 205.707031 292.113281 C 204.566406 292.722656 203.390625 293.371094 202.179688 293.890625 L 200.316406 294.59375 L 199.375 294.933594 C 199.050781 295.042969 198.722656 295.113281 198.398438 295.203125 L 196.425781 295.6875 C 195.757812 295.832031 195.089844 295.886719 194.417969 295.992188 L 193.40625 296.117188 C 193.0625 296.15625 192.71875 296.15625 192.375 296.171875 C 191.6875 296.191406 191 296.226562 190.296875 296.207031 C 187.527344 296.101562 184.742188 295.582031 182.082031 294.609375 C 180.742188 294.125 179.460938 293.515625 178.210938 292.8125 C 177.632812 292.453125 177.035156 292.09375 176.476562 291.699219 C 173.597656 293.746094 170.378906 295.4375 166.941406 296.515625 C 164.878906 297.179688 162.746094 297.554688 160.609375 297.789062 C 158.457031 297.988281 156.304688 297.96875 154.191406 297.734375 C 149.957031 297.304688 145.90625 296.011719 142.214844 294.195312 C 138.542969 292.363281 135.125 290.027344 132.375 287.082031 C 135.972656 288.863281 139.644531 290.246094 143.355469 291.285156 C 147.0625 292.292969 150.808594 292.921875 154.496094 292.9375 C 156.34375 292.9375 158.167969 292.847656 159.960938 292.5625 C 161.75 292.273438 163.523438 291.863281 165.222656 291.285156 C 168.644531 290.136719 171.863281 288.375 174.847656 286.222656 L 174.863281 286.222656 C 175.988281 285.414062 177.507812 285.554688 178.445312 286.492188 L 178.664062 286.707031 C 178.753906 286.796875 178.84375 286.886719 178.953125 286.976562 C 179.152344 287.15625 179.351562 287.335938 179.585938 287.515625 C 180.003906 287.875 180.492188 288.195312 180.941406 288.539062 C 181.902344 289.148438 182.898438 289.777344 183.964844 290.261719 C 186.0625 291.285156 188.339844 292.042969 190.710938 292.507812 C 191.90625 292.6875 193.097656 292.921875 194.328125 292.957031 C 194.945312 292.992188 195.558594 293.066406 196.175781 293.066406 L 198.054688 293.027344 C 198.363281 293.027344 198.6875 293.027344 198.996094 293.011719 L 199.9375 292.921875 L 201.855469 292.757812 C 203.121094 292.507812 204.386719 292.273438 205.707031 292.113281 Z M 205.707031 292.113281 " fill-opacity="1" fill-rule="nonzero"/></g></svg>