<svg xmlns="http://www.w3.org/2000/svg" xmlns:xlink="http://www.w3.org/1999/xlink" width="500" zoomAndPan="magnify" viewBox="0 0 375 374.999991" height="500" preserveAspectRatio="xMidYMid meet" version="1.0"><defs><clipPath id="7ed325c104"><path d="M 0.226562 0 L 375 0 L 375 375 L 0.226562 375 Z M 0.226562 0 " clip-rule="nonzero"/></clipPath><clipPath id="a72b016a56"><path d="M 0.226562 64 L 51 64 L 51 173 L 0.226562 173 Z M 0.226562 64 " clip-rule="nonzero"/></clipPath><clipPath id="9b2b8a16b5"><path d="M 58.085938 62.160156 L 181.847656 62.160156 L 181.847656 137.058594 L 58.085938 137.058594 Z M 58.085938 62.160156 " clip-rule="nonzero"/></clipPath><clipPath id="3566c55044"><path d="M 147.835938 62.160156 C 166.523438 62.160156 181.671875 78.925781 181.671875 99.609375 C 181.671875 120.292969 166.523438 137.058594 147.835938 137.058594 L 91.921875 137.058594 C 73.234375 137.058594 58.085938 120.292969 58.085938 99.609375 C 58.085938 78.925781 73.234375 62.160156 91.921875 62.160156 Z M 147.835938 62.160156 " clip-rule="nonzero"/></clipPath><clipPath id="2ae4caecb8"><path d="M 96.03125 105.367188 L 263.917969 105.367188 L 263.917969 178.460938 L 96.03125 178.460938 Z M 96.03125 105.367188 " clip-rule="nonzero"/></clipPath><clipPath id="791dadf80a"><path d="M 230.082031 105.367188 C 248.765625 105.367188 263.914062 121.730469 263.914062 141.914062 C 263.914062 162.097656 248.765625 178.460938 230.082031 178.460938 L 129.867188 178.460938 C 111.179688 178.460938 96.03125 162.097656 96.03125 141.914062 C 96.03125 121.730469 111.179688 105.367188 129.867188 105.367188 Z M 230.082031 105.367188 " clip-rule="nonzero"/></clipPath><clipPath id="121715fcb0"><path d="M 74.46875 115.308594 L 180 115.308594 L 180 188.402344 L 74.46875 188.402344 Z M 74.46875 115.308594 " clip-rule="nonzero"/></clipPath><clipPath id="8d00672879"><path d="M 146.140625 115.308594 C 164.824219 115.308594 179.972656 131.671875 179.972656 151.855469 C 179.972656 172.039062 164.824219 188.402344 146.140625 188.402344 L 108.304688 188.402344 C 89.617188 188.402344 74.46875 172.039062 74.46875 151.855469 C 74.46875 131.671875 89.617188 115.308594 108.304688 115.308594 Z M 146.140625 115.308594 " clip-rule="nonzero"/></clipPath><clipPath id="1145b68324"><path d="M 158.410156 274.394531 L 263.921875 274.394531 L 263.921875 360.144531 L 158.410156 360.144531 Z M 158.410156 274.394531 " clip-rule="nonzero"/></clipPath><clipPath id="5de0ff9eb4"><path d="M 230.082031 274.394531 C 248.765625 274.394531 263.914062 293.589844 263.914062 317.269531 C 263.914062 340.945312 248.765625 360.144531 230.082031 360.144531 L 192.246094 360.144531 C 173.558594 360.144531 158.410156 340.945312 158.410156 317.269531 C 158.410156 293.589844 173.558594 274.394531 192.246094 274.394531 Z M 230.082031 274.394531 " clip-rule="nonzero"/></clipPath><clipPath id="07efe2b59c"><path d="M 230.816406 247.109375 L 325.367188 247.109375 L 325.367188 323.953125 L 230.816406 323.953125 Z M 230.816406 247.109375 " clip-rule="nonzero"/></clipPath><clipPath id="eb088a54f1"><path d="M 295.039062 247.109375 C 311.785156 247.109375 325.359375 264.3125 325.359375 285.53125 C 325.359375 306.75 311.785156 323.953125 295.039062 323.953125 L 261.136719 323.953125 C 244.390625 323.953125 230.816406 306.75 230.816406 285.53125 C 230.816406 264.3125 244.390625 247.109375 261.136719 247.109375 Z M 295.039062 247.109375 " clip-rule="nonzero"/></clipPath><clipPath id="12890161ca"><path d="M 193.640625 29.5625 L 278.089844 29.5625 L 278.089844 115.328125 L 193.640625 115.328125 Z M 193.640625 29.5625 " clip-rule="nonzero"/></clipPath><clipPath id="e110fbe9e6"><path d="M 244.253906 29.5625 C 262.941406 29.5625 278.089844 48.757812 278.089844 72.433594 C 278.089844 96.113281 262.941406 115.308594 244.253906 115.308594 L 227.476562 115.308594 C 208.789062 115.308594 193.640625 96.113281 193.640625 72.433594 C 193.640625 48.757812 208.789062 29.5625 227.476562 29.5625 Z M 244.253906 29.5625 " clip-rule="nonzero"/></clipPath><clipPath id="6bc099db68"><path d="M 170.699219 9.757812 L 276.210938 9.757812 L 276.210938 95.507812 L 170.699219 95.507812 Z M 170.699219 9.757812 " clip-rule="nonzero"/></clipPath><clipPath id="d1c00af7e3"><path d="M 242.367188 9.757812 C 261.054688 9.757812 276.203125 28.953125 276.203125 52.632812 C 276.203125 76.3125 261.054688 95.507812 242.367188 95.507812 L 204.535156 95.507812 C 185.847656 95.507812 170.699219 76.3125 170.699219 52.632812 C 170.699219 28.953125 185.847656 9.757812 204.535156 9.757812 Z M 242.367188 9.757812 " clip-rule="nonzero"/></clipPath><clipPath id="2d3489ac5d"><path d="M 172.585938 19.621094 L 278.097656 19.621094 L 278.097656 105.367188 L 172.585938 105.367188 Z M 172.585938 19.621094 " clip-rule="nonzero"/></clipPath><clipPath id="7aa6462b76"><path d="M 244.253906 19.621094 C 262.941406 19.621094 278.089844 38.816406 278.089844 62.496094 C 278.089844 86.171875 262.941406 105.367188 244.253906 105.367188 L 206.417969 105.367188 C 187.734375 105.367188 172.585938 86.171875 172.585938 62.496094 C 172.585938 38.816406 187.734375 19.621094 206.417969 19.621094 Z M 244.253906 19.621094 " clip-rule="nonzero"/></clipPath><clipPath id="c64e948847"><path d="M 172.585938 42.164062 L 278.097656 42.164062 L 278.097656 127.914062 L 172.585938 127.914062 Z M 172.585938 42.164062 " clip-rule="nonzero"/></clipPath><clipPath id="4a762abd6b"><path d="M 244.253906 42.164062 C 262.941406 42.164062 278.089844 61.359375 278.089844 85.039062 C 278.089844 108.71875 262.941406 127.914062 244.253906 127.914062 L 206.417969 127.914062 C 187.734375 127.914062 172.585938 108.71875 172.585938 85.039062 C 172.585938 61.359375 187.734375 42.164062 206.417969 42.164062 Z M 244.253906 42.164062 " clip-rule="nonzero"/></clipPath><clipPath id="89c90bd952"><path d="M 166.1875 56.601562 L 271.699219 56.601562 L 271.699219 142.351562 L 166.1875 142.351562 Z M 166.1875 56.601562 " clip-rule="nonzero"/></clipPath><clipPath id="671c7d6dd4"><path d="M 237.855469 56.601562 C 256.542969 56.601562 271.691406 75.796875 271.691406 99.476562 C 271.691406 123.15625 256.542969 142.351562 237.855469 142.351562 L 200.023438 142.351562 C 181.335938 142.351562 166.1875 123.15625 166.1875 99.476562 C 166.1875 75.796875 181.335938 56.601562 200.023438 56.601562 Z M 237.855469 56.601562 " clip-rule="nonzero"/></clipPath><clipPath id="348fb5cca7"><path d="M 179.972656 72.433594 L 285.484375 72.433594 L 285.484375 158.183594 L 179.972656 158.183594 Z M 179.972656 72.433594 " clip-rule="nonzero"/></clipPath><clipPath id="85e35e0f9c"><path d="M 251.640625 72.433594 C 270.328125 72.433594 285.476562 91.628906 285.476562 115.308594 C 285.476562 138.988281 270.328125 158.183594 251.640625 158.183594 L 213.808594 158.183594 C 195.121094 158.183594 179.972656 138.988281 179.972656 115.308594 C 179.972656 91.628906 195.121094 72.433594 213.808594 72.433594 Z M 251.640625 72.433594 " clip-rule="nonzero"/></clipPath><clipPath id="50799ceb85"><path d="M 172.585938 62.160156 L 278.097656 62.160156 L 278.097656 147.90625 L 172.585938 147.90625 Z M 172.585938 62.160156 " clip-rule="nonzero"/></clipPath><clipPath id="3743139213"><path d="M 244.253906 62.160156 C 262.941406 62.160156 278.089844 81.355469 278.089844 105.035156 C 278.089844 128.710938 262.941406 147.90625 244.253906 147.90625 L 206.417969 147.90625 C 187.734375 147.90625 172.585938 128.710938 172.585938 105.035156 C 172.585938 81.355469 187.734375 62.160156 206.417969 62.160156 Z M 244.253906 62.160156 " clip-rule="nonzero"/></clipPath><clipPath id="db330c1d06"><path d="M 179.972656 92.710938 L 285.484375 92.710938 L 285.484375 178.460938 L 179.972656 178.460938 Z M 179.972656 92.710938 " clip-rule="nonzero"/></clipPath><clipPath id="0786dd4b49"><path d="M 251.640625 92.710938 C 270.328125 92.710938 285.476562 111.90625 285.476562 135.585938 C 285.476562 159.265625 270.328125 178.460938 251.640625 178.460938 L 213.808594 178.460938 C 195.121094 178.460938 179.972656 159.265625 179.972656 135.585938 C 179.972656 111.90625 195.121094 92.710938 213.808594 92.710938 Z M 251.640625 92.710938 " clip-rule="nonzero"/></clipPath><clipPath id="9e7d30e74c"><path d="M 249 144 L 330 144 L 330 249 L 249 249 Z M 249 144 " clip-rule="nonzero"/></clipPath><clipPath id="885c848d15"><path d="M 283.152344 133.546875 L 341.261719 231.855469 L 295.667969 258.804688 L 237.5625 160.496094 Z M 283.152344 133.546875 " clip-rule="nonzero"/></clipPath><clipPath id="a749b74b4a"><path d="M 322.609375 200.300781 C 332.894531 217.703125 331.03125 237.84375 318.441406 245.285156 C 305.851562 252.726562 287.304688 244.652344 277.015625 227.246094 L 256.1875 192.007812 C 245.902344 174.605469 247.765625 154.464844 260.355469 147.023438 C 272.945312 139.582031 291.492188 147.65625 301.78125 165.058594 Z M 322.609375 200.300781 " clip-rule="nonzero"/></clipPath><clipPath id="2554174135"><path d="M 102 285 L 168 285 L 168 365 L 102 365 Z M 102 285 " clip-rule="nonzero"/></clipPath><clipPath id="a6b8a84b97"><path d="M 136.433594 274.394531 L 180.011719 348.125 L 134.421875 375.074219 L 90.839844 301.34375 Z M 136.433594 274.394531 " clip-rule="nonzero"/></clipPath><clipPath id="9dcaef8e2a"><path d="M 161.34375 316.539062 C 171.632812 333.945312 169.765625 354.085938 157.175781 361.527344 C 144.585938 368.96875 126.039062 360.890625 115.753906 343.488281 L 109.46875 332.855469 C 99.179688 315.453125 101.046875 295.3125 113.636719 287.867188 C 126.226562 280.425781 144.773438 288.503906 155.058594 305.90625 Z M 161.34375 316.539062 " clip-rule="nonzero"/></clipPath><clipPath id="55617c470e"><path d="M 132.789062 178.460938 L 299.160156 178.460938 L 299.160156 313.667969 L 132.789062 313.667969 Z M 132.789062 178.460938 " clip-rule="nonzero"/></clipPath><clipPath id="eac1d92b14"><path d="M 245.796875 178.460938 C 275.257812 178.460938 299.144531 208.730469 299.144531 246.066406 C 299.144531 283.402344 275.257812 313.667969 245.796875 313.667969 L 186.136719 313.667969 C 156.675781 313.667969 132.789062 283.402344 132.789062 246.066406 C 132.789062 208.730469 156.675781 178.460938 186.136719 178.460938 Z M 245.796875 178.460938 " clip-rule="nonzero"/></clipPath><clipPath id="4c7ff5c5d0"><path d="M 147 151 L 240.957031 151 L 240.957031 226 L 147 226 Z M 147 151 " clip-rule="nonzero"/></clipPath><clipPath id="a472fcb625"><path d="M 208 41 L 324 41 L 324 158 L 208 158 Z M 208 41 " clip-rule="nonzero"/></clipPath><clipPath id="1204a8d825"><path d="M 279.738281 24.894531 L 337.984375 123.441406 L 251.882812 174.335938 L 193.636719 75.789062 Z M 279.738281 24.894531 " clip-rule="nonzero"/></clipPath><clipPath id="551731a546"><path d="M 319.191406 91.648438 C 329.480469 109.050781 318.542969 134.554688 294.769531 148.605469 C 270.992188 162.660156 243.378906 159.945312 233.089844 142.542969 L 212.261719 107.300781 C 201.972656 89.898438 212.910156 64.398438 236.6875 50.34375 C 260.460938 36.289062 288.078125 39.003906 298.363281 56.410156 Z M 319.191406 91.648438 " clip-rule="nonzero"/></clipPath><clipPath id="4f3d729a51"><path d="M 252 121 L 367 121 L 367 239 L 252 239 Z M 252 121 " clip-rule="nonzero"/></clipPath><clipPath id="87d18d94f4"><path d="M 323.660156 105.367188 L 381.910156 203.914062 L 295.808594 254.808594 L 237.558594 156.261719 Z M 323.660156 105.367188 " clip-rule="nonzero"/></clipPath><clipPath id="91dd32ba33"><path d="M 363.117188 172.121094 C 373.402344 189.523438 362.46875 215.027344 338.691406 229.078125 C 314.914062 243.132812 287.300781 240.417969 277.015625 223.011719 L 256.183594 187.773438 C 245.898438 170.371094 256.832031 144.871094 280.609375 130.816406 C 304.386719 116.761719 332 119.476562 342.285156 136.882812 Z M 363.117188 172.121094 " clip-rule="nonzero"/></clipPath><clipPath id="fe641c78b0"><path d="M 249 76 L 360 76 L 360 180 L 249 180 Z M 249 76 " clip-rule="nonzero"/></clipPath><clipPath id="624496759f"><path d="M 317.972656 72.4375 L 368.0625 165.570312 L 292.761719 206.070312 L 242.671875 112.933594 Z M 317.972656 72.4375 " clip-rule="nonzero"/></clipPath><clipPath id="d8042b0dfd"><path d="M 317.972656 72.4375 L 368.0625 165.570312 L 292.761719 206.070312 L 242.671875 112.933594 Z M 317.972656 72.4375 " clip-rule="nonzero"/></clipPath><clipPath id="9b3d733a83"><path d="M 3 151 L 158 151 L 158 350 L 3 350 Z M 3 151 " clip-rule="nonzero"/></clipPath><clipPath id="e1360c92b4"><path d="M -26.777344 207.140625 L 79.359375 124.929688 L 203.359375 285.027344 L 97.222656 367.234375 Z M -26.777344 207.140625 " clip-rule="nonzero"/></clipPath><clipPath id="2e5bab2d92"><path d="M -26.777344 207.140625 L 79.359375 124.929688 L 203.359375 285.027344 L 97.222656 367.234375 Z M -26.777344 207.140625 " clip-rule="nonzero"/></clipPath><clipPath id="a96f73cc1f"><path d="M 76.15625 275.25 L 170.707031 275.25 L 170.707031 352.089844 L 76.15625 352.089844 Z M 76.15625 275.25 " clip-rule="nonzero"/></clipPath><clipPath id="8dbebbe1a4"><path d="M 140.378906 275.25 C 157.125 275.25 170.699219 292.449219 170.699219 313.667969 C 170.699219 334.890625 157.125 352.089844 140.378906 352.089844 L 106.472656 352.089844 C 89.730469 352.089844 76.15625 334.890625 76.15625 313.667969 C 76.15625 292.449219 89.730469 275.25 106.472656 275.25 Z M 140.378906 275.25 " clip-rule="nonzero"/></clipPath><clipPath id="b2cd9c7012"><path d="M 94.660156 77.367188 L 179.410156 77.367188 L 179.410156 88 L 94.660156 88 Z M 94.660156 77.367188 " clip-rule="nonzero"/></clipPath><clipPath id="f9baf0d3b1"><path d="M 120 85 L 163 85 L 163 92.367188 L 120 92.367188 Z M 120 85 " clip-rule="nonzero"/></clipPath><clipPath id="dc9558bb19"><path d="M 230.816406 130.054688 L 337.316406 130.054688 L 337.316406 144 L 230.816406 144 Z M 230.816406 130.054688 " clip-rule="nonzero"/></clipPath><clipPath id="d61ca4e157"><path d="M 263 140 L 316 140 L 316 149.554688 L 263 149.554688 Z M 263 140 " clip-rule="nonzero"/></clipPath><clipPath id="2a3043c580"><path d="M 21.128906 178 L 127.628906 178 L 127.628906 192 L 21.128906 192 Z M 21.128906 178 " clip-rule="nonzero"/></clipPath><clipPath id="3334c709a5"><path d="M 53 188 L 106 188 L 106 197.332031 L 53 197.332031 Z M 53 188 " clip-rule="nonzero"/></clipPath><clipPath id="330891f3e7"><path d="M 146.457031 281.398438 L 285.207031 281.398438 L 285.207031 300 L 146.457031 300 Z M 146.457031 281.398438 " clip-rule="nonzero"/></clipPath><clipPath id="7a7e2ec21c"><path d="M 189 295 L 257 295 L 257 306.898438 L 189 306.898438 Z M 189 295 " clip-rule="nonzero"/></clipPath></defs><g clip-path="url(#7ed325c104)"><path fill="#03a8e8" d="M 375.25 187.488281 C 375.25 187.929688 375.25 188.417969 375.222656 188.867188 C 375.164062 198.105469 374.441406 207.1875 373.050781 216.070312 C 366.523438 258.964844 345.46875 297.046875 315.054688 325.148438 L 315.027344 325.148438 C 281.574219 356.101562 236.835938 375.023438 187.714844 375.023438 C 163.675781 375.023438 140.691406 370.511719 119.605469 362.234375 C 116.992188 361.246094 114.402344 360.160156 111.839844 359.023438 C 76.164062 343.222656 46.378906 316.636719 26.554688 283.359375 C 16.601562 266.636719 9.136719 248.222656 4.742188 228.671875 C 1.769531 215.40625 0.203125 201.621094 0.203125 187.488281 C 0.203125 182.527344 0.386719 177.617188 0.808594 172.78125 C 3.96875 131.648438 20.425781 94.253906 45.875 64.867188 C 55.675781 53.546875 66.808594 43.410156 79.027344 34.71875 L 79.058594 34.691406 C 82.363281 32.351562 85.761719 30.0625 89.253906 27.929688 C 110.554688 14.75 134.675781 5.691406 160.515625 1.929688 C 169.390625 0.632812 178.480469 -0.0234375 187.714844 -0.0234375 C 209.734375 -0.0234375 230.910156 3.792969 250.527344 10.777344 C 282.238281 22.027344 309.96875 41.578125 331.210938 66.785156 C 358.714844 99.40625 375.25 141.519531 375.25 187.488281 " fill-opacity="1" fill-rule="nonzero"/></g><path fill="#70c573" d="M 212.769531 334.246094 C 212.769531 334.246094 202.558594 320.003906 203.695312 295.585938 C 204.824219 271.171875 202.558594 267.101562 186.683594 262.015625 C 170.808594 256.929688 154.925781 247.765625 152.660156 235.5625 C 150.394531 223.347656 164 194.863281 164 194.863281 C 164 194.863281 182.148438 182.660156 198.023438 184.691406 C 213.898438 186.726562 241.121094 186.726562 253.589844 197.921875 C 266.066406 209.105469 273.996094 234.542969 279.667969 235.5625 C 285.339844 236.578125 271.730469 280.324219 269.464844 287.449219 C 267.199219 294.566406 260.398438 323.058594 254.726562 334.246094 C 249.058594 345.4375 243.386719 355.613281 238.847656 355.613281 C 234.3125 355.613281 213.898438 357.652344 212.769531 334.246094 " fill-opacity="1" fill-rule="nonzero"/><path fill="#70c573" d="M 124.65625 331.921875 C 123.667969 336.726562 121.894531 349.515625 119.605469 362.234375 C 116.992188 361.246094 114.402344 360.160156 111.839844 359.023438 C 76.164062 343.222656 46.378906 316.636719 26.554688 283.359375 C 16.601562 266.636719 9.136719 248.222656 4.742188 228.671875 C 11.660156 224.996094 20.328125 221.6875 28.84375 221.84375 C 47.492188 222.203125 49.839844 226.789062 65.722656 238.183594 C 81.574219 249.589844 94 278.042969 100.710938 278.53125 C 107.414062 278.980469 126.375 323.371094 124.65625 331.921875 " fill-opacity="1" fill-rule="nonzero"/><path fill="#70c573" d="M 375.25 187.488281 C 375.25 187.929688 375.25 188.417969 375.222656 188.867188 C 375.164062 198.105469 374.441406 207.1875 373.050781 216.070312 C 364.636719 203.703125 355.546875 185.140625 350.917969 181.890625 C 343.785156 176.863281 317.648438 173.859375 327.148438 186.914062 C 336.660156 200.003906 340.683594 200.003906 340.683594 200.003906 C 340.683594 200.003906 322.394531 236.824219 309.339844 233.25 C 296.257812 229.699219 270.113281 181.890625 270.113281 181.890625 C 254.675781 169.738281 284.371094 160.777344 284.371094 160.777344 C 284.371094 160.777344 293.878906 152.46875 279.617188 142.960938 C 265.359375 133.457031 254.675781 153.644531 245.171875 151.265625 C 235.671875 148.886719 233.285156 158.390625 230.3125 167.898438 C 227.335938 177.402344 218.667969 183.09375 216.652344 167.898438 C 214.605469 152.707031 192.886719 161.980469 185.761719 161.980469 C 178.628906 161.980469 164.371094 186.914062 151.28125 186.914062 C 138.226562 186.914062 138.226562 169.105469 140.605469 160.777344 C 142.980469 152.46875 163.167969 144.132812 182.179688 142.960938 C 201.191406 141.761719 183.382812 125.121094 189.3125 121.902344 C 195.261719 118.652344 213.078125 123.949219 230.3125 131.078125 C 247.519531 138.210938 265.359375 121.570312 280.820312 121.902344 C 296.257812 122.234375 247.550781 109.691406 262.980469 97.804688 C 278.449219 85.921875 245.171875 75.21875 246.347656 62.15625 C 247.550781 49.074219 236.835938 33.636719 236.835938 19.378906 C 236.835938 14.835938 241.894531 11.882812 250.527344 10.777344 C 282.238281 22.027344 309.96875 41.578125 331.210938 66.785156 C 358.714844 99.40625 375.25 141.519531 375.25 187.488281 " fill-opacity="1" fill-rule="nonzero"/><path fill="#70c573" d="M 109.785156 124.09375 C 109.785156 124.09375 116.675781 132.230469 121.984375 124.09375 C 127.300781 115.953125 128.050781 109.460938 124.730469 108.878906 C 121.390625 108.28125 101.621094 120.707031 109.785156 124.09375 " fill-opacity="1" fill-rule="nonzero"/><path fill="#70c573" d="M 69.65625 124.09375 C 69.65625 124.09375 83.820312 120.476562 86.964844 113.398438 C 90.117188 106.308594 108.214844 109.460938 112.929688 102.375 C 117.65625 95.292969 129.875 92.769531 132.820312 86.160156 C 135.753906 79.558594 138.949219 69.332031 126.730469 68.535156 C 114.511719 67.753906 102.460938 62.253906 102.585938 68.535156 C 102.707031 74.839844 99.558594 73.261719 88.542969 77.195312 C 77.527344 81.132812 65.722656 75.453125 65.722656 86.160156 C 65.722656 96.875 68.875 108.847656 68.875 108.847656 C 68.875 108.847656 62.578125 117.488281 69.65625 124.09375 " fill-opacity="1" fill-rule="nonzero"/><path fill="#70c573" d="M 160.515625 1.929688 C 160.515625 1.929688 139.429688 30.089844 135.515625 30.84375 C 131.582031 31.589844 119.515625 39.859375 117.289062 48.144531 C 115.035156 56.421875 99.234375 61.675781 87.207031 56.421875 C 75.171875 51.148438 72.40625 45.34375 79.027344 34.71875 L 79.058594 34.691406 C 82.363281 32.351562 85.761719 30.0625 89.253906 27.929688 C 110.554688 14.75 134.675781 5.691406 160.515625 1.929688 " fill-opacity="1" fill-rule="nonzero"/><g clip-path="url(#a72b016a56)"><path fill="#70c573" d="M 42.324219 112.578125 C 40.332031 118.59375 40.820312 125.609375 34.320312 127.707031 C 27.789062 129.816406 30.289062 137.636719 25.777344 147.65625 C 21.71875 156.683594 4.300781 170.160156 0.808594 172.78125 C 3.96875 131.648438 20.425781 94.253906 45.875 64.867188 C 48.519531 72.898438 47.492188 86.160156 49.839844 90.492188 C 53.363281 97.019531 44.332031 106.558594 42.324219 112.578125 " fill-opacity="1" fill-rule="nonzero"/></g><g clip-path="url(#9b2b8a16b5)"><g clip-path="url(#3566c55044)"><path fill="#03a8e8" d="M 58.085938 62.160156 L 181.554688 62.160156 L 181.554688 137.058594 L 58.085938 137.058594 Z M 58.085938 62.160156 " fill-opacity="1" fill-rule="nonzero"/></g></g><g clip-path="url(#2ae4caecb8)"><g clip-path="url(#791dadf80a)"><path fill="#03a8e8" d="M 96.03125 105.367188 L 263.917969 105.367188 L 263.917969 178.460938 L 96.03125 178.460938 Z M 96.03125 105.367188 " fill-opacity="1" fill-rule="nonzero"/></g></g><g clip-path="url(#121715fcb0)"><g clip-path="url(#8d00672879)"><path fill="#03a8e8" d="M 74.46875 115.308594 L 180.113281 115.308594 L 180.113281 188.402344 L 74.46875 188.402344 Z M 74.46875 115.308594 " fill-opacity="1" fill-rule="nonzero"/></g></g><g clip-path="url(#1145b68324)"><g clip-path="url(#5de0ff9eb4)"><path fill="#03a8e8" d="M 158.410156 274.394531 L 263.921875 274.394531 L 263.921875 360.144531 L 158.410156 360.144531 Z M 158.410156 274.394531 " fill-opacity="1" fill-rule="nonzero"/></g></g><g clip-path="url(#07efe2b59c)"><g clip-path="url(#eb088a54f1)"><path fill="#03a8e8" d="M 230.816406 247.109375 L 325.367188 247.109375 L 325.367188 323.953125 L 230.816406 323.953125 Z M 230.816406 247.109375 " fill-opacity="1" fill-rule="nonzero"/></g></g><g clip-path="url(#12890161ca)"><g clip-path="url(#e110fbe9e6)"><path fill="#03a8e8" d="M 193.640625 29.5625 L 278.089844 29.5625 L 278.089844 115.328125 L 193.640625 115.328125 Z M 193.640625 29.5625 " fill-opacity="1" fill-rule="nonzero"/></g></g><g clip-path="url(#6bc099db68)"><g clip-path="url(#d1c00af7e3)"><path fill="#03a8e8" d="M 170.699219 9.757812 L 276.210938 9.757812 L 276.210938 95.507812 L 170.699219 95.507812 Z M 170.699219 9.757812 " fill-opacity="1" fill-rule="nonzero"/></g></g><g clip-path="url(#2d3489ac5d)"><g clip-path="url(#7aa6462b76)"><path fill="#03a8e8" d="M 172.585938 19.621094 L 278.097656 19.621094 L 278.097656 105.367188 L 172.585938 105.367188 Z M 172.585938 19.621094 " fill-opacity="1" fill-rule="nonzero"/></g></g><g clip-path="url(#c64e948847)"><g clip-path="url(#4a762abd6b)"><path fill="#03a8e8" d="M 172.585938 42.164062 L 278.097656 42.164062 L 278.097656 127.914062 L 172.585938 127.914062 Z M 172.585938 42.164062 " fill-opacity="1" fill-rule="nonzero"/></g></g><g clip-path="url(#89c90bd952)"><g clip-path="url(#671c7d6dd4)"><path fill="#03a8e8" d="M 166.1875 56.601562 L 271.699219 56.601562 L 271.699219 142.351562 L 166.1875 142.351562 Z M 166.1875 56.601562 " fill-opacity="1" fill-rule="nonzero"/></g></g><g clip-path="url(#348fb5cca7)"><g clip-path="url(#85e35e0f9c)"><path fill="#03a8e8" d="M 179.972656 72.433594 L 285.484375 72.433594 L 285.484375 158.183594 L 179.972656 158.183594 Z M 179.972656 72.433594 " fill-opacity="1" fill-rule="nonzero"/></g></g><g clip-path="url(#50799ceb85)"><g clip-path="url(#3743139213)"><path fill="#03a8e8" d="M 172.585938 62.160156 L 278.097656 62.160156 L 278.097656 147.90625 L 172.585938 147.90625 Z M 172.585938 62.160156 " fill-opacity="1" fill-rule="nonzero"/></g></g><g clip-path="url(#db330c1d06)"><g clip-path="url(#0786dd4b49)"><path fill="#03a8e8" d="M 179.972656 92.710938 L 285.484375 92.710938 L 285.484375 178.460938 L 179.972656 178.460938 Z M 179.972656 92.710938 " fill-opacity="1" fill-rule="nonzero"/></g></g><g clip-path="url(#9e7d30e74c)"><g clip-path="url(#885c848d15)"><g clip-path="url(#a749b74b4a)"><path fill="#03a8e8" d="M 283.152344 133.546875 L 341.261719 231.855469 L 295.667969 258.804688 L 237.5625 160.496094 Z M 283.152344 133.546875 " fill-opacity="1" fill-rule="nonzero"/></g></g></g><g clip-path="url(#2554174135)"><g clip-path="url(#a6b8a84b97)"><g clip-path="url(#9dcaef8e2a)"><path fill="#03a8e8" d="M 136.433594 274.394531 L 180.011719 348.125 L 134.421875 375.074219 L 90.839844 301.34375 Z M 136.433594 274.394531 " fill-opacity="1" fill-rule="nonzero"/></g></g></g><g clip-path="url(#55617c470e)"><g clip-path="url(#eac1d92b14)"><path fill="#03a8e8" d="M 132.789062 178.460938 L 299.160156 178.460938 L 299.160156 313.667969 L 132.789062 313.667969 Z M 132.789062 178.460938 " fill-opacity="1" fill-rule="nonzero"/></g></g><g clip-path="url(#4c7ff5c5d0)"><path fill="#70c573" d="M 207.097656 222.351562 C 201.421875 219.230469 195.355469 219.5625 188.875 220.703125 C 182.804688 221.859375 176.933594 222.664062 170.648438 222.84375 C 163.363281 223 156.667969 220.878906 154.859375 214.789062 C 153.230469 209.703125 155.46875 206.070312 156.273438 201.320312 C 157.492188 194.40625 151.207031 189.8125 148.773438 183.566406 C 146.554688 178.304688 147.144531 174.535156 151.40625 170.09375 C 156.078125 164.988281 163.972656 161.375 171.671875 160.867188 C 180.175781 160.375 186.457031 159.550781 194.351562 156.269531 C 199.617188 154.128906 204.464844 150.183594 210.945312 152.5 C 223.710938 157.09375 234.039062 168.113281 236.0625 179.441406 C 236.867188 184.527344 236.671875 189.632812 237.890625 194.898438 C 238.910156 199.335938 240.71875 203.28125 240.324219 208.054688 C 239.910156 213.316406 236.277344 220.054688 230.800781 223.175781 C 226.539062 225.472656 211.164062 226.613281 207.097656 222.351562 " fill-opacity="1" fill-rule="nonzero"/></g><g clip-path="url(#a472fcb625)"><g clip-path="url(#1204a8d825)"><g clip-path="url(#551731a546)"><path fill="#03a8e8" d="M 279.738281 24.894531 L 337.789062 123.105469 L 251.683594 174 L 193.636719 75.789062 Z M 279.738281 24.894531 " fill-opacity="1" fill-rule="nonzero"/></g></g></g><g clip-path="url(#4f3d729a51)"><g clip-path="url(#87d18d94f4)"><g clip-path="url(#91dd32ba33)"><path fill="#03a8e8" d="M 323.660156 105.367188 L 381.710938 203.578125 L 295.609375 254.472656 L 237.558594 156.261719 Z M 323.660156 105.367188 " fill-opacity="1" fill-rule="nonzero"/></g></g></g><g clip-path="url(#fe641c78b0)"><g clip-path="url(#624496759f)"><g clip-path="url(#d8042b0dfd)"><path fill="#03a8e8" d="M 338.980469 177.796875 C 332.015625 178.753906 324.792969 178.578125 317.761719 178.9375 C 314.289062 179.179688 310.726562 179.957031 307.210938 179.640625 C 301.9375 179.179688 295.847656 177.003906 291.394531 173.4375 C 285.867188 169.007812 285.171875 162.8125 282.570312 156.652344 C 280.742188 152.3125 278.078125 148.015625 274.984375 144.480469 C 272.460938 141.625 269.019531 139.898438 265.871094 138.144531 C 262.621094 136.34375 259.527344 134.226562 256.714844 131.683594 C 249.765625 125.453125 246.671875 114.84375 253.660156 108.652344 C 257.816406 104.96875 262.921875 103.570312 268.410156 102.925781 C 273.617188 102.332031 279.828125 102.792969 284.265625 99.875 C 286.324219 98.515625 288.046875 96.675781 289.671875 94.785156 C 294.925781 88.664062 299.613281 82.339844 306.773438 78.488281 C 314.878906 74.558594 321.238281 78.695312 325.84375 87.074219 C 330.542969 96.1875 329.789062 106.480469 332.601562 116.050781 C 334.597656 123.625 338.863281 130.5625 344.226562 136.199219 C 349.234375 141.925781 355.664062 146.808594 358.707031 154.074219 C 361.042969 159.691406 359.269531 165.820312 355.777344 169.75 C 351.539062 174.691406 345.34375 177.035156 338.980469 177.796875 Z M 338.980469 177.796875 " fill-opacity="1" fill-rule="nonzero"/></g></g></g><g clip-path="url(#9b3d733a83)"><g clip-path="url(#e1360c92b4)"><g clip-path="url(#2e5bab2d92)"><path fill="#03a8e8" d="M 89.609375 157.992188 C 79.519531 152.71875 68.375 150.378906 56.542969 152.332031 C 45.992188 154.078125 35.71875 158.890625 27.21875 165.65625 C 8.878906 180.257812 0.953125 203.230469 4.039062 224.828125 C 5.605469 235.804688 9.726562 246.253906 16.113281 255.097656 C 23.953125 265.96875 35.0625 273.914062 44.925781 282.859375 C 50 287.457031 54.789062 292.449219 58.460938 298.246094 C 62.023438 303.859375 64.238281 310.253906 66.578125 316.484375 C 70.921875 328.066406 76.136719 340.019531 87.832031 345.804688 C 93.035156 348.378906 98.703125 349.394531 104.429688 349.164062 C 110.3125 350.132812 116.8125 348.941406 122.339844 346.140625 C 126.410156 344.085938 129.875 341.359375 132.832031 338.15625 C 136.859375 335.039062 140.4375 331.40625 143.3125 327.425781 C 158.363281 306.582031 159.265625 279.292969 155.9375 256.035156 C 153.601562 239.691406 148.953125 220.261719 137.945312 207.007812 C 137.460938 206.105469 136.976562 205.203125 136.46875 204.3125 C 125.542969 185.042969 109.558594 168.410156 89.609375 157.992188 Z M 89.609375 157.992188 " fill-opacity="1" fill-rule="nonzero"/></g></g></g><g clip-path="url(#a96f73cc1f)"><g clip-path="url(#8dbebbe1a4)"><path fill="#03a8e8" d="M 76.15625 275.25 L 170.707031 275.25 L 170.707031 352.089844 L 76.15625 352.089844 Z M 76.15625 275.25 " fill-opacity="1" fill-rule="nonzero"/></g></g><g clip-path="url(#b2cd9c7012)"><path fill="#21b8ed" d="M 179.34375 85.003906 C 178.042969 85.453125 176.675781 85.761719 175.273438 85.890625 C 173.875 86.019531 172.433594 85.992188 171.023438 85.730469 C 169.613281 85.492188 168.222656 85.042969 166.90625 84.425781 C 166.25 84.105469 165.617188 83.746094 165.015625 83.335938 C 164.738281 83.148438 164.472656 82.949219 164.207031 82.738281 C 163.144531 83.894531 161.910156 84.964844 160.425781 85.761719 C 158.617188 86.757812 156.402344 87.257812 154.253906 87.019531 C 152.109375 86.789062 150.125 85.953125 148.429688 84.863281 C 147.582031 84.316406 146.785156 83.707031 146.039062 83.046875 C 145.773438 82.808594 145.519531 82.558594 145.261719 82.308594 C 143.894531 83.554688 142.390625 84.703125 140.703125 85.652344 C 138.488281 86.929688 135.851562 87.808594 133.089844 87.796875 C 130.332031 87.808594 127.636719 86.847656 125.480469 85.390625 C 124.394531 84.664062 123.414062 83.824219 122.527344 82.90625 C 122.085938 82.449219 121.667969 81.96875 121.277344 81.480469 C 121.269531 81.46875 121.257812 81.449219 121.246094 81.441406 C 120.757812 81.871094 120.238281 82.277344 119.703125 82.667969 C 118.664062 83.445312 117.539062 84.144531 116.363281 84.714844 C 114.003906 85.890625 111.386719 86.550781 108.769531 86.648438 C 106.15625 86.769531 103.570312 86.261719 101.1875 85.414062 C 98.828125 84.523438 96.609375 83.296875 94.730469 81.699219 C 95.804688 82.320312 96.917969 82.816406 98.0625 83.257812 C 99.195312 83.695312 100.359375 84.046875 101.535156 84.304688 C 103.886719 84.855469 106.289062 84.972656 108.597656 84.675781 C 110.90625 84.363281 113.105469 83.566406 115.074219 82.417969 C 117.058594 81.269531 118.804688 79.734375 120.359375 78.039062 C 120.929688 77.417969 121.902344 77.367188 122.535156 77.917969 C 122.628906 77.996094 122.71875 78.097656 122.78125 78.195312 L 122.851562 78.296875 C 122.953125 78.457031 123.136719 78.695312 123.292969 78.886719 C 123.457031 79.09375 123.617188 79.292969 123.804688 79.496094 C 124.148438 79.894531 124.519531 80.28125 124.90625 80.652344 C 125.671875 81.390625 126.5 82.050781 127.378906 82.597656 C 129.136719 83.707031 131.097656 84.324219 133.082031 84.292969 C 135.0625 84.292969 137.054688 83.625 138.917969 82.597656 C 140.777344 81.558594 142.492188 80.171875 144.097656 78.625 L 144.128906 78.597656 C 144.8125 77.9375 145.917969 77.949219 146.582031 78.617188 C 146.640625 78.675781 146.703125 78.746094 146.742188 78.804688 C 146.824219 78.914062 146.96875 79.09375 147.101562 79.246094 C 147.234375 79.394531 147.367188 79.554688 147.511719 79.703125 C 147.796875 80.003906 148.082031 80.300781 148.390625 80.59375 C 148.992188 81.171875 149.636719 81.699219 150.308594 82.167969 C 151.660156 83.105469 153.132812 83.816406 154.652344 84.046875 C 156.175781 84.304688 157.738281 84.066406 159.210938 83.417969 C 159.945312 83.097656 160.664062 82.65625 161.335938 82.160156 C 162.019531 81.671875 162.664062 81.101562 163.277344 80.492188 L 163.359375 80.414062 C 163.769531 80.003906 164.433594 80.003906 164.839844 80.402344 C 164.871094 80.433594 164.914062 80.472656 164.945312 80.511719 C 165.085938 80.691406 165.320312 80.941406 165.535156 81.152344 C 165.761719 81.371094 165.996094 81.582031 166.242188 81.78125 C 166.730469 82.179688 167.253906 82.558594 167.804688 82.886719 C 168.886719 83.574219 170.085938 84.136719 171.339844 84.503906 C 172.597656 84.882812 173.925781 85.132812 175.273438 85.191406 C 176.605469 85.261719 177.972656 85.203125 179.34375 85.003906 Z M 179.34375 85.003906 " fill-opacity="1" fill-rule="nonzero"/></g><g clip-path="url(#f9baf0d3b1)"><path fill="#0081c9" d="M 162.152344 89.105469 C 161.511719 89.445312 160.847656 89.804688 160.160156 90.09375 L 159.109375 90.480469 L 158.578125 90.671875 C 158.394531 90.730469 158.210938 90.773438 158.027344 90.820312 L 156.910156 91.089844 C 156.535156 91.171875 156.15625 91.199219 155.777344 91.261719 L 155.207031 91.332031 C 155.011719 91.351562 154.816406 91.351562 154.621094 91.359375 C 154.234375 91.371094 153.847656 91.390625 153.449219 91.378906 C 151.882812 91.320312 150.308594 91.03125 148.808594 90.492188 C 148.050781 90.222656 147.328125 89.882812 146.621094 89.496094 C 146.292969 89.292969 145.957031 89.09375 145.640625 88.875 C 144.015625 90.011719 142.195312 90.953125 140.253906 91.550781 C 139.089844 91.917969 137.882812 92.128906 136.679688 92.257812 C 135.460938 92.367188 134.246094 92.359375 133.050781 92.230469 C 130.660156 91.988281 128.371094 91.269531 126.285156 90.261719 C 124.210938 89.246094 122.28125 87.949219 120.726562 86.3125 C 122.761719 87.296875 124.835938 88.066406 126.929688 88.644531 C 129.023438 89.203125 131.140625 89.554688 133.222656 89.5625 C 134.265625 89.5625 135.300781 89.515625 136.3125 89.355469 C 137.324219 89.195312 138.324219 88.964844 139.285156 88.644531 C 141.214844 88.007812 143.035156 87.027344 144.722656 85.832031 L 144.730469 85.832031 C 145.363281 85.382812 146.222656 85.460938 146.753906 85.980469 L 146.878906 86.101562 C 146.929688 86.152344 146.980469 86.199219 147.039062 86.25 C 147.152344 86.351562 147.265625 86.449219 147.398438 86.550781 C 147.632812 86.75 147.910156 86.929688 148.164062 87.117188 C 148.707031 87.457031 149.269531 87.808594 149.871094 88.078125 C 151.054688 88.644531 152.34375 89.066406 153.683594 89.324219 C 154.355469 89.425781 155.03125 89.554688 155.726562 89.574219 C 156.074219 89.59375 156.421875 89.632812 156.769531 89.632812 L 157.832031 89.613281 C 158.003906 89.613281 158.1875 89.613281 158.363281 89.605469 L 158.894531 89.554688 L 159.976562 89.464844 C 160.691406 89.324219 161.40625 89.195312 162.152344 89.105469 Z M 162.152344 89.105469 " fill-opacity="1" fill-rule="nonzero"/></g><g clip-path="url(#dc9558bb19)"><path fill="#21b8ed" d="M 337.238281 139.980469 C 335.609375 140.566406 333.886719 140.96875 332.128906 141.136719 C 330.367188 141.304688 328.554688 141.265625 326.785156 140.929688 C 325.011719 140.617188 323.265625 140.03125 321.609375 139.226562 C 320.785156 138.8125 319.988281 138.347656 319.230469 137.8125 C 318.886719 137.566406 318.550781 137.308594 318.21875 137.035156 C 316.882812 138.539062 315.328125 139.929688 313.464844 140.96875 C 311.191406 142.265625 308.40625 142.914062 305.707031 142.601562 C 303.011719 142.304688 300.519531 141.214844 298.386719 139.800781 C 297.320312 139.085938 296.320312 138.292969 295.382812 137.4375 C 295.046875 137.125 294.726562 136.800781 294.40625 136.476562 C 292.683594 138.101562 290.796875 139.589844 288.675781 140.824219 C 285.890625 142.484375 282.574219 143.625 279.109375 143.613281 C 275.640625 143.625 272.25 142.382812 269.539062 140.488281 C 268.179688 139.539062 266.945312 138.449219 265.828125 137.257812 C 265.277344 136.660156 264.75 136.035156 264.261719 135.402344 C 264.25 135.386719 264.234375 135.363281 264.222656 135.347656 C 263.605469 135.90625 262.949219 136.4375 262.28125 136.945312 C 260.972656 137.957031 259.558594 138.863281 258.082031 139.605469 C 255.117188 141.136719 251.828125 141.992188 248.539062 142.121094 C 245.253906 142.277344 242.003906 141.617188 239.011719 140.511719 C 236.042969 139.359375 233.257812 137.761719 230.894531 135.6875 C 232.242188 136.492188 233.640625 137.140625 235.082031 137.710938 C 236.503906 138.28125 237.96875 138.734375 239.445312 139.074219 C 242.402344 139.785156 245.417969 139.941406 248.320312 139.554688 C 251.226562 139.152344 253.984375 138.113281 256.464844 136.621094 C 258.957031 135.128906 261.152344 133.128906 263.105469 130.925781 C 263.824219 130.121094 265.042969 130.054688 265.839844 130.769531 C 265.957031 130.875 266.070312 131.003906 266.148438 131.132812 L 266.238281 131.261719 C 266.367188 131.46875 266.597656 131.78125 266.792969 132.027344 C 266.996094 132.300781 267.203125 132.558594 267.433594 132.820312 C 267.871094 133.339844 268.332031 133.84375 268.820312 134.324219 C 269.785156 135.285156 270.824219 136.140625 271.929688 136.855469 C 274.136719 138.292969 276.605469 139.097656 279.09375 139.058594 C 281.585938 139.058594 284.089844 138.191406 286.429688 136.855469 C 288.765625 135.503906 290.925781 133.703125 292.941406 131.691406 L 292.980469 131.652344 C 293.839844 130.796875 295.226562 130.808594 296.0625 131.675781 C 296.140625 131.753906 296.214844 131.847656 296.265625 131.925781 C 296.371094 132.066406 296.550781 132.300781 296.71875 132.496094 C 296.882812 132.691406 297.050781 132.898438 297.230469 133.089844 C 297.589844 133.480469 297.949219 133.871094 298.335938 134.246094 C 299.09375 135 299.902344 135.6875 300.75 136.296875 C 302.445312 137.515625 304.292969 138.4375 306.207031 138.734375 C 308.121094 139.074219 310.085938 138.761719 311.9375 137.917969 C 312.863281 137.503906 313.761719 136.933594 314.609375 136.285156 C 315.46875 135.648438 316.277344 134.90625 317.046875 134.117188 L 317.152344 134.011719 C 317.664062 133.480469 318.5 133.480469 319.015625 134 C 319.050781 134.039062 319.105469 134.089844 319.140625 134.144531 C 319.320312 134.375 319.617188 134.699219 319.886719 134.972656 C 320.167969 135.257812 320.464844 135.53125 320.773438 135.789062 C 321.390625 136.308594 322.042969 136.800781 322.738281 137.230469 C 324.101562 138.125 325.601562 138.851562 327.183594 139.332031 C 328.761719 139.824219 330.433594 140.148438 332.128906 140.226562 C 333.796875 140.316406 335.519531 140.242188 337.238281 139.980469 Z M 337.238281 139.980469 " fill-opacity="1" fill-rule="nonzero"/></g><g clip-path="url(#d61ca4e157)"><path fill="#0081c9" d="M 315.636719 145.3125 C 314.828125 145.753906 313.992188 146.222656 313.132812 146.597656 L 311.808594 147.105469 L 311.140625 147.351562 C 310.910156 147.429688 310.679688 147.480469 310.445312 147.542969 L 309.046875 147.894531 C 308.570312 148 308.097656 148.039062 307.621094 148.117188 L 306.902344 148.207031 C 306.65625 148.234375 306.414062 148.234375 306.171875 148.246094 C 305.683594 148.257812 305.195312 148.285156 304.691406 148.269531 C 302.726562 148.195312 300.75 147.816406 298.863281 147.117188 C 297.910156 146.765625 297 146.324219 296.113281 145.820312 C 295.703125 145.558594 295.277344 145.300781 294.878906 145.015625 C 292.839844 146.492188 290.550781 147.714844 288.113281 148.492188 C 286.648438 148.972656 285.132812 149.246094 283.617188 149.414062 C 282.089844 149.554688 280.558594 149.542969 279.058594 149.375 C 276.050781 149.0625 273.175781 148.128906 270.554688 146.816406 C 267.945312 145.496094 265.519531 143.808594 263.566406 141.679688 C 266.125 142.964844 268.730469 143.964844 271.363281 144.714844 C 273.996094 145.441406 276.65625 145.898438 279.273438 145.910156 C 280.585938 145.910156 281.882812 145.84375 283.152344 145.636719 C 284.425781 145.429688 285.683594 145.132812 286.890625 144.714844 C 289.320312 143.886719 291.605469 142.613281 293.722656 141.058594 L 293.738281 141.058594 C 294.535156 140.472656 295.613281 140.578125 296.28125 141.253906 L 296.433594 141.40625 C 296.5 141.472656 296.5625 141.539062 296.640625 141.601562 C 296.78125 141.734375 296.921875 141.863281 297.089844 141.992188 C 297.386719 142.25 297.730469 142.484375 298.054688 142.730469 C 298.734375 143.171875 299.441406 143.625 300.199219 143.976562 C 301.6875 144.714844 303.304688 145.261719 304.988281 145.597656 C 305.835938 145.726562 306.683594 145.898438 307.558594 145.921875 C 307.992188 145.949219 308.429688 146 308.867188 146 L 310.203125 145.976562 C 310.421875 145.976562 310.652344 145.976562 310.871094 145.960938 L 311.539062 145.898438 L 312.898438 145.78125 C 313.800781 145.597656 314.699219 145.429688 315.636719 145.3125 Z M 315.636719 145.3125 " fill-opacity="1" fill-rule="nonzero"/></g><g clip-path="url(#2a3043c580)"><path fill="#21b8ed" d="M 127.550781 187.757812 C 125.921875 188.339844 124.199219 188.742188 122.441406 188.910156 C 120.679688 189.082031 118.871094 189.042969 117.097656 188.703125 C 115.324219 188.394531 113.578125 187.808594 111.921875 187.003906 C 111.097656 186.589844 110.300781 186.121094 109.542969 185.589844 C 109.199219 185.34375 108.863281 185.085938 108.53125 184.8125 C 107.195312 186.316406 105.640625 187.703125 103.777344 188.742188 C 101.503906 190.039062 98.71875 190.6875 96.019531 190.378906 C 93.324219 190.078125 90.832031 188.988281 88.699219 187.574219 C 87.632812 186.863281 86.632812 186.070312 85.695312 185.214844 C 85.359375 184.902344 85.039062 184.578125 84.71875 184.253906 C 82.996094 185.875 81.109375 187.367188 78.988281 188.601562 C 76.203125 190.261719 72.890625 191.402344 69.421875 191.390625 C 65.953125 191.402344 62.5625 190.15625 59.851562 188.261719 C 58.492188 187.316406 57.257812 186.226562 56.140625 185.03125 C 55.589844 184.433594 55.0625 183.8125 54.574219 183.175781 C 54.5625 183.164062 54.546875 183.136719 54.535156 183.125 C 53.917969 183.683594 53.265625 184.214844 52.597656 184.722656 C 51.285156 185.734375 49.871094 186.640625 48.394531 187.378906 C 45.429688 188.910156 42.140625 189.769531 38.851562 189.898438 C 35.566406 190.054688 32.316406 189.390625 29.324219 188.289062 C 26.355469 187.132812 23.570312 185.539062 21.207031 183.460938 C 22.554688 184.265625 23.953125 184.914062 25.394531 185.488281 C 26.820312 186.058594 28.28125 186.511719 29.757812 186.847656 C 32.714844 187.5625 35.730469 187.71875 38.632812 187.328125 C 41.539062 186.925781 44.296875 185.886719 46.777344 184.398438 C 49.269531 182.90625 51.464844 180.90625 53.417969 178.699219 C 54.136719 177.898438 55.355469 177.832031 56.152344 178.546875 C 56.269531 178.648438 56.382812 178.777344 56.460938 178.910156 L 56.550781 179.039062 C 56.679688 179.246094 56.910156 179.558594 57.105469 179.804688 C 57.308594 180.078125 57.515625 180.335938 57.746094 180.59375 C 58.183594 181.113281 58.644531 181.621094 59.132812 182.101562 C 60.097656 183.058594 61.136719 183.917969 62.242188 184.628906 C 64.449219 186.070312 66.917969 186.875 69.410156 186.835938 C 71.898438 186.835938 74.40625 185.964844 76.742188 184.628906 C 79.078125 183.28125 81.238281 181.476562 83.253906 179.464844 L 83.292969 179.425781 C 84.152344 178.570312 85.539062 178.585938 86.375 179.453125 C 86.453125 179.53125 86.527344 179.621094 86.582031 179.699219 C 86.683594 179.84375 86.863281 180.078125 87.03125 180.269531 C 87.195312 180.464844 87.363281 180.671875 87.542969 180.867188 C 87.902344 181.257812 88.261719 181.644531 88.648438 182.023438 C 89.40625 182.773438 90.214844 183.460938 91.0625 184.070312 C 92.757812 185.292969 94.609375 186.214844 96.519531 186.511719 C 98.433594 186.847656 100.398438 186.539062 102.25 185.695312 C 103.175781 185.277344 104.074219 184.707031 104.921875 184.058594 C 105.78125 183.421875 106.589844 182.683594 107.359375 181.894531 L 107.464844 181.789062 C 107.976562 181.257812 108.8125 181.257812 109.328125 181.777344 C 109.363281 181.816406 109.417969 181.867188 109.453125 181.917969 C 109.632812 182.152344 109.929688 182.476562 110.199219 182.75 C 110.480469 183.035156 110.777344 183.308594 111.085938 183.566406 C 111.703125 184.085938 112.359375 184.578125 113.050781 185.007812 C 114.414062 185.902344 115.914062 186.628906 117.496094 187.109375 C 119.074219 187.601562 120.746094 187.925781 122.441406 188.003906 C 124.109375 188.09375 125.832031 188.015625 127.550781 187.757812 Z M 127.550781 187.757812 " fill-opacity="1" fill-rule="nonzero"/></g><g clip-path="url(#3334c709a5)"><path fill="#0081c9" d="M 105.949219 193.089844 C 105.140625 193.53125 104.304688 193.996094 103.445312 194.375 L 102.121094 194.878906 L 101.453125 195.125 C 101.222656 195.203125 100.992188 195.257812 100.757812 195.320312 L 99.359375 195.671875 C 98.882812 195.773438 98.410156 195.8125 97.933594 195.890625 L 97.214844 195.984375 C 96.972656 196.007812 96.726562 196.007812 96.484375 196.019531 C 95.996094 196.035156 95.507812 196.058594 95.003906 196.046875 C 93.039062 195.96875 91.0625 195.59375 89.175781 194.894531 C 88.222656 194.542969 87.3125 194.101562 86.425781 193.59375 C 86.015625 193.335938 85.589844 193.078125 85.191406 192.789062 C 83.152344 194.269531 80.863281 195.488281 78.425781 196.269531 C 76.960938 196.746094 75.445312 197.019531 73.929688 197.1875 C 72.402344 197.332031 70.871094 197.320312 69.371094 197.148438 C 66.363281 196.839844 63.488281 195.90625 60.867188 194.59375 C 58.261719 193.269531 55.832031 191.585938 53.878906 189.457031 C 56.4375 190.742188 59.042969 191.738281 61.675781 192.492188 C 64.308594 193.21875 66.96875 193.671875 69.589844 193.6875 C 70.898438 193.6875 72.195312 193.621094 73.46875 193.414062 C 74.738281 193.207031 75.996094 192.90625 77.203125 192.492188 C 79.632812 191.660156 81.917969 190.390625 84.039062 188.832031 L 84.050781 188.832031 C 84.847656 188.25 85.925781 188.355469 86.59375 189.027344 L 86.746094 189.183594 C 86.8125 189.25 86.875 189.3125 86.953125 189.378906 C 87.09375 189.507812 87.234375 189.636719 87.402344 189.769531 C 87.699219 190.027344 88.042969 190.261719 88.367188 190.507812 C 89.046875 190.949219 89.753906 191.402344 90.511719 191.753906 C 92 192.492188 93.617188 193.039062 95.300781 193.375 C 96.148438 193.503906 96.996094 193.671875 97.871094 193.699219 C 98.304688 193.726562 98.742188 193.777344 99.179688 193.777344 L 100.515625 193.75 C 100.734375 193.75 100.964844 193.75 101.183594 193.738281 L 101.851562 193.671875 L 103.210938 193.554688 C 104.113281 193.375 105.011719 193.207031 105.949219 193.089844 Z M 105.949219 193.089844 " fill-opacity="1" fill-rule="nonzero"/></g><g clip-path="url(#330891f3e7)"><path fill="#21b8ed" d="M 285.097656 294.375 C 282.972656 295.140625 280.730469 295.664062 278.4375 295.886719 C 276.144531 296.105469 273.785156 296.054688 271.476562 295.613281 C 269.167969 295.207031 266.894531 294.445312 264.734375 293.390625 C 263.664062 292.851562 262.628906 292.238281 261.640625 291.542969 C 261.1875 291.222656 260.753906 290.882812 260.320312 290.523438 C 258.578125 292.492188 256.554688 294.308594 254.128906 295.664062 C 251.167969 297.363281 247.535156 298.210938 244.023438 297.804688 C 240.507812 297.414062 237.261719 295.988281 234.484375 294.140625 C 233.097656 293.207031 231.792969 292.171875 230.570312 291.050781 C 230.136719 290.644531 229.71875 290.21875 229.300781 289.796875 C 227.058594 291.917969 224.597656 293.867188 221.835938 295.480469 C 218.207031 297.652344 213.890625 299.144531 209.371094 299.128906 C 204.855469 299.144531 200.4375 297.515625 196.910156 295.039062 C 195.136719 293.800781 193.527344 292.375 192.074219 290.8125 C 191.355469 290.035156 190.667969 289.21875 190.03125 288.386719 C 190.015625 288.371094 190 288.335938 189.980469 288.320312 C 189.179688 289.050781 188.324219 289.746094 187.457031 290.40625 C 185.75 291.730469 183.910156 292.917969 181.984375 293.882812 C 178.121094 295.886719 173.835938 297.007812 169.554688 297.175781 C 165.269531 297.378906 161.039062 296.515625 157.140625 295.070312 C 153.273438 293.5625 149.644531 291.476562 146.566406 288.761719 C 148.320312 289.8125 150.144531 290.660156 152.019531 291.40625 C 153.875 292.152344 155.785156 292.746094 157.707031 293.1875 C 161.554688 294.121094 165.488281 294.324219 169.269531 293.816406 C 173.050781 293.289062 176.648438 291.933594 179.875 289.980469 C 183.121094 288.03125 185.984375 285.417969 188.527344 282.535156 C 189.464844 281.480469 191.050781 281.398438 192.089844 282.332031 C 192.242188 282.464844 192.390625 282.636719 192.492188 282.804688 L 192.609375 282.976562 C 192.777344 283.246094 193.078125 283.652344 193.328125 283.976562 C 193.597656 284.332031 193.863281 284.671875 194.164062 285.011719 C 194.734375 285.691406 195.335938 286.351562 195.972656 286.980469 C 197.226562 288.234375 198.582031 289.355469 200.019531 290.289062 C 202.898438 292.171875 206.109375 293.222656 209.355469 293.171875 C 212.601562 293.171875 215.863281 292.035156 218.910156 290.289062 C 221.953125 288.523438 224.765625 286.164062 227.390625 283.535156 L 227.441406 283.484375 C 228.5625 282.363281 230.371094 282.382812 231.457031 283.519531 C 231.558594 283.621094 231.660156 283.738281 231.726562 283.839844 C 231.859375 284.027344 232.09375 284.332031 232.3125 284.585938 C 232.527344 284.839844 232.746094 285.113281 232.980469 285.367188 C 233.449219 285.875 233.917969 286.386719 234.417969 286.878906 C 235.40625 287.863281 236.460938 288.761719 237.5625 289.558594 C 239.773438 291.152344 242.183594 292.359375 244.675781 292.746094 C 247.167969 293.1875 249.726562 292.78125 252.136719 291.679688 C 253.339844 291.136719 254.511719 290.390625 255.617188 289.542969 C 256.738281 288.710938 257.792969 287.742188 258.796875 286.707031 L 258.929688 286.570312 C 259.597656 285.875 260.6875 285.875 261.355469 286.554688 C 261.40625 286.605469 261.472656 286.675781 261.523438 286.742188 C 261.757812 287.046875 262.140625 287.472656 262.492188 287.828125 C 262.863281 288.199219 263.246094 288.558594 263.648438 288.898438 C 264.449219 289.574219 265.304688 290.21875 266.207031 290.78125 C 267.980469 291.949219 269.9375 292.902344 271.996094 293.527344 C 274.054688 294.171875 276.230469 294.597656 278.4375 294.699219 C 280.613281 294.816406 282.855469 294.714844 285.097656 294.375 Z M 285.097656 294.375 " fill-opacity="1" fill-rule="nonzero"/></g><g clip-path="url(#7a7e2ec21c)"><path fill="#0081c9" d="M 256.957031 301.351562 C 255.902344 301.925781 254.8125 302.539062 253.691406 303.027344 L 251.96875 303.691406 L 251.101562 304.011719 C 250.796875 304.113281 250.496094 304.183594 250.195312 304.269531 L 248.371094 304.726562 C 247.753906 304.863281 247.132812 304.914062 246.515625 305.015625 L 245.578125 305.132812 C 245.261719 305.167969 244.941406 305.167969 244.625 305.183594 C 243.988281 305.199219 243.351562 305.234375 242.699219 305.21875 C 240.140625 305.117188 237.5625 304.625 235.105469 303.707031 C 233.867188 303.25 232.679688 302.671875 231.523438 302.011719 C 230.988281 301.671875 230.4375 301.332031 229.917969 300.960938 C 227.257812 302.894531 224.28125 304.488281 221.101562 305.507812 C 219.195312 306.132812 217.21875 306.492188 215.246094 306.710938 C 213.253906 306.898438 211.261719 306.878906 209.304688 306.660156 C 205.390625 306.253906 201.644531 305.03125 198.230469 303.316406 C 194.832031 301.585938 191.671875 299.382812 189.128906 296.597656 C 192.457031 298.277344 195.855469 299.585938 199.285156 300.570312 C 202.714844 301.519531 206.175781 302.113281 209.589844 302.128906 C 211.296875 302.128906 212.988281 302.046875 214.644531 301.773438 C 216.300781 301.503906 217.9375 301.113281 219.511719 300.570312 C 222.675781 299.484375 225.652344 297.820312 228.414062 295.785156 L 228.429688 295.785156 C 229.464844 295.019531 230.871094 295.15625 231.742188 296.039062 L 231.941406 296.242188 C 232.027344 296.328125 232.109375 296.414062 232.210938 296.496094 C 232.394531 296.667969 232.578125 296.835938 232.796875 297.007812 C 233.179688 297.34375 233.632812 297.652344 234.050781 297.972656 C 234.9375 298.550781 235.859375 299.144531 236.84375 299.601562 C 238.785156 300.570312 240.894531 301.28125 243.085938 301.722656 C 244.191406 301.890625 245.292969 302.113281 246.433594 302.148438 C 247 302.179688 247.570312 302.25 248.136719 302.25 L 249.878906 302.214844 C 250.164062 302.214844 250.464844 302.214844 250.75 302.199219 L 251.617188 302.113281 L 253.390625 301.960938 C 254.5625 301.722656 255.734375 301.503906 256.957031 301.351562 Z M 256.957031 301.351562 " fill-opacity="1" fill-rule="nonzero"/></g></svg>