<svg xmlns="http://www.w3.org/2000/svg" xmlns:xlink="http://www.w3.org/1999/xlink" width="500" zoomAndPan="magnify" viewBox="0 0 375 374.999991" height="500" preserveAspectRatio="xMidYMid meet" version="1.0"><defs><clipPath id="47d0ae2796"><path d="M 31.636719 31.636719 L 343.636719 31.636719 L 343.636719 343.636719 L 31.636719 343.636719 Z M 31.636719 31.636719 " clip-rule="nonzero"/></clipPath><clipPath id="1f3a731bb8"><path d="M 147 40 L 343.636719 40 L 343.636719 226 L 147 226 Z M 147 40 " clip-rule="nonzero"/></clipPath><clipPath id="5df4127be5"><path d="M 76 227.335938 L 150 227.335938 L 150 244 L 76 244 Z M 76 227.335938 " clip-rule="nonzero"/></clipPath></defs><g clip-path="url(#47d0ae2796)"><path fill="#545454" d="M 343.375 187.488281 C 343.375 187.855469 343.375 188.261719 343.351562 188.636719 C 343.304688 196.3125 342.703125 203.863281 341.546875 211.246094 C 336.121094 246.902344 318.617188 278.558594 293.339844 301.917969 L 293.3125 301.917969 C 265.507812 327.648438 228.320312 343.375 187.488281 343.375 C 167.503906 343.375 148.398438 339.625 130.871094 332.746094 C 128.699219 331.925781 126.542969 331.023438 124.414062 330.078125 C 94.757812 316.941406 70 294.84375 53.523438 267.179688 C 45.25 253.28125 39.042969 237.972656 35.390625 221.722656 C 32.917969 210.691406 31.617188 199.234375 31.617188 187.488281 C 31.617188 183.363281 31.769531 179.28125 32.121094 175.261719 C 34.746094 141.070312 48.425781 109.984375 69.582031 85.558594 C 77.726562 76.148438 86.984375 67.722656 97.140625 60.5 L 97.164062 60.476562 C 99.914062 58.53125 102.738281 56.628906 105.640625 54.851562 C 123.347656 43.898438 143.398438 36.367188 164.878906 33.242188 C 172.253906 32.164062 179.808594 31.617188 187.488281 31.617188 C 205.789062 31.617188 223.390625 34.789062 239.699219 40.597656 C 266.058594 49.949219 289.109375 66.203125 306.765625 87.15625 C 329.628906 114.269531 343.375 149.277344 343.375 187.488281 " fill-opacity="1" fill-rule="nonzero"/></g><path fill="#545454" d="M 208.3125 309.480469 C 208.3125 309.480469 199.824219 297.640625 200.769531 277.34375 C 201.707031 257.046875 199.824219 253.667969 186.628906 249.4375 C 173.433594 245.210938 160.230469 237.59375 158.347656 227.449219 C 156.464844 217.296875 167.773438 193.617188 167.773438 193.617188 C 167.773438 193.617188 182.859375 183.472656 196.054688 185.160156 C 209.25 186.855469 231.878906 186.855469 242.246094 196.160156 C 252.617188 205.457031 259.207031 226.601562 263.921875 227.449219 C 268.636719 228.296875 257.324219 264.660156 255.441406 270.582031 C 253.554688 276.496094 247.902344 300.183594 243.191406 309.480469 C 238.476562 318.785156 233.761719 327.242188 229.988281 327.242188 C 226.21875 327.242188 209.25 328.933594 208.3125 309.480469 " fill-opacity="1" fill-rule="nonzero"/><path fill="#545454" d="M 135.070312 307.546875 C 134.246094 311.542969 132.773438 322.171875 130.871094 332.746094 C 128.699219 331.925781 126.542969 331.023438 124.414062 330.078125 C 94.757812 316.941406 70 294.84375 53.523438 267.179688 C 45.25 253.28125 39.042969 237.972656 35.390625 221.722656 C 41.144531 218.664062 48.347656 215.917969 55.425781 216.046875 C 70.925781 216.34375 72.878906 220.15625 86.082031 229.625 C 99.257812 239.109375 109.585938 262.761719 115.164062 263.167969 C 120.738281 263.542969 136.5 300.441406 135.070312 307.546875 " fill-opacity="1" fill-rule="nonzero"/><g clip-path="url(#1f3a731bb8)"><path fill="#545454" d="M 343.375 187.488281 C 343.375 187.855469 343.375 188.261719 343.351562 188.636719 C 343.304688 196.3125 342.703125 203.863281 341.546875 211.246094 C 334.550781 200.964844 326.996094 185.535156 323.148438 182.835938 C 317.21875 178.65625 295.492188 176.160156 303.390625 187.007812 C 311.296875 197.890625 314.640625 197.890625 314.640625 197.890625 C 314.640625 197.890625 299.4375 228.496094 288.589844 225.527344 C 277.714844 222.574219 255.980469 182.835938 255.980469 182.835938 C 243.148438 172.734375 267.832031 165.28125 267.832031 165.28125 C 267.832031 165.28125 275.738281 158.378906 263.878906 150.472656 C 252.027344 142.574219 243.148438 159.355469 235.25 157.378906 C 227.351562 155.402344 225.367188 163.300781 222.894531 171.207031 C 220.421875 179.105469 213.214844 183.835938 211.539062 171.207031 C 209.839844 158.574219 191.785156 166.285156 185.863281 166.285156 C 179.933594 166.285156 168.082031 187.007812 157.199219 187.007812 C 146.347656 187.007812 146.347656 172.207031 148.324219 165.28125 C 150.300781 158.378906 167.082031 151.449219 182.886719 150.472656 C 198.6875 149.480469 183.886719 135.644531 188.8125 132.96875 C 193.761719 130.269531 208.570312 134.667969 222.894531 140.597656 C 237.199219 146.527344 252.027344 132.695312 264.878906 132.96875 C 277.714844 133.246094 237.226562 122.820312 250.050781 112.9375 C 262.910156 103.0625 235.25 94.164062 236.222656 83.304688 C 237.226562 72.429688 228.320312 59.597656 228.320312 47.746094 C 228.320312 43.972656 232.523438 41.515625 239.699219 40.597656 C 266.058594 49.949219 289.109375 66.203125 306.765625 87.15625 C 329.628906 114.269531 343.375 149.277344 343.375 187.488281 " fill-opacity="1" fill-rule="nonzero"/></g><path fill="#545454" d="M 122.707031 134.792969 C 122.707031 134.792969 128.433594 141.554688 132.847656 134.792969 C 137.265625 128.023438 137.890625 122.628906 135.128906 122.144531 C 132.355469 121.644531 115.921875 131.976562 122.707031 134.792969 " fill-opacity="1" fill-rule="nonzero"/><path fill="#545454" d="M 89.351562 134.792969 C 89.351562 134.792969 101.121094 131.785156 103.738281 125.898438 C 106.359375 120.007812 121.402344 122.628906 125.324219 116.738281 C 129.25 110.851562 139.40625 108.75 141.855469 103.257812 C 144.292969 97.773438 146.949219 89.273438 136.792969 88.609375 C 126.636719 87.957031 116.621094 83.386719 116.722656 88.609375 C 116.824219 93.851562 114.207031 92.535156 105.050781 95.808594 C 95.894531 99.078125 86.082031 94.359375 86.082031 103.257812 C 86.082031 112.164062 88.699219 122.117188 88.699219 122.117188 C 88.699219 122.117188 83.464844 129.300781 89.351562 134.792969 " fill-opacity="1" fill-rule="nonzero"/><path fill="#545454" d="M 164.878906 33.242188 C 164.878906 33.242188 147.347656 56.652344 144.097656 57.277344 C 140.824219 57.898438 130.796875 64.769531 128.945312 71.65625 C 127.070312 78.539062 113.9375 82.90625 103.941406 78.539062 C 93.9375 74.15625 91.632812 69.332031 97.140625 60.5 L 97.164062 60.476562 C 99.914062 58.53125 102.738281 56.628906 105.640625 54.851562 C 123.347656 43.898438 143.398438 36.367188 164.878906 33.242188 " fill-opacity="1" fill-rule="nonzero"/><path fill="#545454" d="M 66.632812 125.21875 C 64.972656 130.21875 65.378906 136.050781 59.976562 137.792969 C 54.546875 139.550781 56.628906 146.046875 52.878906 154.375 C 49.5 161.882812 35.023438 173.082031 32.121094 175.261719 C 34.746094 141.070312 48.425781 109.984375 69.582031 85.558594 C 71.78125 92.234375 70.925781 103.257812 72.878906 106.863281 C 75.804688 112.285156 68.300781 120.214844 66.632812 125.21875 " fill-opacity="1" fill-rule="nonzero"/><path fill="#b07a60" d="M 260.148438 185.089844 C 251.605469 184.128906 232.207031 183.742188 223.625 183.203125 C 215.417969 182.691406 188.414062 184.152344 185.765625 188.234375 C 183.453125 192.425781 178.832031 200.804688 181.984375 205.832031 C 185.132812 210.863281 206.242188 205.640625 215.429688 205.832031 C 233.933594 206.222656 241.414062 207.964844 260.148438 208.976562 C 269.203125 209.464844 307.855469 215.699219 311.839844 208.976562 C 315.097656 203.480469 314.695312 198.34375 311.839844 192.632812 C 309.265625 187.484375 306.796875 185.875 300.492188 185.875 C 286.65625 185.875 275.273438 186.789062 260.148438 185.089844 Z M 260.148438 185.089844 " fill-opacity="1" fill-rule="nonzero"/><path fill="#ca7a53" d="M 143.761719 128.390625 C 133.613281 127.246094 110.578125 126.785156 100.382812 126.144531 C 90.636719 125.535156 58.566406 127.273438 55.417969 132.136719 C 52.675781 137.125 47.183594 147.109375 50.925781 153.097656 C 54.671875 159.085938 79.738281 152.867188 90.652344 153.097656 C 112.628906 153.5625 121.511719 155.636719 143.761719 156.839844 C 154.515625 157.421875 200.421875 164.847656 205.152344 156.839844 C 209.019531 150.296875 208.542969 144.179688 205.152344 137.375 C 202.097656 131.246094 199.164062 129.328125 191.675781 129.328125 C 175.242188 129.328125 161.726562 130.417969 143.761719 128.390625 Z M 143.761719 128.390625 " fill-opacity="1" fill-rule="nonzero"/><path fill="#b07a60" d="M 238.738281 79.960938 C 231.039062 79.089844 213.558594 78.734375 205.828125 78.246094 C 198.429688 77.78125 174.09375 79.109375 171.710938 82.816406 C 169.625 86.628906 165.460938 94.246094 168.300781 98.816406 C 171.140625 103.390625 190.160156 98.640625 198.441406 98.816406 C 215.117188 99.171875 221.855469 100.753906 238.738281 101.675781 C 246.898438 102.121094 281.730469 107.785156 285.320312 101.675781 C 288.253906 96.679688 287.890625 92.011719 285.320312 86.816406 C 283 82.136719 280.773438 80.675781 275.09375 80.675781 C 262.625 80.675781 252.367188 81.507812 238.738281 79.960938 Z M 238.738281 79.960938 " fill-opacity="1" fill-rule="nonzero"/><g clip-path="url(#5df4127be5)"><path fill="#b07a60" d="M 119.785156 228.644531 C 115.089844 228.121094 104.429688 227.90625 99.714844 227.613281 C 95.203125 227.335938 80.363281 228.132812 78.90625 230.355469 C 77.636719 232.644531 75.097656 237.214844 76.828125 239.957031 C 78.5625 242.699219 90.160156 239.851562 95.210938 239.957031 C 105.378906 240.171875 109.488281 241.121094 119.785156 241.671875 C 124.761719 241.9375 146.003906 245.339844 148.191406 241.671875 C 149.980469 238.675781 149.761719 235.871094 148.191406 232.757812 C 146.777344 229.949219 145.421875 229.070312 141.957031 229.070312 C 134.351562 229.070312 128.097656 229.570312 119.785156 228.644531 Z M 119.785156 228.644531 " fill-opacity="1" fill-rule="nonzero"/></g><path fill="#ca7a53" d="M 189.546875 275.804688 C 182.527344 275.011719 166.59375 274.691406 159.542969 274.25 C 152.800781 273.828125 130.613281 275.03125 128.441406 278.394531 C 126.539062 281.847656 122.742188 288.75 125.332031 292.894531 C 127.921875 297.035156 145.261719 292.734375 152.808594 292.894531 C 168.011719 293.214844 174.15625 294.648438 189.546875 295.484375 C 196.984375 295.886719 228.738281 301.023438 232.011719 295.484375 C 234.6875 290.957031 234.355469 286.726562 232.011719 282.019531 C 229.898438 277.777344 227.867188 276.453125 222.691406 276.453125 C 211.320312 276.453125 201.972656 277.203125 189.546875 275.804688 Z M 189.546875 275.804688 " fill-opacity="1" fill-rule="nonzero"/></svg>