<svg xmlns="http://www.w3.org/2000/svg" xmlns:xlink="http://www.w3.org/1999/xlink" width="500" zoomAndPan="magnify" viewBox="0 0 375 374.999991" height="500" preserveAspectRatio="xMidYMid meet" version="1.0"><defs><clipPath id="30e2c61c0d"><path d="M 0 0.636719 L 374.25 0.636719 L 374.25 374.886719 L 0 374.886719 Z M 0 0.636719 " clip-rule="nonzero"/></clipPath><clipPath id="d7f50705cb"><path d="M 138 11 L 374.25 11 L 374.25 234 L 138 234 Z M 138 11 " clip-rule="nonzero"/></clipPath><clipPath id="7f9777c80b"><path d="M 14 205 L 110 205 L 110 293 L 14 293 Z M 14 205 " clip-rule="nonzero"/></clipPath><clipPath id="d2154634bf"><path d="M 35.421875 187.816406 L 119.546875 232.488281 L 84.023438 299.390625 L -0.101562 254.722656 Z M 35.421875 187.816406 " clip-rule="nonzero"/></clipPath><clipPath id="fc2a28f1dc"><path d="M 35.421875 187.816406 L 119.546875 232.488281 L 84.023438 299.390625 L -0.101562 254.722656 Z M 35.421875 187.816406 " clip-rule="nonzero"/></clipPath><clipPath id="6efbfa16cf"><path d="M 57 243 L 153 243 L 153 331 L 57 331 Z M 57 243 " clip-rule="nonzero"/></clipPath><clipPath id="ff267df1fa"><path d="M 79.007812 226.097656 L 163.132812 270.769531 L 127.609375 337.671875 L 43.484375 293 Z M 79.007812 226.097656 " clip-rule="nonzero"/></clipPath><clipPath id="5aa746cf18"><path d="M 79.007812 226.097656 L 163.132812 270.769531 L 127.609375 337.671875 L 43.484375 293 Z M 79.007812 226.097656 " clip-rule="nonzero"/></clipPath><clipPath id="150479040f"><path d="M 76 200 L 226 200 L 226 300 L 76 300 Z M 76 200 " clip-rule="nonzero"/></clipPath><clipPath id="5924967014"><path d="M 68.832031 236.933594 L 208.902344 183.269531 L 235.199219 251.902344 L 95.125 305.566406 Z M 68.832031 236.933594 " clip-rule="nonzero"/></clipPath><clipPath id="99da508142"><path d="M 68.832031 236.933594 L 208.902344 183.269531 L 235.199219 251.902344 L 95.125 305.566406 Z M 68.832031 236.933594 " clip-rule="nonzero"/></clipPath><clipPath id="d77c103876"><path d="M 61 4 L 202 4 L 202 119 L 61 119 Z M 61 4 " clip-rule="nonzero"/></clipPath><clipPath id="02be0300fa"><path d="M 223.050781 98.3125 L 78.390625 145.789062 L 43.78125 40.324219 L 188.4375 -7.152344 Z M 223.050781 98.3125 " clip-rule="nonzero"/></clipPath><clipPath id="8225008e05"><path d="M 223.050781 98.3125 L 78.390625 145.789062 L 43.78125 40.324219 L 188.4375 -7.152344 Z M 223.050781 98.3125 " clip-rule="nonzero"/></clipPath><clipPath id="bc2442443e"><path d="M 94 224.140625 L 150 224.140625 L 150 263 L 94 263 Z M 94 224.140625 " clip-rule="nonzero"/></clipPath><clipPath id="9c81075f6d"><path d="M 109 224.140625 L 145 224.140625 L 145 262 L 109 262 Z M 109 224.140625 " clip-rule="nonzero"/></clipPath><clipPath id="52e7d4269d"><path d="M 215 253.558594 L 256 253.558594 L 256 282 L 215 282 Z M 215 253.558594 " clip-rule="nonzero"/></clipPath><clipPath id="4575865828"><path d="M 219 253.558594 L 246 253.558594 L 246 281 L 219 281 Z M 219 253.558594 " clip-rule="nonzero"/></clipPath><clipPath id="e3f37a305f"><path d="M 192.382812 110.054688 L 253.882812 110.054688 L 253.882812 146 L 192.382812 146 Z M 192.382812 110.054688 " clip-rule="nonzero"/></clipPath><clipPath id="918b177db8"><path d="M 211 110.054688 L 231 110.054688 L 231 142 L 211 142 Z M 211 110.054688 " clip-rule="nonzero"/></clipPath><clipPath id="16c99a2e85"><path d="M 228 110.054688 L 234 110.054688 L 234 136 L 228 136 Z M 228 110.054688 " clip-rule="nonzero"/></clipPath><clipPath id="3eb60c264d"><path d="M 119.960938 61.890625 L 163.378906 61.890625 L 163.378906 87.390625 L 119.960938 87.390625 Z M 119.960938 61.890625 " clip-rule="nonzero"/></clipPath><clipPath id="c1b1c97047"><path d="M 136 61.890625 L 150 61.890625 L 150 84 L 136 84 Z M 136 61.890625 " clip-rule="nonzero"/></clipPath><clipPath id="b966a9c8af"><path d="M 128 76 L 143 76 L 143 87.390625 L 128 87.390625 Z M 128 76 " clip-rule="nonzero"/></clipPath><clipPath id="e2bba76f37"><path d="M 134 61.890625 L 138 61.890625 L 138 80 L 134 80 Z M 134 61.890625 " clip-rule="nonzero"/></clipPath><clipPath id="bb9855ab08"><path d="M 121 80 L 143 80 L 143 87.390625 L 121 87.390625 Z M 121 80 " clip-rule="nonzero"/></clipPath><clipPath id="58477a0949"><path d="M 141 79 L 148 79 L 148 87.390625 L 141 87.390625 Z M 141 79 " clip-rule="nonzero"/></clipPath><clipPath id="e51f050699"><path d="M 139 79 L 143 79 L 143 87.390625 L 139 87.390625 Z M 139 79 " clip-rule="nonzero"/></clipPath><clipPath id="a0868bc759"><path d="M 142 83 L 158 83 L 158 87.390625 L 142 87.390625 Z M 142 83 " clip-rule="nonzero"/></clipPath></defs><rect x="-37.5" width="450" fill="#ffffff" y="-37.499999" height="449.999989" fill-opacity="1"/><rect x="-37.5" width="450" fill="#ffffff" y="-37.499999" height="449.999989" fill-opacity="1"/><g clip-path="url(#30e2c61c0d)"><path fill="#03a8e8" d="M 374.378906 187.800781 C 374.378906 188.242188 374.378906 188.730469 374.347656 189.179688 C 374.289062 198.398438 373.566406 207.464844 372.183594 216.332031 C 365.667969 259.15625 344.644531 297.171875 314.285156 325.226562 L 314.257812 325.226562 C 280.859375 356.121094 236.203125 375.015625 187.164062 375.015625 C 163.167969 375.015625 140.222656 370.511719 119.171875 362.246094 C 116.5625 361.261719 113.976562 360.175781 111.417969 359.042969 C 75.804688 343.269531 46.070312 316.726562 26.28125 283.507812 C 16.34375 266.8125 8.894531 248.429688 4.507812 228.914062 C 1.539062 215.667969 -0.0234375 201.90625 -0.0234375 187.800781 C -0.0234375 182.847656 0.160156 177.945312 0.578125 173.117188 C 3.734375 132.058594 20.164062 94.726562 45.570312 65.390625 C 55.351562 54.089844 66.464844 43.972656 78.664062 35.296875 L 78.691406 35.265625 C 81.996094 32.929688 85.386719 30.644531 88.871094 28.515625 C 110.136719 15.359375 134.214844 6.316406 160.011719 2.5625 C 168.871094 1.265625 177.945312 0.609375 187.164062 0.609375 C 209.144531 0.609375 230.285156 4.421875 249.867188 11.394531 C 281.523438 22.625 309.207031 42.144531 330.414062 67.304688 C 357.867188 99.871094 374.378906 141.910156 374.378906 187.800781 " fill-opacity="1" fill-rule="nonzero"/></g><path fill="#edf6ff" d="M 212.175781 334.304688 C 212.175781 334.304688 201.980469 320.089844 203.117188 295.714844 C 204.242188 271.339844 201.980469 267.277344 186.132812 262.199219 C 170.289062 257.121094 154.433594 247.972656 152.171875 235.789062 C 149.90625 223.601562 163.492188 195.164062 163.492188 195.164062 C 163.492188 195.164062 181.609375 182.980469 197.457031 185.007812 C 213.300781 187.042969 240.476562 187.042969 252.925781 198.214844 C 265.382812 209.382812 273.296875 234.773438 278.960938 235.789062 C 284.621094 236.808594 271.035156 280.480469 268.773438 287.589844 C 266.511719 294.695312 259.722656 323.140625 254.0625 334.304688 C 248.402344 345.480469 242.738281 355.636719 238.207031 355.636719 C 233.683594 355.636719 213.300781 357.671875 212.175781 334.304688 " fill-opacity="1" fill-rule="nonzero"/><path fill="#edf6ff" d="M 124.214844 331.984375 C 123.226562 336.78125 121.457031 349.546875 119.171875 362.246094 C 116.5625 361.261719 113.976562 360.175781 111.417969 359.042969 C 75.804688 343.269531 46.070312 316.726562 26.28125 283.507812 C 16.34375 266.8125 8.894531 248.429688 4.507812 228.914062 C 11.414062 225.242188 20.066406 221.941406 28.566406 222.097656 C 47.183594 222.457031 49.527344 227.035156 65.382812 238.40625 C 81.207031 249.792969 93.609375 278.199219 100.3125 278.6875 C 107.003906 279.136719 125.929688 323.449219 124.214844 331.984375 " fill-opacity="1" fill-rule="nonzero"/><g clip-path="url(#d7f50705cb)"><path fill="#edf6ff" d="M 374.378906 187.800781 C 374.378906 188.242188 374.378906 188.730469 374.347656 189.179688 C 374.289062 198.398438 373.566406 207.464844 372.183594 216.332031 C 363.78125 203.988281 354.707031 185.457031 350.085938 182.214844 C 342.964844 177.195312 316.875 174.195312 326.359375 187.226562 C 335.851562 200.292969 339.871094 200.292969 339.871094 200.292969 C 339.871094 200.292969 321.613281 237.050781 308.582031 233.484375 C 295.519531 229.9375 269.421875 182.214844 269.421875 182.214844 C 254.011719 170.082031 283.65625 161.132812 283.65625 161.132812 C 283.65625 161.132812 293.148438 152.84375 278.90625 143.347656 C 264.675781 133.863281 254.011719 154.015625 244.523438 151.640625 C 235.039062 149.265625 232.65625 158.753906 229.6875 168.246094 C 226.714844 177.734375 218.0625 183.414062 216.050781 168.246094 C 214.007812 153.078125 192.324219 162.335938 185.210938 162.335938 C 178.09375 162.335938 163.859375 187.226562 150.792969 187.226562 C 137.761719 187.226562 137.761719 169.449219 140.132812 161.132812 C 142.507812 152.84375 162.660156 144.519531 181.636719 143.347656 C 200.617188 142.15625 182.839844 125.542969 188.757812 122.328125 C 194.699219 119.085938 212.484375 124.371094 229.6875 131.488281 C 246.867188 138.609375 264.675781 121.996094 280.109375 122.328125 C 295.519531 122.660156 246.898438 110.136719 262.300781 98.269531 C 277.742188 86.410156 244.523438 75.722656 245.695312 62.683594 C 246.898438 49.625 236.203125 34.210938 236.203125 19.980469 C 236.203125 15.445312 241.25 12.5 249.867188 11.394531 C 281.523438 22.625 309.207031 42.144531 330.414062 67.304688 C 357.867188 99.871094 374.378906 141.910156 374.378906 187.800781 " fill-opacity="1" fill-rule="nonzero"/></g><path fill="#edf6ff" d="M 109.371094 124.515625 C 109.371094 124.515625 116.246094 132.640625 121.546875 124.515625 C 126.851562 116.386719 127.605469 109.910156 124.289062 109.324219 C 120.957031 108.730469 101.21875 121.132812 109.371094 124.515625 " fill-opacity="1" fill-rule="nonzero"/><path fill="#edf6ff" d="M 69.308594 124.515625 C 69.308594 124.515625 83.445312 120.90625 86.585938 113.835938 C 89.734375 106.761719 107.800781 109.910156 112.507812 102.832031 C 117.226562 95.765625 129.425781 93.242188 132.367188 86.648438 C 135.292969 80.058594 138.484375 69.847656 126.285156 69.054688 C 114.085938 68.273438 102.058594 62.78125 102.183594 69.054688 C 102.300781 75.347656 99.160156 73.769531 88.164062 77.699219 C 77.167969 81.628906 65.382812 75.960938 65.382812 86.648438 C 65.382812 97.339844 68.527344 109.296875 68.527344 109.296875 C 68.527344 109.296875 62.242188 117.921875 69.308594 124.515625 " fill-opacity="1" fill-rule="nonzero"/><path fill="#edf6ff" d="M 160.011719 2.5625 C 160.011719 2.5625 138.960938 30.675781 135.054688 31.425781 C 131.128906 32.171875 119.082031 40.425781 116.859375 48.695312 C 114.609375 56.957031 98.835938 62.207031 86.828125 56.957031 C 74.816406 51.695312 72.050781 45.902344 78.664062 35.296875 L 78.691406 35.265625 C 81.996094 32.929688 85.386719 30.644531 88.871094 28.515625 C 110.136719 15.359375 134.214844 6.316406 160.011719 2.5625 " fill-opacity="1" fill-rule="nonzero"/><path fill="#edf6ff" d="M 42.023438 113.019531 C 40.035156 119.027344 40.519531 126.027344 34.035156 128.121094 C 27.511719 130.230469 30.011719 138.035156 25.507812 148.035156 C 21.453125 157.050781 4.066406 170.5 0.578125 173.117188 C 3.734375 132.058594 20.164062 94.726562 45.570312 65.390625 C 48.207031 73.410156 47.183594 86.648438 49.527344 90.972656 C 53.042969 97.488281 44.027344 107.011719 42.023438 113.019531 " fill-opacity="1" fill-rule="nonzero"/><g clip-path="url(#7f9777c80b)"><g clip-path="url(#d2154634bf)"><g clip-path="url(#fc2a28f1dc)"><path fill="#edf6ff" d="M 94.074219 280.988281 C 94.421875 280.117188 94.710938 279.226562 94.941406 278.320312 C 96.875 270.714844 100.347656 263.527344 105.464844 257.578125 C 107.105469 255.671875 108.3125 253.386719 108.859375 250.941406 C 110.390625 244.085938 107.136719 236.789062 101.640625 232.863281 C 100.496094 232.046875 99.269531 231.363281 97.988281 230.816406 C 89.964844 227.371094 83.226562 221.539062 78.21875 214.296875 C 75.125 209.816406 70.503906 206.472656 65.175781 205.433594 C 54.554688 203.359375 42.65625 210.761719 39.332031 221.511719 C 38.257812 225 37.925781 228.863281 35.707031 231.773438 C 29.726562 239.621094 3.441406 248.050781 19.347656 262.96875 C 23.773438 267.121094 30.234375 268.054688 36.308594 268.492188 C 42.390625 268.929688 48.773438 269.136719 53.949219 272.277344 C 62.421875 277.421875 66.171875 289.570312 75.835938 291.875 C 82.433594 293.449219 89.75 289.25 93.109375 283.035156 C 93.472656 282.371094 93.792969 281.683594 94.074219 280.988281 Z M 94.074219 280.988281 " fill-opacity="1" fill-rule="nonzero"/></g></g></g><g clip-path="url(#6efbfa16cf)"><g clip-path="url(#ff267df1fa)"><g clip-path="url(#5aa746cf18)"><path fill="#edf6ff" d="M 137.660156 319.269531 C 138.007812 318.398438 138.296875 317.507812 138.527344 316.601562 C 140.460938 308.996094 143.933594 301.808594 149.050781 295.859375 C 150.6875 293.953125 151.898438 291.667969 152.445312 289.222656 C 153.976562 282.363281 150.722656 275.070312 145.226562 271.144531 C 144.082031 270.328125 142.855469 269.644531 141.574219 269.097656 C 133.550781 265.652344 126.8125 259.820312 121.804688 252.578125 C 118.710938 248.097656 114.089844 244.753906 108.761719 243.714844 C 98.140625 241.640625 86.242188 249.042969 82.917969 259.792969 C 81.839844 263.28125 81.507812 267.144531 79.292969 270.054688 C 73.3125 277.902344 47.023438 286.332031 62.929688 301.25 C 67.359375 305.402344 73.816406 306.335938 79.894531 306.773438 C 85.972656 307.210938 92.359375 307.417969 97.535156 310.558594 C 106.007812 315.703125 109.757812 327.851562 119.421875 330.15625 C 126.019531 331.730469 133.335938 327.53125 136.695312 321.316406 C 137.058594 320.652344 137.378906 319.964844 137.660156 319.269531 Z M 137.660156 319.269531 " fill-opacity="1" fill-rule="nonzero"/></g></g></g><g clip-path="url(#150479040f)"><g clip-path="url(#5924967014)"><g clip-path="url(#99da508142)"><path fill="#edf6ff" d="M 84.5 235.265625 C 92.5625 227.910156 103.765625 224.738281 114.671875 224.539062 C 119.019531 224.460938 123.367188 224.8125 127.710938 224.75 C 132.058594 224.683594 136.46875 224.1875 140.472656 222.492188 C 144.539062 220.769531 148.003906 217.894531 151.234375 214.882812 C 154.464844 211.875 157.546875 208.671875 161.144531 206.113281 C 165.378906 203.09375 170.34375 201.007812 175.523438 200.535156 C 180.707031 200.058594 186.097656 201.269531 190.34375 204.273438 C 194.34375 207.105469 197.203125 211.371094 201.351562 213.980469 C 205.890625 216.832031 211.472656 217.394531 216.425781 219.445312 C 218.902344 220.46875 221.269531 221.90625 222.964844 223.980469 C 223.8125 225.019531 224.480469 226.210938 224.867188 227.492188 C 225.253906 228.777344 225.355469 230.152344 225.09375 231.46875 C 224.808594 232.90625 224.101562 234.238281 223.164062 235.367188 C 222.230469 236.496094 221.074219 237.425781 219.835938 238.210938 C 217.355469 239.777344 214.566406 240.769531 211.960938 242.117188 C 204.480469 245.996094 198.886719 252.628906 192.6875 258.339844 C 185.179688 265.257812 176.195312 271.113281 166.085938 272.539062 C 162.457031 273.050781 158.777344 272.980469 155.113281 273.117188 C 151.453125 273.253906 147.746094 273.609375 144.324219 274.925781 C 138.710938 277.085938 134.390625 281.605469 130.320312 286.035156 C 128.078125 288.472656 125.84375 290.933594 123.332031 293.09375 C 120.816406 295.25 117.996094 297.109375 114.863281 298.179688 C 111.726562 299.253906 108.25 299.496094 105.097656 298.476562 C 103.519531 297.96875 102.039062 297.144531 100.804688 296.039062 C 99.574219 294.933594 98.59375 293.539062 98.019531 291.984375 C 97.453125 290.453125 97.28125 288.800781 97.308594 287.171875 C 97.335938 285.539062 97.550781 283.917969 97.730469 282.296875 C 97.914062 280.675781 98.058594 279.042969 97.941406 277.417969 C 97.828125 275.789062 97.441406 274.160156 96.617188 272.75 C 95.867188 271.46875 94.777344 270.40625 93.558594 269.554688 C 92.339844 268.703125 90.992188 268.050781 89.625 267.46875 C 86.890625 266.304688 83.992188 265.378906 81.640625 263.5625 C 79.496094 261.910156 77.914062 259.578125 77.046875 257.015625 C 76.179688 254.453125 76.019531 251.671875 76.453125 249.003906 C 77.320312 243.664062 80.503906 238.910156 84.5 235.265625 Z M 84.5 235.265625 " fill-opacity="1" fill-rule="nonzero"/></g></g></g><g clip-path="url(#d77c103876)"><g clip-path="url(#02be0300fa)"><g clip-path="url(#8225008e05)"><path fill="#edf6ff" d="M 110.902344 24.035156 C 117.558594 21.910156 125.082031 20.191406 131.792969 17.710938 C 138.917969 15.0625 145.027344 10.394531 151.742188 6.9375 C 163.664062 1.105469 177.8125 5.691406 187.730469 13.414062 C 194.941406 18.824219 199.640625 26.992188 201.453125 35.796875 C 202.203125 38.695312 201.855469 41.570312 201.632812 44.445312 C 201.332031 48.289062 200.859375 52.125 199.527344 55.78125 C 195 67.359375 186.257812 76.566406 179.753906 87.011719 C 179.101562 87.996094 178.792969 89.097656 178.601562 90.253906 C 177.695312 96.933594 176.855469 104.164062 171.644531 109.019531 C 163.460938 117.863281 149.816406 120.566406 138.765625 115.753906 C 135.996094 114.507812 133.46875 112.820312 130.683594 111.628906 C 122.558594 107.898438 114.09375 102.882812 104.820312 103.890625 C 95.390625 106.109375 92.855469 114.492188 82.007812 114.621094 C 71.667969 115.238281 64.816406 105.230469 62.339844 96.269531 C 60.421875 88.050781 61.136719 79.390625 63.226562 71.277344 C 70.601562 46.742188 86.539062 31.542969 110.902344 24.035156 Z M 110.902344 24.035156 " fill-opacity="1" fill-rule="nonzero"/></g></g></g><g clip-path="url(#bc2442443e)"><path fill="#edf6ff" d="M 149.023438 253.296875 C 149.007812 253.335938 148.992188 253.371094 148.972656 253.40625 C 148.785156 253.746094 148.496094 254.023438 148.09375 254.324219 C 148 254.398438 147.914062 254.460938 147.839844 254.515625 C 147.414062 254.828125 147.25 254.898438 146.445312 255.066406 C 146.003906 255.160156 145.367188 255.28125 144.386719 255.492188 C 143.613281 255.65625 143.003906 255.820312 142.507812 255.976562 C 142.503906 255.976562 142.503906 255.980469 142.5 255.980469 C 141.953125 256.148438 141.421875 256.367188 140.914062 256.632812 C 140.890625 256.644531 140.867188 256.660156 140.84375 256.671875 C 140.589844 256.800781 140.359375 256.9375 140.117188 257.070312 C 139.933594 257.171875 139.746094 257.273438 139.539062 257.375 C 139.402344 257.441406 139.257812 257.511719 139.101562 257.578125 C 139.070312 257.59375 139.042969 257.609375 139.011719 257.621094 C 138.609375 257.792969 138.230469 257.957031 137.867188 258.117188 C 137.160156 258.433594 136.511719 258.738281 135.867188 259.089844 C 135.347656 259.367188 134.832031 259.675781 134.28125 260.039062 C 134.277344 260.046875 134.269531 260.050781 134.261719 260.054688 C 134.09375 260.164062 133.921875 260.28125 133.75 260.40625 L 133.6875 260.445312 C 133.5 260.570312 133.300781 260.683594 133.09375 260.78125 C 133.011719 260.824219 132.933594 260.859375 132.863281 260.890625 C 132.859375 260.894531 132.859375 260.894531 132.855469 260.894531 C 132.691406 260.960938 132.527344 261.019531 132.355469 261.070312 C 132.351562 261.070312 132.347656 261.074219 132.347656 261.074219 C 132.210938 261.113281 132.078125 261.144531 131.941406 261.175781 C 131.929688 261.179688 131.921875 261.179688 131.90625 261.183594 C 131.234375 261.3125 130.546875 261.355469 129.863281 261.316406 C 128.921875 261.257812 127.988281 261.148438 127.0625 260.980469 C 126.351562 260.867188 125.65625 260.746094 124.996094 260.667969 C 124.703125 260.632812 124.417969 260.609375 124.140625 260.59375 C 123.816406 260.574219 123.535156 260.769531 123.191406 261.019531 C 123.191406 261.019531 123.1875 261.023438 123.1875 261.023438 C 122.875 261.269531 122.542969 261.488281 122.191406 261.675781 C 122.023438 261.761719 121.855469 261.835938 121.683594 261.90625 C 118.808594 263.035156 115.871094 261.695312 115.84375 261.6875 C 115.449219 261.609375 114.972656 261.589844 114.421875 261.507812 C 114.289062 261.492188 114.15625 261.46875 114.015625 261.441406 C 114.007812 261.441406 114.003906 261.441406 114 261.4375 C 113.644531 261.371094 113.296875 261.273438 112.957031 261.148438 C 110.261719 260.167969 113.054688 261.023438 109.320312 259.964844 L 109.289062 259.957031 C 109.136719 259.914062 108.972656 259.867188 108.792969 259.816406 C 108.765625 259.808594 108.742188 259.804688 108.71875 259.796875 C 105.972656 259.019531 103.78125 256.796875 102.089844 255.480469 C 102.054688 255.453125 102.023438 255.433594 102 255.414062 C 101.910156 255.34375 101.816406 255.273438 101.730469 255.210938 C 101.398438 254.957031 101.035156 254.75 100.652344 254.589844 C 99.632812 254.199219 98.734375 254.015625 97.929688 253.789062 L 97.769531 253.746094 C 97.109375 253.558594 96.511719 253.328125 95.957031 252.914062 C 95.933594 252.902344 95.917969 252.890625 95.898438 252.875 C 95.859375 252.84375 95.816406 252.8125 95.777344 252.777344 C 95.582031 252.621094 95.410156 252.4375 95.257812 252.238281 C 95.078125 251.992188 94.984375 251.792969 94.742188 251.578125 C 93.652344 250.59375 94.773438 249.414062 96.054688 248.707031 C 97.496094 247.90625 96.726562 246.675781 99.324219 246.148438 C 99.957031 246.019531 99.242188 243.269531 100.460938 242.191406 C 101.753906 241.035156 102.132812 240.949219 102.113281 240.582031 C 102.023438 238.792969 101.910156 238.714844 102.109375 237.894531 C 102.449219 236.503906 103.300781 235.832031 104.058594 235.4375 C 104.675781 235.113281 105.222656 234.96875 105.386719 234.765625 L 105.394531 234.757812 C 107.355469 232.371094 107.660156 228.199219 109.054688 227.367188 C 109.066406 227.359375 109.078125 227.351562 109.089844 227.347656 C 109.117188 227.332031 109.148438 227.316406 109.175781 227.300781 C 109.273438 227.246094 109.371094 227.191406 109.460938 227.144531 C 109.605469 227.066406 109.746094 226.992188 109.875 226.925781 C 109.882812 226.925781 109.886719 226.921875 109.890625 226.917969 C 110.628906 226.523438 111.394531 226.183594 112.179688 225.890625 C 112.203125 225.878906 112.226562 225.871094 112.25 225.859375 C 112.472656 225.777344 112.65625 225.710938 112.816406 225.636719 C 112.890625 225.605469 112.957031 225.574219 113.019531 225.542969 C 113.117188 225.488281 113.210938 225.425781 113.296875 225.355469 C 113.324219 225.335938 113.347656 225.3125 113.375 225.292969 C 113.441406 225.230469 113.507812 225.160156 113.582031 225.082031 C 113.582031 225.082031 113.585938 225.074219 113.589844 225.070312 C 113.617188 225.042969 113.640625 225.011719 113.667969 224.980469 C 113.722656 224.914062 113.792969 224.855469 113.871094 224.8125 C 113.90625 224.789062 113.945312 224.769531 113.984375 224.75 C 114.4375 224.542969 115.152344 224.546875 115.8125 224.621094 C 115.820312 224.621094 115.824219 224.621094 115.828125 224.621094 C 116.347656 224.683594 116.859375 224.777344 117.363281 224.910156 C 117.925781 225.070312 118.300781 225.566406 118.5625 226.164062 C 118.621094 226.289062 118.671875 226.421875 118.714844 226.554688 C 118.988281 227.339844 119.097656 228.199219 119.175781 228.648438 C 119.265625 229.152344 119.371094 229.234375 119.910156 229.664062 C 119.945312 229.691406 119.976562 229.714844 120.007812 229.742188 C 120.140625 229.847656 120.300781 229.980469 120.488281 230.136719 C 120.84375 230.4375 121.109375 230.664062 121.308594 230.832031 C 121.964844 231.386719 121.898438 231.339844 121.96875 231.359375 C 123.511719 231.765625 124.074219 231.40625 124.863281 231.597656 C 125.300781 231.707031 125.808594 231.988281 126.59375 232.664062 C 126.808594 232.851562 127.011719 233.039062 127.210938 233.234375 C 128.046875 234.046875 128.804688 234.890625 129.917969 235.410156 C 130.40625 235.617188 130.867188 235.871094 131.300781 236.171875 C 131.332031 236.191406 131.359375 236.210938 131.386719 236.234375 C 131.390625 236.234375 131.394531 236.234375 131.394531 236.238281 C 131.851562 236.578125 132.308594 237.019531 133.042969 237.761719 L 133.191406 237.910156 C 133.570312 238.292969 134.019531 238.75 134.570312 239.308594 C 134.597656 239.332031 134.621094 239.359375 134.644531 239.382812 C 135.144531 239.882812 135.722656 240.460938 136.414062 241.140625 C 136.453125 241.179688 136.492188 241.21875 136.53125 241.253906 C 136.589844 241.3125 136.652344 241.363281 136.71875 241.410156 C 136.722656 241.410156 136.722656 241.410156 136.722656 241.414062 C 138.027344 242.261719 140.160156 239.863281 141.246094 239.988281 C 141.324219 240 141.402344 240.007812 141.472656 240.023438 L 141.476562 240.023438 C 141.722656 240.0625 141.960938 240.148438 142.175781 240.28125 C 142.179688 240.28125 142.183594 240.28125 142.183594 240.285156 C 142.75 240.640625 143.160156 241.332031 144.226562 242.636719 C 144.230469 242.640625 144.234375 242.648438 144.238281 242.652344 C 144.425781 242.867188 144.589844 243.101562 144.722656 243.351562 C 144.785156 243.464844 144.839844 243.582031 144.894531 243.710938 C 144.894531 243.714844 144.894531 243.71875 144.894531 243.71875 C 145.019531 244.023438 145.152344 244.40625 145.402344 245.027344 C 145.710938 245.820312 147.804688 246.90625 148.59375 248.238281 C 148.734375 248.460938 148.828125 248.710938 148.878906 248.96875 C 148.890625 249.058594 148.90625 249.144531 148.921875 249.226562 C 148.917969 249.230469 148.921875 249.234375 148.921875 249.238281 C 149.03125 249.894531 149.113281 250.449219 149.167969 250.925781 C 149.304688 252.070312 149.277344 252.761719 149.023438 253.296875 Z M 149.023438 253.296875 " fill-opacity="1" fill-rule="nonzero"/></g><path fill="#a5d4e7" d="M 126.710938 243.285156 C 126.804688 244.175781 126.480469 245.253906 126.328125 246.128906 C 125.988281 248.140625 125.539062 250.128906 124.984375 252.09375 C 124.601562 253.433594 124.210938 254.941406 123.414062 256.109375 C 123.121094 255.6875 123.351562 255.121094 124.089844 250.726562 C 124.761719 246.730469 124.699219 247.863281 122.320312 252.554688 C 121.792969 253.59375 121.980469 252.609375 122.746094 257.921875 C 123.097656 260.378906 123.476562 260.847656 123.085938 261.121094 C 122.019531 261.875 121.863281 261.78125 121.722656 261.921875 C 121.4375 261.921875 119.527344 257.234375 119.519531 257.207031 C 118.964844 257.933594 118.828125 258.035156 118.808594 258.042969 L 118.800781 258.050781 C 118.800781 258.039062 118.800781 258.035156 118.808594 258.039062 C 119.71875 255.152344 119.128906 258.015625 116.90625 259.894531 C 115.003906 261.507812 114.789062 261.675781 113.90625 261.414062 C 113.625 261.332031 113.597656 261.496094 114.589844 259.925781 C 125.246094 243.054688 120.226562 254.667969 121.785156 241.6875 C 121.820312 241.402344 121.984375 241.230469 122.207031 241.476562 C 122.496094 241.800781 122.511719 241.945312 123.410156 245.714844 C 123.460938 245.925781 123.363281 246.328125 123.597656 245.792969 C 124.410156 243.945312 125.113281 242.058594 125.820312 240.167969 C 125.699219 240.5 126.265625 241.476562 126.378906 241.808594 C 126.542969 242.289062 126.652344 242.785156 126.710938 243.285156 Z M 103.464844 246.117188 C 105.355469 241.011719 105.710938 242.214844 106.894531 233.0625 C 107.191406 230.753906 106.164062 234.453125 105.175781 234.910156 C 103.507812 235.679688 103.808594 235.070312 103.871094 238.453125 C 103.914062 240.726562 104.0625 240.335938 102.035156 245.863281 C 101.613281 247.011719 96.199219 251.445312 95.253906 252.214844 C 95.253906 252.515625 96.601562 253.558594 98.429688 253.90625 C 107.011719 244.066406 103.1875 246.875 103.464844 246.117188 Z M 114.433594 244.878906 C 114.300781 243.402344 114.140625 242.535156 114.078125 242.230469 C 114.167969 242.585938 114.46875 243.675781 115.175781 245.433594 C 115.386719 245.957031 116.125 245.679688 116.03125 245.144531 C 115.867188 244.160156 115.871094 244.703125 116.320312 244.585938 C 116.988281 244.40625 116.613281 243.730469 116.195312 242.5625 C 115.960938 241.910156 116.816406 242.089844 116.992188 241.386719 C 117.109375 240.910156 116.796875 238.855469 116.554688 237.375 C 116.628906 237.445312 117.027344 237.378906 117.347656 237.207031 C 123.691406 233.867188 115.316406 237.46875 127.210938 233.234375 C 127.011719 233.039062 126.808594 232.851562 126.59375 232.664062 C 125.808594 231.988281 125.300781 231.707031 124.863281 231.597656 C 124.441406 231.726562 123.980469 232.109375 123.171875 232.671875 C 120.421875 234.574219 122.921875 232.527344 116.625 237.257812 C 116.578125 237.292969 116.554688 237.320312 116.550781 237.34375 C 116.417969 236.542969 116.304688 235.917969 116.296875 235.8125 C 115.917969 231.796875 115.152344 235.941406 117.066406 227.226562 C 117.730469 224.203125 115.882812 227.179688 114.367188 230.195312 C 113.082031 229.789062 112.695312 229.574219 112.347656 229.9375 C 112.195312 230.097656 111.945312 229.875 111.761719 230.308594 C 110.273438 230.445312 110.300781 230.40625 111.433594 232.886719 C 110.835938 233.304688 111.273438 233.597656 111.113281 233.839844 C 110.832031 234.257812 111.046875 234.675781 111.371094 235.585938 C 111.488281 235.90625 111.152344 235.824219 111.105469 236.125 C 110.472656 240.246094 104.179688 250.933594 101.632812 254.636719 C 101.710938 254.574219 103.507812 253.753906 108.957031 246.839844 C 110.898438 244.375 110.519531 244.46875 110.367188 246.355469 C 109.980469 251.148438 110.210938 247.335938 108.496094 254.167969 C 108.378906 254.632812 109.617188 253.125 111.578125 247.632812 C 111.703125 249.222656 111.957031 250.796875 112.335938 252.34375 C 112.445312 251.792969 112.386719 251.734375 112.667969 252.554688 C 112.796875 252.542969 112.710938 252.917969 113.199219 249.203125 C 113.917969 250.699219 113.304688 243.410156 113.09375 242.074219 C 113.917969 244.738281 114.671875 247.484375 114.433594 244.878906 Z M 143.308594 246.535156 C 143.558594 246.359375 144.179688 246.382812 144.488281 246.28125 C 144.523438 246.269531 144.148438 245.183594 144.1875 245.03125 C 144.261719 244.71875 144.816406 244.363281 145.027344 244.132812 C 144.515625 242.832031 145.589844 242.84375 139.230469 246.136719 C 137.9375 246.804688 136.5625 247.789062 135.097656 248.035156 C 134.425781 248.148438 133.730469 248.121094 133.050781 248.125 C 131.300781 248.128906 129.570312 247.679688 127.878906 248.40625 C 127.976562 249.09375 129.253906 249.652344 129.8125 249.910156 C 130.566406 250.261719 131.359375 250.5 132.117188 250.832031 C 131.214844 253.777344 129.519531 256.714844 127.964844 259.371094 C 131.28125 257.179688 133.351562 253.542969 136.449219 251.058594 C 136.949219 250.65625 137.464844 250.175781 137.984375 249.832031 C 138.691406 250.816406 139.230469 251.867188 140.046875 252.785156 C 140.085938 252.175781 140.070312 251.566406 139.996094 250.964844 C 139.960938 250.660156 139.890625 250.363281 139.84375 250.066406 C 139.796875 249.746094 139.878906 249.707031 139.910156 249.457031 C 139.976562 248.90625 139.734375 248.640625 140.136719 248.179688 C 140.460938 247.832031 140.828125 247.523438 141.230469 247.273438 C 141.578125 247.050781 142.304688 246.789062 142.449219 246.375 C 142.101562 247.355469 141.777344 248.34375 141.507812 249.347656 C 141.398438 249.753906 141.128906 250.394531 141.265625 250.8125 C 141.625 250.625 141.832031 249.9375 141.992188 249.589844 C 142.277344 248.976562 142.539062 248.351562 142.796875 247.726562 C 142.914062 247.441406 143.0625 246.710938 143.308594 246.535156 Z M 123.90625 237.304688 C 123.84375 237.128906 124.496094 237.097656 126.84375 235.636719 C 127.113281 235.46875 127.050781 235.113281 126.675781 235.242188 C 119.570312 237.730469 119.359375 239.429688 120.457031 239.070312 C 121.75 238.644531 120.132812 239.105469 124.316406 237.933594 C 125.191406 237.691406 125.128906 237.515625 123.808594 238.871094 C 122.703125 240.007812 122.503906 240.394531 123.652344 239.574219 C 127.863281 236.574219 130.585938 235.136719 123.90625 237.304688 Z M 136.335938 258.28125 C 137.523438 258.28125 138.996094 257.113281 141.296875 256.300781 C 141.667969 256.167969 142.132812 256.046875 141.984375 255.640625 C 141.675781 254.792969 137.785156 256.683594 136.335938 258.28125 Z M 143.199219 253.058594 C 143.390625 252.964844 144.453125 252.066406 144.707031 251.828125 C 151.964844 245.007812 144.320312 250.394531 143.199219 253.058594 Z M 101.625 254.648438 L 101.574219 254.707031 C 101.621094 254.730469 101.609375 254.742188 101.625 254.648438 Z M 101.625 254.648438 L 101.628906 254.640625 L 101.625 254.640625 C 101.625 254.640625 101.625 254.644531 101.625 254.648438 Z M 118.800781 258.050781 L 118.753906 258.105469 C 118.8125 258.132812 118.800781 258.078125 118.800781 258.050781 Z M 118.800781 258.050781 " fill-opacity="1" fill-rule="nonzero"/><path fill="#7bbcd6" d="M 148.609375 248.222656 C 149.171875 249.125 149.214844 251.742188 149.222656 252.257812 C 149.265625 254.707031 146.304688 255.117188 144.917969 255.398438 C 140.210938 256.351562 141.339844 256.824219 140.25 256.730469 C 140.273438 256.714844 140.210938 257.210938 138.65625 257.746094 C 137.917969 258 136.476562 259 135.636719 259.148438 C 135.535156 259.164062 133.910156 260.296875 133.816406 260.359375 C 132.402344 261.28125 132.042969 261.042969 131.925781 261.191406 C 131.800781 261.191406 132.34375 260.511719 132.429688 260.425781 C 139.820312 252.671875 139.171875 253.90625 142.871094 253.121094 C 143.222656 253.046875 145.082031 250.515625 145.160156 250.40625 C 145.855469 249.449219 146.515625 249.089844 148.09375 248.03125 C 148.53125 247.742188 148.652344 248.390625 150.28125 253.4375 C 150.652344 254.597656 149.875 254.777344 139.890625 257.125 C 139.78125 257.148438 139.632812 257.160156 139.582031 257.058594 C 139.53125 256.953125 139.78125 256.910156 139.726562 257.011719 Z M 148.609375 248.222656 " fill-opacity="1" fill-rule="nonzero"/><path fill="#7bbcd6" d="M 105.308594 242.195312 C 105.097656 243.257812 104.632812 244.140625 104.308594 245.152344 C 103.242188 248.425781 103.71875 246.953125 103.820312 250.199219 C 103.894531 252.871094 103.886719 253.308594 102.195312 255.5625 C 101.890625 255.324219 101.765625 255.25 101.722656 255.222656 C 101.957031 254.65625 102.695312 252.625 102.640625 252.132812 C 102.632812 252.039062 102.28125 250.871094 102.09375 250.789062 C 101.550781 250.539062 101.003906 251.621094 98.964844 252.265625 C 99.050781 252.238281 100.019531 250.789062 100.039062 250.765625 C 100.488281 250.128906 100.738281 249.980469 101.015625 249.570312 C 104.828125 244.066406 106.644531 235.496094 105.308594 242.195312 Z M 105.308594 242.195312 " fill-opacity="1" fill-rule="nonzero"/><path fill="#7bbcd6" d="M 125.695312 240.65625 C 125.5625 240.449219 125.332031 240.285156 125.207031 240.078125 C 126.148438 239.296875 127.386719 238.871094 128.375 238.136719 C 129.058594 237.628906 129.738281 237.117188 130.429688 236.621094 C 130.613281 236.492188 131.105469 235.996094 131.351562 236.199219 C 133.042969 237.628906 135.351562 240.144531 135.8125 240.59375 C 137.5625 242.292969 137.34375 240.964844 132.882812 243.574219 C 132.277344 243.929688 131.664062 244.277344 131.035156 244.597656 C 130.59375 244.828125 130.097656 244.882812 129.667969 245.128906 C 128.792969 245.628906 127.949219 246.179688 127.085938 246.695312 C 126.402344 247.105469 126.292969 247.355469 126.132812 248.101562 C 125.722656 249.996094 124.703125 251.699219 124.367188 253.621094 C 124.535156 252.65625 124.402344 251.589844 124.667969 250.660156 C 124.886719 249.902344 124.976562 249.097656 125.109375 248.316406 C 125.320312 247.101562 125.53125 245.886719 125.765625 244.679688 C 125.945312 243.738281 125.886719 242.769531 125.839844 241.8125 C 125.824219 241.488281 125.882812 241.039062 125.742188 240.742188 C 125.730469 240.710938 125.714844 240.683594 125.695312 240.65625 Z M 125.695312 240.65625 " fill-opacity="1" fill-rule="nonzero"/><path fill="#7bbcd6" d="M 117.15625 241.46875 C 116.324219 245.691406 116.351562 245.644531 114.191406 249.738281 C 113.496094 251.046875 114.617188 252.902344 113.785156 254.046875 C 110.6875 258.308594 112.320312 254.671875 111.355469 260.511719 C 110.785156 260.324219 110.546875 260.355469 110.625 259.9375 C 110.394531 260.234375 110.148438 260.144531 109.921875 260.09375 C 108.445312 259.777344 108.644531 259.847656 108.738281 259.3125 C 109.195312 256.632812 109.148438 256.132812 109.972656 255.1875 C 111.726562 253.179688 111.679688 253.242188 111.703125 252.597656 C 111.761719 250.953125 111.589844 250.871094 111.867188 250.394531 C 117.359375 240.933594 116.96875 241.40625 117.15625 241.46875 Z M 117.15625 241.46875 " fill-opacity="1" fill-rule="nonzero"/><path fill="#7bbcd6" d="M 108.308594 228.402344 C 108.59375 227.667969 109.519531 226.777344 109.703125 227.292969 C 109.828125 227.644531 109.804688 228.046875 110.335938 228.277344 C 110.363281 228.289062 115.359375 230.738281 115.21875 231.050781 C 114.945312 231.660156 111.742188 229.691406 111.710938 230.234375 C 111.632812 231.601562 111.320312 231.480469 111.441406 231.898438 C 111.722656 232.867188 111.953125 232.984375 111.828125 234.148438 C 111.742188 234.925781 111.632812 235.703125 111.503906 236.480469 C 111.40625 237.054688 111.1875 237.441406 110.972656 237.964844 C 110.6875 238.671875 110.511719 239.417969 110.199219 240.117188 C 109.914062 240.75 109.425781 241.34375 109.179688 241.976562 C 110.007812 239.832031 110.023438 237.585938 110.414062 235.359375 C 110.699219 233.714844 110.808594 232.496094 110.039062 230.96875 C 108.886719 228.6875 109.339844 229.375 108.308594 228.402344 Z M 108.308594 228.402344 " fill-opacity="1" fill-rule="nonzero"/><path fill="#7bbcd6" d="M 125.730469 240.625 C 125.695312 240.667969 125.6875 240.644531 125.734375 240.628906 Z M 125.730469 240.625 " fill-opacity="1" fill-rule="nonzero"/><g clip-path="url(#9c81075f6d)"><path fill="#e5f5fb" d="M 129.921875 261.3125 C 125.273438 261.3125 126.21875 261.671875 133.199219 253.886719 C 137.824219 248.726562 133.785156 255.488281 129.921875 261.3125 Z M 116.878906 224.863281 C 116.75 224.792969 114.433594 224.160156 113.695312 224.960938 C 112.800781 225.929688 113.292969 225.207031 109.171875 227.273438 C 109.171875 227.695312 110.0625 227.789062 110.257812 228.070312 C 110.664062 228.664062 110.90625 228.042969 111.445312 228.265625 C 112.347656 228.644531 112.710938 229.050781 113.308594 228.664062 C 113.945312 228.246094 116.324219 225.621094 116.878906 224.863281 Z M 120.074219 251.667969 C 119.453125 253.640625 115.707031 258.832031 114.257812 260.449219 C 113.667969 261.101562 113.457031 261.167969 113.988281 260.191406 C 114.972656 258.382812 115.367188 258.105469 115.476562 257.289062 C 115.613281 256.226562 116.867188 253.703125 116.167969 252.054688 C 115.878906 251.378906 116.140625 251.503906 116.941406 245.316406 C 116.996094 244.90625 117.042969 244.550781 117.089844 244.242188 C 117.46875 241.710938 117.671875 242.140625 117.785156 241.757812 C 117.945312 241.230469 117.921875 241.039062 118.277344 241.046875 C 118.542969 241.058594 118.578125 241.628906 118.570312 241.890625 C 118.453125 250.308594 117.484375 247.632812 119.828125 250.894531 C 120.1875 250.851562 120.238281 251.152344 120.074219 251.667969 Z M 117.433594 247.605469 C 117.414062 247.597656 117.390625 247.59375 117.371094 247.589844 C 117.386719 247.992188 117.199219 248.378906 117.261719 248.78125 C 117.367188 248.789062 117.328125 248.945312 117.433594 247.605469 Z M 119.1875 228.660156 C 119.109375 228.195312 119.074219 227.171875 118.742188 226.53125 C 118.21875 227.058594 118.695312 226.386719 118.5625 226.164062 C 118.03125 225.246094 118.105469 225.414062 117.976562 225.738281 C 115.757812 231.359375 115.738281 230.648438 115.792969 231.296875 C 116.367188 237.941406 115.90625 234.773438 116.117188 236.070312 C 116.496094 236.011719 118.183594 234.355469 118.464844 234.097656 C 118.636719 233.933594 119.078125 233.851562 119.582031 233.195312 C 120.800781 231.605469 120.039062 232.617188 121.46875 230.996094 C 120.421875 229.863281 119.335938 229.527344 119.1875 228.660156 Z M 127.078125 247.820312 C 127.109375 247.476562 127.488281 245.640625 126.945312 246.039062 C 126.308594 246.503906 123.851562 255.050781 123.667969 255.816406 C 123.949219 255.949219 124.886719 254.128906 125.089844 253.640625 C 125.179688 253.667969 124.878906 256.675781 124.886719 260.371094 C 124.886719 260.695312 124.859375 260.628906 125.296875 260.664062 C 125.546875 260.085938 125.507812 260.144531 125.5625 260.160156 C 125.5625 260.832031 125.417969 260.679688 126.273438 260.8125 C 126.390625 259.011719 126.316406 260.070312 126.523438 258.0625 C 127.675781 246.851562 126.949219 249.066406 127.078125 247.820312 Z M 144.238281 242.652344 C 142.847656 240.996094 142.273438 239.90625 141.300781 240.03125 C 141.152344 240.40625 141.027344 241.136719 140.78125 241.921875 C 137.570312 243.613281 133.984375 244.453125 130.78125 246.160156 C 130.546875 246.285156 130.71875 246.601562 130.949219 246.5625 C 131.292969 246.5 131.648438 246.5 131.996094 246.453125 C 132.339844 246.402344 132.683594 246.359375 133.027344 246.316406 C 133.71875 246.226562 134.410156 246.152344 135.105469 246.101562 C 135.71875 246.058594 136.335938 246.054688 136.953125 246.046875 C 135.890625 246.839844 134.746094 247.722656 134.214844 248.234375 C 134.371094 248.230469 134.527344 248.226562 134.6875 248.230469 C 134.886719 248.238281 135.097656 248.25 135.304688 248.277344 C 135.941406 248.0625 137.015625 247.59375 138.980469 246.523438 C 140.46875 245.714844 144.59375 243.074219 144.238281 242.652344 Z M 144.238281 242.652344 " fill-opacity="1" fill-rule="nonzero"/></g><g clip-path="url(#52e7d4269d)"><path fill="#edf6ff" d="M 216.023438 274.773438 C 216.035156 274.800781 216.046875 274.828125 216.0625 274.851562 C 216.199219 275.101562 216.40625 275.304688 216.699219 275.523438 C 216.769531 275.574219 216.832031 275.621094 216.886719 275.664062 C 217.195312 275.890625 217.3125 275.9375 217.898438 276.058594 C 218.222656 276.128906 218.683594 276.21875 219.398438 276.371094 C 219.960938 276.492188 220.402344 276.609375 220.765625 276.722656 C 220.765625 276.722656 220.769531 276.726562 220.769531 276.726562 C 221.167969 276.851562 221.554688 277.007812 221.925781 277.203125 C 221.941406 277.210938 221.960938 277.21875 221.976562 277.230469 C 222.160156 277.324219 222.328125 277.421875 222.507812 277.519531 C 222.636719 277.59375 222.773438 277.667969 222.925781 277.742188 C 223.027344 277.789062 223.132812 277.839844 223.246094 277.890625 C 223.265625 277.902344 223.289062 277.910156 223.308594 277.921875 C 223.601562 278.046875 223.878906 278.164062 224.140625 278.28125 C 224.65625 278.511719 225.128906 278.734375 225.597656 278.988281 C 225.976562 279.191406 226.351562 279.417969 226.75 279.679688 C 226.757812 279.683594 226.761719 279.6875 226.765625 279.691406 C 226.890625 279.773438 227.011719 279.855469 227.140625 279.945312 L 227.183594 279.976562 C 227.320312 280.066406 227.464844 280.152344 227.617188 280.222656 C 227.675781 280.25 227.734375 280.277344 227.785156 280.300781 C 227.785156 280.300781 227.785156 280.300781 227.789062 280.300781 C 227.90625 280.351562 228.03125 280.394531 228.152344 280.433594 C 228.15625 280.433594 228.160156 280.433594 228.160156 280.433594 C 228.257812 280.460938 228.355469 280.484375 228.457031 280.507812 C 228.464844 280.507812 228.46875 280.511719 228.480469 280.511719 C 228.96875 280.605469 229.46875 280.636719 229.96875 280.609375 C 230.652344 280.570312 231.332031 280.488281 232.003906 280.367188 C 232.523438 280.28125 233.03125 280.195312 233.507812 280.140625 C 233.722656 280.113281 233.929688 280.09375 234.132812 280.082031 C 234.367188 280.070312 234.570312 280.210938 234.824219 280.394531 C 234.824219 280.394531 234.824219 280.394531 234.824219 280.398438 C 235.050781 280.574219 235.296875 280.734375 235.550781 280.871094 C 235.671875 280.933594 235.796875 280.988281 235.917969 281.039062 C 238.011719 281.863281 240.148438 280.886719 240.167969 280.882812 C 240.457031 280.824219 240.800781 280.808594 241.203125 280.75 C 241.300781 280.738281 241.398438 280.722656 241.5 280.699219 C 241.503906 280.699219 241.507812 280.699219 241.511719 280.699219 C 241.769531 280.648438 242.023438 280.578125 242.269531 280.488281 C 244.230469 279.773438 242.199219 280.398438 244.917969 279.625 L 244.941406 279.621094 C 245.050781 279.589844 245.167969 279.554688 245.296875 279.519531 C 245.296875 279.519531 245.300781 279.519531 245.300781 279.519531 C 245.320312 279.515625 245.335938 279.507812 245.355469 279.503906 C 247.351562 278.9375 248.945312 277.320312 250.179688 276.363281 C 250.203125 276.34375 250.226562 276.328125 250.242188 276.316406 C 250.308594 276.261719 250.375 276.214844 250.441406 276.164062 C 250.679688 275.980469 250.945312 275.832031 251.222656 275.714844 C 251.964844 275.429688 252.617188 275.296875 253.207031 275.132812 L 253.324219 275.101562 C 253.800781 274.964844 254.238281 274.796875 254.640625 274.496094 C 254.65625 274.488281 254.667969 274.476562 254.683594 274.46875 C 254.710938 274.445312 254.742188 274.421875 254.773438 274.398438 C 254.914062 274.28125 255.039062 274.148438 255.148438 274.003906 C 255.28125 273.824219 255.347656 273.679688 255.523438 273.523438 C 256.316406 272.808594 255.5 271.949219 254.566406 271.433594 C 253.519531 270.851562 254.078125 269.957031 252.191406 269.570312 C 251.730469 269.476562 252.25 267.480469 251.363281 266.695312 C 250.421875 265.851562 250.148438 265.789062 250.160156 265.523438 C 250.226562 264.21875 250.308594 264.160156 250.164062 263.566406 C 249.917969 262.554688 249.296875 262.066406 248.746094 261.777344 C 248.296875 261.542969 247.898438 261.4375 247.777344 261.289062 L 247.773438 261.28125 C 246.347656 259.546875 246.125 256.511719 245.109375 255.90625 C 245.101562 255.898438 245.09375 255.894531 245.085938 255.890625 C 245.066406 255.878906 245.042969 255.867188 245.023438 255.859375 C 244.949219 255.816406 244.878906 255.777344 244.8125 255.742188 C 244.710938 255.6875 244.609375 255.632812 244.511719 255.582031 C 244.507812 255.582031 244.503906 255.582031 244.5 255.578125 C 243.960938 255.292969 243.40625 255.042969 242.835938 254.828125 C 242.816406 254.820312 242.800781 254.816406 242.785156 254.808594 C 242.621094 254.75 242.488281 254.699219 242.371094 254.648438 C 242.316406 254.625 242.269531 254.601562 242.222656 254.578125 C 242.152344 254.539062 242.085938 254.492188 242.023438 254.441406 C 242.003906 254.429688 241.984375 254.410156 241.96875 254.394531 C 241.917969 254.351562 241.871094 254.300781 241.816406 254.242188 C 241.816406 254.242188 241.8125 254.238281 241.808594 254.234375 C 241.789062 254.214844 241.773438 254.191406 241.753906 254.167969 C 241.710938 254.121094 241.660156 254.078125 241.605469 254.046875 C 241.578125 254.03125 241.550781 254.015625 241.523438 254.003906 C 241.191406 253.847656 240.671875 253.851562 240.191406 253.90625 C 240.1875 253.90625 240.183594 253.910156 240.179688 253.90625 C 239.800781 253.953125 239.429688 254.023438 239.0625 254.117188 C 238.65625 254.234375 238.382812 254.59375 238.191406 255.027344 C 238.148438 255.121094 238.109375 255.21875 238.078125 255.3125 C 237.882812 255.886719 237.800781 256.511719 237.746094 256.839844 C 237.679688 257.203125 237.601562 257.265625 237.207031 257.578125 C 237.183594 257.59375 237.164062 257.613281 237.140625 257.632812 C 237.042969 257.710938 236.925781 257.804688 236.789062 257.917969 C 236.53125 258.140625 236.335938 258.304688 236.191406 258.425781 C 235.714844 258.832031 235.765625 258.796875 235.710938 258.808594 C 234.589844 259.105469 234.179688 258.84375 233.605469 258.984375 C 233.289062 259.0625 232.917969 259.269531 232.347656 259.761719 C 232.191406 259.894531 232.042969 260.035156 231.898438 260.175781 C 231.289062 260.765625 230.738281 261.378906 229.925781 261.757812 C 229.574219 261.910156 229.234375 262.09375 228.917969 262.3125 C 228.898438 262.324219 228.878906 262.339844 228.855469 262.355469 C 228.855469 262.359375 228.855469 262.359375 228.851562 262.359375 C 228.519531 262.609375 228.1875 262.929688 227.652344 263.46875 L 227.546875 263.578125 C 227.269531 263.855469 226.941406 264.1875 226.539062 264.59375 C 226.523438 264.613281 226.503906 264.632812 226.488281 264.648438 C 226.125 265.011719 225.703125 265.433594 225.199219 265.925781 C 225.199219 265.925781 225.199219 265.925781 225.199219 265.929688 C 225.171875 265.957031 225.144531 265.984375 225.113281 266.011719 C 225.074219 266.054688 225.027344 266.089844 224.976562 266.125 C 224.976562 266.125 224.976562 266.125 224.972656 266.125 C 224.023438 266.742188 222.472656 265 221.683594 265.089844 C 221.625 265.097656 221.570312 265.105469 221.519531 265.113281 L 221.515625 265.113281 C 221.335938 265.144531 221.164062 265.207031 221.007812 265.300781 C 221.003906 265.300781 221.003906 265.304688 221 265.304688 C 220.589844 265.566406 220.289062 266.070312 219.515625 267.015625 C 219.511719 267.019531 219.511719 267.023438 219.507812 267.027344 C 219.371094 267.183594 219.253906 267.355469 219.152344 267.539062 C 219.109375 267.621094 219.070312 267.707031 219.03125 267.800781 C 219.03125 267.800781 219.027344 267.804688 219.027344 267.804688 C 218.9375 268.027344 218.839844 268.304688 218.660156 268.757812 C 218.433594 269.332031 216.914062 270.121094 216.335938 271.09375 C 216.234375 271.253906 216.164062 271.4375 216.128906 271.625 C 216.121094 271.6875 216.109375 271.753906 216.097656 271.8125 C 216.101562 271.816406 216.097656 271.816406 216.097656 271.820312 C 216.019531 272.296875 215.960938 272.699219 215.917969 273.046875 C 215.820312 273.882812 215.839844 274.386719 216.023438 274.773438 Z M 216.023438 274.773438 " fill-opacity="1" fill-rule="nonzero"/></g><path fill="#a5d4e7" d="M 232.261719 267.488281 C 232.191406 268.136719 232.425781 268.921875 232.539062 269.558594 C 232.789062 271.019531 233.113281 272.46875 233.519531 273.898438 C 233.796875 274.875 234.082031 275.96875 234.660156 276.820312 C 234.871094 276.511719 234.707031 276.101562 234.167969 272.902344 C 233.679688 269.996094 233.726562 270.820312 235.457031 274.234375 C 235.839844 274.992188 235.703125 274.273438 235.148438 278.136719 C 234.890625 279.929688 234.613281 280.269531 234.898438 280.46875 C 235.675781 281.015625 235.789062 280.949219 235.890625 281.050781 C 236.097656 281.050781 237.488281 277.640625 237.496094 277.621094 C 237.898438 278.148438 237.996094 278.222656 238.011719 278.226562 L 238.015625 278.234375 C 238.015625 278.226562 238.015625 278.222656 238.011719 278.226562 C 237.347656 276.125 237.777344 278.207031 239.394531 279.574219 C 240.78125 280.75 240.9375 280.871094 241.578125 280.679688 C 241.785156 280.621094 241.804688 280.742188 241.082031 279.597656 C 233.328125 267.320312 236.980469 275.773438 235.847656 266.328125 C 235.820312 266.117188 235.699219 265.992188 235.539062 266.171875 C 235.328125 266.40625 235.316406 266.511719 234.664062 269.257812 C 234.625 269.410156 234.695312 269.703125 234.527344 269.316406 C 233.9375 267.96875 233.425781 266.59375 232.90625 265.21875 C 233 265.460938 232.585938 266.171875 232.503906 266.414062 C 232.382812 266.761719 232.304688 267.125 232.261719 267.488281 Z M 249.175781 269.550781 C 247.800781 265.835938 247.542969 266.710938 246.683594 260.050781 C 246.464844 258.371094 247.210938 261.0625 247.933594 261.394531 C 249.144531 261.953125 248.925781 261.511719 248.882812 263.972656 C 248.851562 265.625 248.742188 265.34375 250.21875 269.363281 C 250.523438 270.199219 254.464844 273.425781 255.152344 273.984375 C 255.152344 274.203125 254.171875 274.964844 252.839844 275.21875 C 246.597656 268.058594 249.378906 270.101562 249.175781 269.550781 Z M 241.195312 268.648438 C 241.292969 267.574219 241.40625 266.945312 241.453125 266.722656 C 241.390625 266.980469 241.167969 267.773438 240.65625 269.050781 C 240.503906 269.433594 239.964844 269.230469 240.03125 268.839844 C 240.152344 268.125 240.148438 268.523438 239.820312 268.433594 C 239.335938 268.304688 239.609375 267.8125 239.914062 266.960938 C 240.085938 266.488281 239.460938 266.621094 239.335938 266.105469 C 239.25 265.761719 239.476562 264.265625 239.652344 263.1875 C 239.597656 263.238281 239.308594 263.191406 239.074219 263.066406 C 234.457031 260.632812 240.550781 263.253906 231.898438 260.175781 C 232.042969 260.035156 232.191406 259.894531 232.347656 259.761719 C 232.917969 259.269531 233.289062 259.0625 233.605469 258.984375 C 233.914062 259.078125 234.246094 259.355469 234.835938 259.765625 C 236.839844 261.148438 235.019531 259.660156 239.601562 263.101562 C 239.636719 263.128906 239.652344 263.148438 239.65625 263.164062 C 239.75 262.582031 239.832031 262.128906 239.839844 262.050781 C 240.117188 259.128906 240.671875 262.144531 239.277344 255.804688 C 238.796875 253.601562 240.140625 255.769531 241.242188 257.960938 C 242.179688 257.667969 242.460938 257.511719 242.714844 257.777344 C 242.824219 257.890625 243.007812 257.730469 243.140625 258.046875 C 244.222656 258.144531 244.203125 258.117188 243.378906 259.921875 C 243.816406 260.226562 243.496094 260.441406 243.613281 260.617188 C 243.816406 260.917969 243.660156 261.226562 243.421875 261.882812 C 243.339844 262.121094 243.582031 262.058594 243.617188 262.277344 C 244.078125 265.277344 248.65625 273.054688 250.511719 275.75 C 250.453125 275.703125 249.144531 275.105469 245.179688 270.078125 C 243.765625 268.28125 244.042969 268.351562 244.15625 269.722656 C 244.4375 273.210938 244.269531 270.4375 245.515625 275.410156 C 245.601562 275.746094 244.699219 274.648438 243.273438 270.652344 C 243.179688 271.808594 242.996094 272.953125 242.722656 274.078125 C 242.640625 273.679688 242.683594 273.636719 242.480469 274.234375 C 242.386719 274.226562 242.449219 274.496094 242.09375 271.796875 C 241.570312 272.882812 242.019531 267.578125 242.167969 266.609375 C 241.570312 268.546875 241.019531 270.542969 241.195312 268.648438 Z M 220.183594 269.851562 C 220.003906 269.726562 219.550781 269.742188 219.324219 269.667969 C 219.296875 269.660156 219.570312 268.871094 219.542969 268.757812 C 219.488281 268.53125 219.085938 268.273438 218.933594 268.105469 C 219.304688 267.160156 218.523438 267.167969 223.152344 269.5625 C 224.09375 270.050781 225.089844 270.765625 226.15625 270.945312 C 226.648438 271.027344 227.152344 271.007812 227.648438 271.011719 C 228.921875 271.015625 230.179688 270.6875 231.414062 271.214844 C 231.339844 271.714844 230.410156 272.125 230.003906 272.3125 C 229.457031 272.5625 228.878906 272.738281 228.324219 272.980469 C 228.984375 275.125 230.214844 277.261719 231.347656 279.195312 C 228.933594 277.601562 227.429688 274.953125 225.175781 273.144531 C 224.8125 272.851562 224.4375 272.503906 224.058594 272.253906 C 223.542969 272.96875 223.152344 273.734375 222.554688 274.402344 C 222.527344 273.960938 222.539062 273.515625 222.59375 273.074219 C 222.621094 272.855469 222.671875 272.640625 222.703125 272.421875 C 222.738281 272.191406 222.679688 272.160156 222.65625 271.980469 C 222.609375 271.578125 222.785156 271.382812 222.492188 271.050781 C 222.257812 270.796875 221.988281 270.574219 221.695312 270.390625 C 221.445312 270.230469 220.914062 270.039062 220.808594 269.738281 C 221.0625 270.449219 221.296875 271.171875 221.496094 271.898438 C 221.574219 272.195312 221.769531 272.664062 221.671875 272.964844 C 221.410156 272.832031 221.257812 272.332031 221.140625 272.074219 C 220.933594 271.628906 220.742188 271.175781 220.554688 270.722656 C 220.46875 270.515625 220.363281 269.980469 220.183594 269.851562 Z M 234.300781 263.136719 C 234.347656 263.007812 233.871094 262.984375 232.164062 261.921875 C 231.96875 261.800781 232.015625 261.542969 232.289062 261.636719 C 237.457031 263.445312 237.609375 264.683594 236.8125 264.421875 C 235.871094 264.113281 237.046875 264.445312 234.003906 263.59375 C 233.367188 263.417969 233.414062 263.292969 234.371094 264.277344 C 235.175781 265.101562 235.324219 265.386719 234.488281 264.789062 C 231.421875 262.605469 229.441406 261.558594 234.300781 263.136719 Z M 225.257812 278.402344 C 224.394531 278.402344 223.320312 277.550781 221.648438 276.957031 C 221.375 276.863281 221.039062 276.773438 221.148438 276.480469 C 221.371094 275.863281 224.203125 277.238281 225.257812 278.402344 Z M 220.265625 274.597656 C 220.125 274.53125 219.347656 273.878906 219.164062 273.707031 C 213.882812 268.742188 219.445312 272.664062 220.265625 274.597656 Z M 250.515625 275.757812 L 250.550781 275.800781 C 250.519531 275.816406 250.527344 275.824219 250.515625 275.757812 Z M 250.515625 275.757812 L 250.511719 275.753906 L 250.515625 275.75 C 250.515625 275.753906 250.515625 275.753906 250.515625 275.757812 Z M 238.015625 278.234375 L 238.050781 278.273438 C 238.007812 278.292969 238.015625 278.253906 238.015625 278.234375 Z M 238.015625 278.234375 " fill-opacity="1" fill-rule="nonzero"/><path fill="#7bbcd6" d="M 216.324219 271.082031 C 215.914062 271.738281 215.886719 273.644531 215.878906 274.015625 C 215.847656 275.800781 218 276.097656 219.011719 276.304688 C 222.4375 276.996094 221.617188 277.34375 222.410156 277.273438 C 222.390625 277.261719 222.4375 277.621094 223.566406 278.011719 C 224.105469 278.199219 225.15625 278.921875 225.765625 279.03125 C 225.839844 279.046875 227.023438 279.871094 227.089844 279.914062 C 228.117188 280.582031 228.378906 280.410156 228.46875 280.519531 C 228.558594 280.519531 228.164062 280.027344 228.101562 279.960938 C 222.722656 274.320312 223.195312 275.21875 220.5 274.648438 C 220.246094 274.59375 218.890625 272.75 218.835938 272.671875 C 218.332031 271.972656 217.851562 271.710938 216.703125 270.945312 C 216.382812 270.730469 216.292969 271.203125 215.109375 274.875 C 214.839844 275.722656 215.40625 275.851562 222.667969 277.558594 C 222.75 277.578125 222.859375 277.585938 222.894531 277.511719 C 222.929688 277.433594 222.75 277.402344 222.789062 277.476562 Z M 216.324219 271.082031 " fill-opacity="1" fill-rule="nonzero"/><path fill="#7bbcd6" d="M 247.835938 266.695312 C 247.988281 267.46875 248.328125 268.113281 248.5625 268.847656 C 249.339844 271.226562 248.992188 270.160156 248.917969 272.519531 C 248.863281 274.464844 248.867188 274.78125 250.101562 276.421875 C 250.324219 276.25 250.414062 276.195312 250.445312 276.175781 C 250.277344 275.765625 249.738281 274.285156 249.777344 273.929688 C 249.78125 273.859375 250.039062 273.007812 250.175781 272.949219 C 250.570312 272.769531 250.96875 273.554688 252.449219 274.023438 C 252.386719 274.003906 251.683594 272.949219 251.671875 272.929688 C 251.34375 272.46875 251.164062 272.359375 250.957031 272.0625 C 248.183594 268.054688 246.863281 261.820312 247.835938 266.695312 Z M 247.835938 266.695312 " fill-opacity="1" fill-rule="nonzero"/><path fill="#7bbcd6" d="M 233 265.574219 C 233.09375 265.421875 233.265625 265.304688 233.355469 265.152344 C 232.667969 264.585938 231.769531 264.277344 231.050781 263.742188 C 230.554688 263.371094 230.058594 263 229.554688 262.640625 C 229.421875 262.546875 229.0625 262.183594 228.886719 262.332031 C 227.652344 263.371094 225.972656 265.203125 225.640625 265.527344 C 224.363281 266.765625 224.523438 265.800781 227.769531 267.699219 C 228.210938 267.957031 228.65625 268.210938 229.113281 268.445312 C 229.4375 268.609375 229.796875 268.648438 230.109375 268.828125 C 230.746094 269.195312 231.359375 269.59375 231.988281 269.972656 C 232.484375 270.269531 232.566406 270.453125 232.683594 270.992188 C 232.980469 272.371094 233.722656 273.613281 233.96875 275.011719 C 233.84375 274.308594 233.941406 273.53125 233.746094 272.855469 C 233.589844 272.304688 233.523438 271.71875 233.425781 271.148438 C 233.273438 270.265625 233.121094 269.382812 232.949219 268.503906 C 232.816406 267.816406 232.859375 267.113281 232.894531 266.414062 C 232.90625 266.179688 232.863281 265.855469 232.964844 265.636719 C 232.976562 265.617188 232.988281 265.59375 233 265.574219 Z M 233 265.574219 " fill-opacity="1" fill-rule="nonzero"/><path fill="#7bbcd6" d="M 239.214844 266.167969 C 239.820312 269.238281 239.796875 269.203125 241.371094 272.183594 C 241.875 273.136719 241.0625 274.488281 241.667969 275.320312 C 243.921875 278.421875 242.734375 275.777344 243.433594 280.027344 C 243.851562 279.886719 244.023438 279.910156 243.964844 279.605469 C 244.132812 279.824219 244.3125 279.757812 244.480469 279.722656 C 245.554688 279.492188 245.40625 279.542969 245.339844 279.152344 C 245.007812 277.199219 245.042969 276.839844 244.441406 276.148438 C 243.164062 274.6875 243.199219 274.734375 243.183594 274.265625 C 243.140625 273.070312 243.261719 273.007812 243.0625 272.660156 C 239.066406 265.777344 239.347656 266.121094 239.214844 266.167969 Z M 239.214844 266.167969 " fill-opacity="1" fill-rule="nonzero"/><path fill="#7bbcd6" d="M 245.652344 256.660156 C 245.445312 256.125 244.773438 255.476562 244.640625 255.851562 C 244.546875 256.105469 244.5625 256.398438 244.175781 256.566406 C 244.15625 256.574219 240.519531 258.359375 240.621094 258.585938 C 240.820312 259.027344 243.152344 257.597656 243.175781 257.992188 C 243.234375 258.984375 243.460938 258.898438 243.371094 259.203125 C 243.167969 259.910156 243 259.992188 243.09375 260.839844 C 243.15625 261.40625 243.234375 261.972656 243.328125 262.535156 C 243.398438 262.953125 243.558594 263.238281 243.710938 263.617188 C 243.921875 264.132812 244.046875 264.671875 244.277344 265.183594 C 244.484375 265.644531 244.839844 266.074219 245.015625 266.539062 C 244.414062 264.976562 244.402344 263.34375 244.121094 261.722656 C 243.914062 260.523438 243.832031 259.636719 244.394531 258.527344 C 245.230469 256.867188 244.902344 257.367188 245.652344 256.660156 Z M 245.652344 256.660156 " fill-opacity="1" fill-rule="nonzero"/><path fill="#7bbcd6" d="M 232.972656 265.550781 C 233 265.585938 233.003906 265.566406 232.972656 265.554688 Z M 232.972656 265.550781 " fill-opacity="1" fill-rule="nonzero"/><g clip-path="url(#4575865828)"><path fill="#e5f5fb" d="M 229.925781 280.609375 C 233.308594 280.609375 232.617188 280.867188 227.539062 275.203125 C 224.171875 271.449219 227.113281 276.367188 229.925781 280.609375 Z M 239.414062 254.085938 C 239.507812 254.03125 241.195312 253.574219 241.734375 254.15625 C 242.382812 254.859375 242.027344 254.332031 245.023438 255.835938 C 245.023438 256.144531 244.378906 256.210938 244.234375 256.417969 C 243.9375 256.851562 243.761719 256.394531 243.371094 256.558594 C 242.714844 256.832031 242.449219 257.128906 242.015625 256.847656 C 241.550781 256.546875 239.820312 254.636719 239.414062 254.085938 Z M 237.089844 273.585938 C 237.542969 275.023438 240.269531 278.800781 241.324219 279.976562 C 241.753906 280.453125 241.90625 280.5 241.519531 279.789062 C 240.804688 278.472656 240.515625 278.273438 240.4375 277.679688 C 240.335938 276.90625 239.425781 275.070312 239.933594 273.871094 C 240.144531 273.378906 239.953125 273.46875 239.371094 268.964844 C 239.332031 268.667969 239.296875 268.410156 239.261719 268.183594 C 238.984375 266.34375 238.839844 266.65625 238.753906 266.375 C 238.640625 265.992188 238.65625 265.851562 238.398438 265.859375 C 238.207031 265.867188 238.179688 266.28125 238.183594 266.472656 C 238.269531 272.601562 238.972656 270.652344 237.269531 273.027344 C 237.007812 272.996094 236.972656 273.214844 237.089844 273.585938 Z M 239.011719 270.632812 C 239.027344 270.628906 239.042969 270.625 239.058594 270.621094 C 239.046875 270.914062 239.183594 271.195312 239.136719 271.488281 C 239.0625 271.492188 239.089844 271.609375 239.011719 270.632812 Z M 237.734375 256.847656 C 237.792969 256.507812 237.820312 255.761719 238.0625 255.296875 C 238.441406 255.679688 238.09375 255.191406 238.191406 255.027344 C 238.578125 254.363281 238.523438 254.484375 238.617188 254.71875 C 240.230469 258.8125 240.246094 258.292969 240.203125 258.765625 C 239.789062 263.597656 240.125 261.296875 239.96875 262.238281 C 239.695312 262.195312 238.464844 260.992188 238.261719 260.800781 C 238.136719 260.683594 237.8125 260.625 237.449219 260.148438 C 236.5625 258.988281 237.117188 259.726562 236.074219 258.546875 C 236.835938 257.71875 237.628906 257.476562 237.734375 256.847656 Z M 231.996094 270.789062 C 231.96875 270.539062 231.695312 269.203125 232.09375 269.492188 C 232.554688 269.832031 234.34375 276.050781 234.472656 276.609375 C 234.273438 276.707031 233.589844 275.378906 233.441406 275.023438 C 233.375 275.046875 233.59375 277.234375 233.589844 279.921875 C 233.589844 280.160156 233.605469 280.109375 233.289062 280.136719 C 233.109375 279.714844 233.136719 279.757812 233.097656 279.769531 C 233.097656 280.257812 233.203125 280.144531 232.578125 280.242188 C 232.492188 278.933594 232.546875 279.703125 232.398438 278.242188 C 231.558594 270.085938 232.085938 271.695312 231.996094 270.789062 Z M 219.507812 267.027344 C 220.515625 265.824219 220.9375 265.027344 221.644531 265.121094 C 221.75 265.390625 221.84375 265.925781 222.023438 266.496094 C 224.359375 267.726562 226.96875 268.339844 229.300781 269.582031 C 229.46875 269.671875 229.34375 269.902344 229.175781 269.871094 C 228.925781 269.828125 228.667969 269.828125 228.414062 269.792969 C 228.164062 269.757812 227.914062 269.726562 227.664062 269.695312 C 227.164062 269.628906 226.65625 269.574219 226.152344 269.539062 C 225.707031 269.507812 225.257812 269.503906 224.808594 269.496094 C 225.582031 270.074219 226.414062 270.714844 226.800781 271.089844 C 226.6875 271.089844 226.570312 271.085938 226.457031 271.089844 C 226.308594 271.09375 226.160156 271.101562 226.007812 271.121094 C 225.546875 270.964844 224.761719 270.621094 223.332031 269.847656 C 222.25 269.257812 219.246094 267.335938 219.507812 267.027344 Z M 219.507812 267.027344 " fill-opacity="1" fill-rule="nonzero"/></g><g clip-path="url(#e3f37a305f)"><path fill="#edf6ff" d="M 192.390625 145.871094 L 253.71875 145.871094 L 252.027344 144.402344 L 247.050781 140.925781 L 243.175781 131.839844 L 240.234375 130.636719 L 236.089844 124.753906 L 233.257812 112.96875 L 228.742188 110.054688 L 223.929688 114.527344 L 216.449219 129.566406 L 211.367188 133.84375 L 210.03125 128.363281 L 203.582031 131.101562 L 203.796875 131.863281 L 198.539062 142.261719 L 193.863281 143.199219 Z M 192.390625 145.871094 " fill-opacity="1" fill-rule="nonzero"/></g><g clip-path="url(#918b177db8)"><path fill="#a2cff8" d="M 228.742188 110.054688 L 223.929688 114.527344 L 216.449219 129.566406 L 211.367188 133.84375 L 211.367188 138.46875 L 214.992188 141.066406 L 217.332031 135.003906 L 220.625 135.175781 L 223.054688 137.339844 L 225.820312 118.542969 L 227.898438 118.371094 L 230.238281 121.664062 Z M 228.742188 110.054688 " fill-opacity="1" fill-rule="nonzero"/></g><path fill="#a2cff8" d="M 210.03125 128.363281 L 203.582031 131.101562 L 203.796875 131.863281 L 198.539062 142.261719 L 202.300781 138.902344 L 204.285156 133.273438 L 207.742188 133.878906 L 207.226562 130.179688 Z M 210.03125 128.363281 " fill-opacity="1" fill-rule="nonzero"/><path fill="#a2cff8" d="M 223.054688 137.339844 L 230.238281 121.664062 L 227.898438 118.371094 L 225.820312 118.542969 Z M 223.054688 137.339844 " fill-opacity="1" fill-rule="nonzero"/><path fill="#edf6ff" d="M 225.820312 118.542969 L 223.929688 114.527344 L 227.898438 118.371094 Z M 225.820312 118.542969 " fill-opacity="1" fill-rule="nonzero"/><path fill="#a2cff8" d="M 210.03125 128.363281 L 211.367188 133.84375 L 211.367188 138.46875 L 207.742188 133.878906 L 207.226562 130.179688 Z M 210.03125 128.363281 " fill-opacity="1" fill-rule="nonzero"/><path fill="#edf6ff" d="M 203.582031 131.101562 L 207.226562 130.179688 L 210.03125 128.363281 Z M 203.582031 131.101562 " fill-opacity="1" fill-rule="nonzero"/><path fill="#a2cff8" d="M 204.285156 133.273438 L 203.796875 131.863281 L 207.742188 133.878906 Z M 204.285156 133.273438 " fill-opacity="1" fill-rule="nonzero"/><path fill="#a2cff8" d="M 240.234375 130.636719 L 239.59375 139.25 L 243.492188 144.445312 L 247.050781 140.925781 L 243.175781 131.839844 Z M 240.234375 130.636719 " fill-opacity="1" fill-rule="nonzero"/><path fill="#a2cff8" d="M 231.445312 131.101562 L 225.851562 135.3125 L 225.851562 140.796875 L 221.746094 145.871094 L 240.996094 145.871094 L 235.867188 136.476562 L 232.316406 135.3125 Z M 231.445312 131.101562 " fill-opacity="1" fill-rule="nonzero"/><path fill="#edf6ff" d="M 230.238281 121.664062 L 223.054688 137.339844 C 223.054688 137.339844 225.296875 135.707031 225.777344 135.363281 C 225.808594 135.339844 225.847656 135.3125 225.847656 135.3125 L 231.445312 131.101562 Z M 230.238281 121.664062 " fill-opacity="1" fill-rule="nonzero"/><g clip-path="url(#16c99a2e85)"><path fill="#a2cff8" d="M 228.742188 110.054688 L 233.257812 112.96875 L 232.316406 135.3125 L 231.445312 131.101562 Z M 228.742188 110.054688 " fill-opacity="1" fill-rule="nonzero"/></g><path fill="#edf6ff" d="M 223.929688 114.527344 L 225.820312 118.542969 L 223.054688 137.339844 L 216.449219 129.566406 Z M 223.929688 114.527344 " fill-opacity="1" fill-rule="nonzero"/><path fill="#a2cff8" d="M 215.625 130.257812 L 217.332031 135.003906 L 214.992188 141.066406 L 211.367188 138.46875 L 211.367188 133.84375 Z M 215.625 130.257812 " fill-opacity="1" fill-rule="nonzero"/><path fill="#a2cff8" d="M 216.449219 129.566406 L 215.625 130.257812 L 217.332031 135.003906 L 220.625 135.175781 Z M 216.449219 129.566406 " fill-opacity="1" fill-rule="nonzero"/><path fill="#edf6ff" d="M 225.851562 140.796875 L 232.578125 144.90625 L 235.867188 136.476562 L 239.59375 139.25 L 243.492188 144.445312 L 245.351562 142.605469 L 251.808594 145.871094 L 221.746094 145.871094 Z M 225.851562 140.796875 " fill-opacity="1" fill-rule="nonzero"/><path fill="#edf6ff" d="M 202.300781 138.902344 L 204.285156 133.273438 L 207.742188 133.878906 L 211.367188 138.46875 L 214.992188 141.066406 L 212.304688 142.261719 Z M 202.300781 138.902344 " fill-opacity="1" fill-rule="nonzero"/><path fill="#edf6ff" d="M 214.992188 141.066406 L 221.746094 145.871094 L 223.054688 137.339844 L 220.625 135.175781 L 217.332031 135.003906 Z M 214.992188 141.066406 " fill-opacity="1" fill-rule="nonzero"/><path fill="#edf6ff" d="M 223.054688 137.339844 L 221.746094 145.871094 L 225.851562 140.796875 L 225.851562 135.3125 Z M 223.054688 137.339844 " fill-opacity="1" fill-rule="nonzero"/><path fill="#a2cff8" d="M 198.539062 142.261719 L 202.300781 138.902344 L 212.304688 142.261719 L 201.738281 144.445312 Z M 198.539062 142.261719 " fill-opacity="1" fill-rule="nonzero"/><path fill="#a2cff8" d="M 198.539062 142.261719 L 201.738281 144.445312 L 193.863281 143.199219 Z M 198.539062 142.261719 " fill-opacity="1" fill-rule="nonzero"/><path fill="#edf6ff" d="M 201.738281 144.445312 L 200.441406 145.871094 L 221.746094 145.871094 L 214.777344 140.910156 L 212.304688 142.261719 Z M 201.738281 144.445312 " fill-opacity="1" fill-rule="nonzero"/><g clip-path="url(#3eb60c264d)"><path fill="#edf6ff" d="M 163.457031 87.332031 L 119.886719 87.332031 L 121.089844 86.289062 L 124.625 83.820312 L 127.378906 77.363281 L 129.46875 76.511719 L 132.410156 72.332031 L 134.421875 63.960938 L 137.632812 61.890625 L 141.050781 65.066406 L 146.367188 75.75 L 149.976562 78.789062 L 150.925781 74.894531 L 155.507812 76.839844 L 155.355469 77.382812 L 159.089844 84.769531 L 162.414062 85.433594 Z M 163.457031 87.332031 " fill-opacity="1" fill-rule="nonzero"/></g><g clip-path="url(#c1b1c97047)"><path fill="#a2cff8" d="M 137.632812 61.890625 L 141.050781 65.066406 L 146.367188 75.75 L 149.976562 78.789062 L 149.976562 82.074219 L 147.402344 83.917969 L 145.738281 79.613281 L 143.398438 79.734375 L 141.671875 81.273438 L 139.707031 67.917969 L 138.230469 67.796875 L 136.570312 70.136719 Z M 137.632812 61.890625 " fill-opacity="1" fill-rule="nonzero"/></g><path fill="#a2cff8" d="M 150.925781 74.894531 L 155.507812 76.839844 L 155.355469 77.382812 L 159.089844 84.769531 L 156.417969 82.382812 L 155.003906 78.382812 L 152.550781 78.8125 L 152.917969 76.1875 Z M 150.925781 74.894531 " fill-opacity="1" fill-rule="nonzero"/><path fill="#7bbcd6" d="M 141.671875 81.273438 L 136.570312 70.136719 L 138.230469 67.796875 L 139.707031 67.917969 Z M 141.671875 81.273438 " fill-opacity="1" fill-rule="nonzero"/><path fill="#edf6ff" d="M 139.707031 67.917969 L 141.050781 65.066406 L 138.230469 67.796875 Z M 139.707031 67.917969 " fill-opacity="1" fill-rule="nonzero"/><path fill="#7bbcd6" d="M 150.925781 74.894531 L 149.976562 78.789062 L 149.976562 82.074219 L 152.550781 78.8125 L 152.917969 76.1875 Z M 150.925781 74.894531 " fill-opacity="1" fill-rule="nonzero"/><path fill="#edf6ff" d="M 155.507812 76.839844 L 152.917969 76.1875 L 150.925781 74.894531 Z M 155.507812 76.839844 " fill-opacity="1" fill-rule="nonzero"/><path fill="#7bbcd6" d="M 155.003906 78.382812 L 155.355469 77.382812 L 152.550781 78.8125 Z M 155.003906 78.382812 " fill-opacity="1" fill-rule="nonzero"/><path fill="#7bbcd6" d="M 129.46875 76.511719 L 129.921875 82.628906 L 127.15625 86.320312 L 124.625 83.820312 L 127.378906 77.363281 Z M 129.46875 76.511719 " fill-opacity="1" fill-rule="nonzero"/><g clip-path="url(#b966a9c8af)"><path fill="#7bbcd6" d="M 135.710938 76.839844 L 139.6875 79.832031 L 139.6875 83.730469 L 142.601562 87.332031 L 128.929688 87.332031 L 132.570312 80.660156 L 135.09375 79.832031 Z M 135.710938 76.839844 " fill-opacity="1" fill-rule="nonzero"/></g><path fill="#edf6ff" d="M 136.570312 70.136719 L 141.671875 81.273438 C 141.671875 81.273438 140.082031 80.113281 139.738281 79.867188 C 139.714844 79.851562 139.6875 79.832031 139.6875 79.832031 L 135.714844 76.839844 Z M 136.570312 70.136719 " fill-opacity="1" fill-rule="nonzero"/><g clip-path="url(#e2bba76f37)"><path fill="#7bbcd6" d="M 137.632812 61.890625 L 134.421875 63.960938 L 135.09375 79.832031 L 135.710938 76.839844 Z M 137.632812 61.890625 " fill-opacity="1" fill-rule="nonzero"/></g><path fill="#edf6ff" d="M 141.050781 65.066406 L 139.707031 67.917969 L 141.671875 81.273438 L 146.367188 75.75 Z M 141.050781 65.066406 " fill-opacity="1" fill-rule="nonzero"/><path fill="#a2cff8" d="M 146.953125 76.242188 L 145.738281 79.613281 L 147.402344 83.917969 L 149.976562 82.074219 L 149.976562 78.789062 Z M 146.953125 76.242188 " fill-opacity="1" fill-rule="nonzero"/><path fill="#7bbcd6" d="M 146.367188 75.75 L 146.953125 76.242188 L 145.738281 79.613281 L 143.398438 79.734375 Z M 146.367188 75.75 " fill-opacity="1" fill-rule="nonzero"/><g clip-path="url(#bb9855ab08)"><path fill="#edf6ff" d="M 139.6875 83.730469 L 134.90625 86.648438 L 132.570312 80.660156 L 129.921875 82.628906 L 127.15625 86.320312 L 125.835938 85.015625 L 121.246094 87.332031 L 142.601562 87.332031 Z M 139.6875 83.730469 " fill-opacity="1" fill-rule="nonzero"/></g><path fill="#edf6ff" d="M 156.417969 82.382812 L 155.003906 78.382812 L 152.550781 78.8125 L 149.976562 82.074219 L 147.402344 83.917969 L 149.308594 84.769531 Z M 156.417969 82.382812 " fill-opacity="1" fill-rule="nonzero"/><g clip-path="url(#58477a0949)"><path fill="#edf6ff" d="M 147.402344 83.917969 L 142.601562 87.332031 L 141.671875 81.273438 L 143.398438 79.734375 L 145.738281 79.613281 Z M 147.402344 83.917969 " fill-opacity="1" fill-rule="nonzero"/></g><g clip-path="url(#e51f050699)"><path fill="#edf6ff" d="M 141.671875 81.273438 L 142.601562 87.332031 L 139.6875 83.730469 L 139.6875 79.832031 Z M 141.671875 81.273438 " fill-opacity="1" fill-rule="nonzero"/></g><path fill="#7bbcd6" d="M 159.089844 84.769531 L 156.417969 82.382812 L 149.308594 84.769531 L 156.816406 86.320312 Z M 159.089844 84.769531 " fill-opacity="1" fill-rule="nonzero"/><path fill="#a2cff8" d="M 159.089844 84.769531 L 156.816406 86.320312 L 162.414062 85.433594 Z M 159.089844 84.769531 " fill-opacity="1" fill-rule="nonzero"/><g clip-path="url(#a0868bc759)"><path fill="#edf6ff" d="M 156.816406 86.320312 L 157.738281 87.332031 L 142.601562 87.332031 L 147.554688 83.808594 L 149.308594 84.769531 Z M 156.816406 86.320312 " fill-opacity="1" fill-rule="nonzero"/></g><path fill="#edf6ff" d="M 289.941406 49.042969 C 289.933594 49.070312 289.921875 49.09375 289.90625 49.117188 C 289.785156 49.335938 289.597656 49.519531 289.335938 49.714844 C 289.273438 49.765625 289.21875 49.804688 289.167969 49.84375 C 288.890625 50.046875 288.785156 50.089844 288.257812 50.199219 C 287.96875 50.261719 287.550781 50.34375 286.910156 50.480469 C 286.40625 50.585938 286.007812 50.691406 285.683594 50.796875 C 285.679688 50.796875 285.679688 50.796875 285.675781 50.796875 C 285.320312 50.910156 284.972656 51.050781 284.640625 51.226562 C 284.625 51.234375 284.609375 51.242188 284.59375 51.25 C 284.429688 51.335938 284.277344 51.421875 284.117188 51.511719 C 284 51.578125 283.878906 51.644531 283.742188 51.710938 C 283.652344 51.753906 283.558594 51.800781 283.453125 51.84375 C 283.433594 51.855469 283.414062 51.863281 283.394531 51.871094 C 283.132812 51.984375 282.886719 52.089844 282.648438 52.195312 C 282.1875 52.402344 281.761719 52.601562 281.339844 52.832031 C 281.003906 53.011719 280.664062 53.214844 280.304688 53.453125 C 280.300781 53.457031 280.296875 53.460938 280.289062 53.464844 C 280.179688 53.535156 280.070312 53.609375 279.957031 53.691406 L 279.917969 53.714844 C 279.792969 53.800781 279.664062 53.875 279.527344 53.9375 C 279.472656 53.964844 279.421875 53.988281 279.375 54.007812 C 279.375 54.011719 279.375 54.011719 279.375 54.011719 C 279.265625 54.054688 279.15625 54.09375 279.046875 54.125 C 279.042969 54.125 279.039062 54.128906 279.039062 54.128906 C 278.949219 54.152344 278.863281 54.175781 278.773438 54.195312 C 278.765625 54.195312 278.761719 54.199219 278.753906 54.199219 C 278.3125 54.285156 277.863281 54.3125 277.414062 54.285156 C 276.800781 54.25 276.191406 54.175781 275.585938 54.066406 C 275.121094 53.992188 274.664062 53.914062 274.234375 53.863281 C 274.042969 53.839844 273.855469 53.824219 273.675781 53.8125 C 273.464844 53.800781 273.277344 53.929688 273.054688 54.09375 C 273.054688 54.09375 273.050781 54.09375 273.050781 54.09375 C 272.847656 54.257812 272.628906 54.398438 272.398438 54.523438 C 272.289062 54.578125 272.179688 54.625 272.070312 54.671875 C 270.191406 55.410156 268.269531 54.535156 268.25 54.53125 C 267.992188 54.480469 267.683594 54.464844 267.320312 54.414062 C 267.234375 54.402344 267.148438 54.386719 267.054688 54.367188 C 267.050781 54.367188 267.046875 54.367188 267.042969 54.367188 C 266.8125 54.324219 266.585938 54.257812 266.363281 54.179688 C 264.601562 53.535156 266.429688 54.09375 263.984375 53.402344 L 263.964844 53.398438 C 263.867188 53.371094 263.757812 53.339844 263.640625 53.308594 C 263.640625 53.304688 263.640625 53.304688 263.640625 53.304688 C 263.625 53.300781 263.609375 53.296875 263.59375 53.292969 C 261.796875 52.785156 260.367188 51.332031 259.257812 50.472656 C 259.238281 50.453125 259.21875 50.441406 259.199219 50.429688 C 259.140625 50.382812 259.082031 50.335938 259.023438 50.292969 C 258.808594 50.128906 258.570312 49.992188 258.320312 49.890625 C 257.652344 49.632812 257.066406 49.515625 256.539062 49.367188 L 256.433594 49.335938 C 256.003906 49.214844 255.613281 49.0625 255.25 48.792969 C 255.234375 48.785156 255.222656 48.777344 255.210938 48.769531 C 255.1875 48.75 255.15625 48.726562 255.132812 48.703125 C 255.003906 48.601562 254.890625 48.484375 254.792969 48.351562 C 254.675781 48.191406 254.613281 48.0625 254.457031 47.921875 C 253.742188 47.277344 254.476562 46.507812 255.316406 46.042969 C 256.253906 45.519531 255.753906 44.71875 257.449219 44.371094 C 257.863281 44.285156 257.398438 42.488281 258.195312 41.785156 C 259.039062 41.027344 259.285156 40.972656 259.273438 40.730469 C 259.214844 39.5625 259.144531 39.511719 259.273438 38.976562 C 259.492188 38.066406 260.050781 37.628906 260.546875 37.367188 C 260.949219 37.15625 261.308594 37.0625 261.414062 36.929688 L 261.417969 36.925781 C 262.699219 35.363281 262.902344 32.636719 263.8125 32.09375 C 263.820312 32.089844 263.828125 32.085938 263.835938 32.082031 C 263.851562 32.070312 263.871094 32.058594 263.890625 32.050781 C 263.957031 32.015625 264.019531 31.980469 264.078125 31.949219 C 264.171875 31.898438 264.261719 31.847656 264.347656 31.804688 C 264.351562 31.804688 264.355469 31.800781 264.359375 31.796875 C 264.84375 31.542969 265.34375 31.316406 265.855469 31.125 C 265.871094 31.121094 265.886719 31.113281 265.902344 31.109375 C 266.046875 31.054688 266.167969 31.007812 266.269531 30.960938 C 266.320312 30.941406 266.363281 30.921875 266.40625 30.898438 C 266.46875 30.863281 266.527344 30.824219 266.585938 30.777344 C 266.601562 30.765625 266.617188 30.75 266.636719 30.734375 C 266.679688 30.695312 266.722656 30.652344 266.769531 30.601562 C 266.769531 30.597656 266.773438 30.59375 266.777344 30.59375 C 266.792969 30.574219 266.8125 30.554688 266.828125 30.535156 C 266.867188 30.488281 266.910156 30.453125 266.960938 30.421875 C 266.984375 30.40625 267.007812 30.394531 267.035156 30.382812 C 267.332031 30.246094 267.796875 30.25 268.230469 30.296875 C 268.234375 30.296875 268.238281 30.300781 268.242188 30.300781 C 268.578125 30.335938 268.914062 30.402344 269.246094 30.488281 C 269.609375 30.59375 269.855469 30.917969 270.027344 31.304688 C 270.066406 31.390625 270.101562 31.476562 270.128906 31.5625 C 270.304688 32.074219 270.378906 32.636719 270.429688 32.929688 C 270.488281 33.261719 270.558594 33.3125 270.910156 33.59375 C 270.933594 33.613281 270.953125 33.628906 270.972656 33.644531 C 271.0625 33.714844 271.164062 33.800781 271.285156 33.902344 C 271.519531 34.101562 271.691406 34.246094 271.824219 34.359375 C 272.25 34.722656 272.207031 34.691406 272.257812 34.703125 C 273.261719 34.96875 273.628906 34.730469 274.148438 34.859375 C 274.433594 34.929688 274.765625 35.113281 275.277344 35.558594 C 275.417969 35.675781 275.550781 35.800781 275.679688 35.929688 C 276.230469 36.460938 276.722656 37.011719 277.453125 37.351562 C 277.769531 37.488281 278.074219 37.652344 278.355469 37.847656 C 278.375 37.859375 278.394531 37.875 278.414062 37.890625 C 278.414062 37.890625 278.417969 37.890625 278.417969 37.894531 C 278.714844 38.113281 279.015625 38.402344 279.496094 38.886719 L 279.59375 38.984375 C 279.839844 39.234375 280.132812 39.535156 280.492188 39.898438 C 280.511719 39.914062 280.527344 39.933594 280.539062 39.945312 C 280.867188 40.273438 281.246094 40.652344 281.699219 41.097656 C 281.722656 41.121094 281.75 41.148438 281.777344 41.171875 C 281.8125 41.210938 281.855469 41.242188 281.898438 41.273438 C 281.898438 41.273438 281.898438 41.273438 281.902344 41.273438 C 282.753906 41.828125 284.148438 40.261719 284.859375 40.34375 C 284.910156 40.351562 284.960938 40.359375 285.003906 40.367188 L 285.007812 40.367188 C 285.167969 40.394531 285.324219 40.449219 285.464844 40.535156 C 285.46875 40.535156 285.46875 40.535156 285.46875 40.539062 C 285.839844 40.773438 286.109375 41.222656 286.804688 42.074219 C 286.808594 42.078125 286.808594 42.082031 286.8125 42.085938 C 286.933594 42.226562 287.042969 42.378906 287.132812 42.542969 C 287.171875 42.617188 287.207031 42.695312 287.242188 42.777344 C 287.242188 42.78125 287.242188 42.78125 287.242188 42.78125 C 287.324219 42.980469 287.410156 43.234375 287.574219 43.640625 C 287.777344 44.15625 289.144531 44.867188 289.660156 45.738281 C 289.75 45.882812 289.816406 46.046875 289.847656 46.214844 C 289.855469 46.273438 289.863281 46.328125 289.875 46.382812 C 289.871094 46.386719 289.875 46.386719 289.875 46.390625 C 289.945312 46.820312 290 47.183594 290.035156 47.492188 C 290.125 48.242188 290.109375 48.695312 289.941406 49.042969 Z M 289.941406 49.042969 " fill-opacity="1" fill-rule="nonzero"/><path fill="#a5d4e7" d="M 275.355469 42.5 C 275.417969 43.082031 275.207031 43.785156 275.105469 44.359375 C 274.882812 45.671875 274.589844 46.972656 274.226562 48.257812 C 273.976562 49.132812 273.71875 50.117188 273.199219 50.882812 C 273.007812 50.605469 273.15625 50.238281 273.640625 47.363281 C 274.082031 44.753906 274.039062 45.492188 272.484375 48.558594 C 272.140625 49.238281 272.261719 48.59375 272.761719 52.066406 C 272.996094 53.675781 273.242188 53.980469 272.984375 54.160156 C 272.285156 54.652344 272.1875 54.589844 272.09375 54.683594 C 271.90625 54.683594 270.660156 51.617188 270.652344 51.601562 C 270.292969 52.078125 270.203125 52.140625 270.1875 52.148438 L 270.183594 52.152344 C 270.183594 52.144531 270.183594 52.140625 270.191406 52.144531 C 270.785156 50.257812 270.398438 52.128906 268.945312 53.359375 C 267.699219 54.410156 267.558594 54.519531 266.984375 54.351562 C 266.800781 54.296875 266.78125 54.402344 267.429688 53.378906 C 274.394531 42.347656 271.117188 49.941406 272.132812 41.453125 C 272.15625 41.269531 272.265625 41.15625 272.410156 41.316406 C 272.601562 41.527344 272.609375 41.621094 273.199219 44.089844 C 273.230469 44.226562 273.167969 44.488281 273.320312 44.140625 C 273.851562 42.929688 274.308594 41.695312 274.773438 40.460938 C 274.691406 40.675781 275.066406 41.316406 275.136719 41.535156 C 275.246094 41.847656 275.316406 42.171875 275.355469 42.5 Z M 260.160156 44.351562 C 261.394531 41.011719 261.625 41.800781 262.398438 35.816406 C 262.59375 34.308594 261.921875 36.726562 261.277344 37.023438 C 260.1875 37.527344 260.382812 37.128906 260.425781 39.339844 C 260.449219 40.828125 260.546875 40.570312 259.222656 44.183594 C 258.945312 44.9375 255.40625 47.832031 254.789062 48.335938 C 254.789062 48.53125 255.671875 49.214844 256.867188 49.441406 C 262.476562 43.011719 259.976562 44.84375 260.160156 44.351562 Z M 267.328125 43.542969 C 267.242188 42.578125 267.136719 42.011719 267.097656 41.808594 C 267.15625 42.039062 267.351562 42.753906 267.8125 43.902344 C 267.953125 44.246094 268.433594 44.066406 268.375 43.714844 C 268.265625 43.070312 268.269531 43.425781 268.5625 43.347656 C 269 43.230469 268.753906 42.789062 268.480469 42.027344 C 268.328125 41.597656 268.886719 41.71875 269 41.257812 C 269.078125 40.945312 268.875 39.605469 268.714844 38.636719 C 268.761719 38.679688 269.023438 38.636719 269.234375 38.527344 C 273.382812 36.339844 267.90625 38.695312 275.679688 35.929688 C 275.550781 35.800781 275.417969 35.675781 275.277344 35.558594 C 274.765625 35.113281 274.433594 34.929688 274.148438 34.859375 C 273.871094 34.945312 273.570312 35.195312 273.039062 35.558594 C 271.242188 36.804688 272.878906 35.46875 268.761719 38.558594 C 268.730469 38.582031 268.714844 38.597656 268.710938 38.613281 C 268.625 38.09375 268.554688 37.683594 268.546875 37.613281 C 268.296875 34.988281 267.800781 37.695312 269.050781 32 C 269.484375 30.023438 268.277344 31.972656 267.285156 33.941406 C 266.445312 33.675781 266.191406 33.539062 265.964844 33.773438 C 265.867188 33.878906 265.703125 33.734375 265.582031 34.015625 C 264.609375 34.105469 264.625 34.078125 265.367188 35.703125 C 264.976562 35.976562 265.261719 36.167969 265.15625 36.324219 C 264.976562 36.597656 265.113281 36.871094 265.328125 37.464844 C 265.402344 37.675781 265.183594 37.621094 265.15625 37.820312 C 264.738281 40.511719 260.625 47.5 258.960938 49.921875 C 259.011719 49.878906 260.1875 49.34375 263.75 44.824219 C 265.019531 43.210938 264.769531 43.273438 264.667969 44.507812 C 264.417969 47.640625 264.566406 45.148438 263.449219 49.613281 C 263.371094 49.917969 264.179688 48.929688 265.460938 45.34375 C 265.546875 46.378906 265.710938 47.410156 265.957031 48.421875 C 266.03125 48.0625 265.992188 48.023438 266.175781 48.558594 C 266.257812 48.550781 266.203125 48.796875 266.523438 46.367188 C 266.992188 47.34375 266.589844 42.578125 266.453125 41.707031 C 266.992188 43.449219 267.484375 45.246094 267.328125 43.542969 Z M 286.207031 44.625 C 286.367188 44.507812 286.773438 44.523438 286.976562 44.457031 C 287 44.449219 286.753906 43.738281 286.78125 43.640625 C 286.828125 43.4375 287.191406 43.203125 287.328125 43.054688 C 286.996094 42.203125 287.699219 42.210938 283.539062 44.363281 C 282.695312 44.800781 281.796875 45.445312 280.839844 45.605469 C 280.398438 45.679688 279.945312 45.660156 279.5 45.664062 C 278.355469 45.667969 277.222656 45.371094 276.117188 45.847656 C 276.183594 46.296875 277.019531 46.664062 277.382812 46.832031 C 277.875 47.058594 278.394531 47.214844 278.890625 47.433594 C 278.296875 49.359375 277.191406 51.277344 276.175781 53.015625 C 278.34375 51.582031 279.695312 49.207031 281.722656 47.582031 C 282.046875 47.316406 282.382812 47.003906 282.722656 46.78125 C 283.1875 47.421875 283.539062 48.109375 284.074219 48.710938 C 284.101562 48.3125 284.089844 47.914062 284.039062 47.519531 C 284.015625 47.320312 283.972656 47.128906 283.941406 46.929688 C 283.910156 46.722656 283.964844 46.695312 283.984375 46.535156 C 284.027344 46.171875 283.871094 46 284.132812 45.699219 C 284.34375 45.472656 284.582031 45.269531 284.847656 45.105469 C 285.074219 44.960938 285.546875 44.789062 285.644531 44.519531 C 285.417969 45.160156 285.203125 45.804688 285.027344 46.460938 C 284.957031 46.726562 284.78125 47.148438 284.871094 47.421875 C 285.105469 47.296875 285.238281 46.847656 285.347656 46.621094 C 285.53125 46.21875 285.703125 45.8125 285.871094 45.402344 C 285.949219 45.21875 286.046875 44.738281 286.207031 44.625 Z M 273.523438 38.589844 C 273.480469 38.476562 273.90625 38.453125 275.441406 37.5 C 275.617188 37.386719 275.578125 37.15625 275.332031 37.242188 C 270.6875 38.867188 270.550781 39.980469 271.265625 39.742188 C 272.113281 39.464844 271.054688 39.765625 273.789062 39 C 274.359375 38.839844 274.320312 38.730469 273.457031 39.613281 C 272.734375 40.355469 272.605469 40.609375 273.355469 40.074219 C 276.109375 38.113281 277.890625 37.171875 273.523438 38.589844 Z M 281.644531 52.300781 C 282.421875 52.300781 283.386719 51.539062 284.890625 51.007812 C 285.132812 50.921875 285.4375 50.84375 285.339844 50.578125 C 285.136719 50.023438 282.59375 51.257812 281.644531 52.300781 Z M 286.132812 48.886719 C 286.257812 48.828125 286.957031 48.242188 287.121094 48.085938 C 291.863281 43.625 286.867188 47.148438 286.132812 48.886719 Z M 258.957031 49.925781 L 258.921875 49.964844 C 258.953125 49.980469 258.945312 49.988281 258.957031 49.925781 Z M 258.957031 49.925781 L 258.957031 49.921875 C 258.957031 49.925781 258.957031 49.925781 258.957031 49.925781 Z M 270.183594 52.152344 L 270.15625 52.1875 C 270.191406 52.207031 270.183594 52.167969 270.183594 52.152344 Z M 270.183594 52.152344 " fill-opacity="1" fill-rule="nonzero"/><path fill="#7bbcd6" d="M 289.671875 45.726562 C 290.039062 46.316406 290.066406 48.027344 290.070312 48.363281 C 290.101562 49.964844 288.164062 50.234375 287.257812 50.417969 C 284.183594 51.039062 284.917969 51.351562 284.207031 51.289062 C 284.222656 51.277344 284.179688 51.601562 283.164062 51.953125 C 282.679688 52.121094 281.738281 52.773438 281.191406 52.867188 C 281.121094 52.882812 280.0625 53.621094 280 53.660156 C 279.078125 54.261719 278.84375 54.105469 278.761719 54.207031 C 278.683594 54.207031 279.039062 53.761719 279.09375 53.703125 C 283.925781 48.636719 283.5 49.441406 285.921875 48.929688 C 286.148438 48.882812 287.367188 47.226562 287.417969 47.15625 C 287.871094 46.527344 288.300781 46.292969 289.332031 45.601562 C 289.621094 45.410156 289.699219 45.835938 290.761719 49.136719 C 291.007812 49.894531 290.5 50.011719 283.972656 51.546875 C 283.898438 51.5625 283.800781 51.570312 283.769531 51.503906 C 283.738281 51.433594 283.898438 51.40625 283.863281 51.472656 Z M 289.671875 45.726562 " fill-opacity="1" fill-rule="nonzero"/><path fill="#7bbcd6" d="M 261.363281 41.785156 C 261.226562 42.480469 260.921875 43.058594 260.707031 43.71875 C 260.011719 45.859375 260.324219 44.898438 260.390625 47.019531 C 260.4375 48.765625 260.433594 49.050781 259.328125 50.523438 C 259.128906 50.371094 259.046875 50.320312 259.019531 50.300781 C 259.171875 49.933594 259.65625 48.605469 259.621094 48.285156 C 259.613281 48.222656 259.382812 47.460938 259.261719 47.402344 C 258.90625 47.242188 258.550781 47.949219 257.21875 48.367188 C 257.273438 48.351562 257.90625 47.40625 257.917969 47.390625 C 258.214844 46.972656 258.375 46.875 258.558594 46.609375 C 261.050781 43.007812 262.234375 37.40625 261.363281 41.785156 Z M 261.363281 41.785156 " fill-opacity="1" fill-rule="nonzero"/><path fill="#7bbcd6" d="M 274.691406 40.78125 C 274.605469 40.644531 274.453125 40.539062 274.371094 40.402344 C 274.988281 39.890625 275.796875 39.613281 276.441406 39.132812 C 276.890625 38.800781 277.332031 38.464844 277.789062 38.144531 C 277.90625 38.058594 278.230469 37.734375 278.386719 37.867188 C 279.496094 38.800781 281.003906 40.445312 281.304688 40.738281 C 282.449219 41.851562 282.304688 40.984375 279.390625 42.6875 C 278.992188 42.921875 278.59375 43.148438 278.183594 43.359375 C 277.890625 43.507812 277.570312 43.542969 277.289062 43.703125 C 276.71875 44.03125 276.164062 44.390625 275.601562 44.730469 C 275.152344 44.996094 275.082031 45.160156 274.976562 45.648438 C 274.710938 46.886719 274.042969 48 273.824219 49.257812 C 273.933594 48.625 273.84375 47.929688 274.019531 47.320312 C 274.164062 46.824219 274.21875 46.296875 274.308594 45.789062 C 274.445312 44.996094 274.582031 44.199219 274.738281 43.410156 C 274.855469 42.796875 274.816406 42.164062 274.785156 41.535156 C 274.773438 41.324219 274.8125 41.03125 274.722656 40.835938 C 274.714844 40.816406 274.703125 40.796875 274.691406 40.78125 Z M 274.691406 40.78125 " fill-opacity="1" fill-rule="nonzero"/><path fill="#7bbcd6" d="M 269.109375 41.3125 C 268.566406 44.070312 268.582031 44.039062 267.167969 46.71875 C 266.71875 47.574219 267.449219 48.789062 266.90625 49.535156 C 264.878906 52.320312 265.945312 49.945312 265.316406 53.761719 C 264.945312 53.636719 264.789062 53.65625 264.839844 53.386719 C 264.6875 53.578125 264.527344 53.519531 264.378906 53.488281 C 263.414062 53.28125 263.546875 53.328125 263.605469 52.976562 C 263.90625 51.222656 263.875 50.898438 264.414062 50.28125 C 265.558594 48.96875 265.53125 49.007812 265.542969 48.589844 C 265.582031 47.511719 265.472656 47.457031 265.652344 47.144531 C 269.242188 40.960938 268.988281 41.269531 269.109375 41.3125 Z M 269.109375 41.3125 " fill-opacity="1" fill-rule="nonzero"/><path fill="#7bbcd6" d="M 263.324219 32.769531 C 263.511719 32.289062 264.117188 31.707031 264.234375 32.042969 C 264.316406 32.273438 264.300781 32.539062 264.652344 32.6875 C 264.667969 32.695312 267.933594 34.296875 267.84375 34.5 C 267.664062 34.898438 265.570312 33.613281 265.550781 33.96875 C 265.5 34.859375 265.292969 34.78125 265.371094 35.054688 C 265.554688 35.6875 265.707031 35.765625 265.625 36.523438 C 265.570312 37.035156 265.5 37.542969 265.414062 38.050781 C 265.351562 38.425781 265.207031 38.679688 265.066406 39.019531 C 264.878906 39.484375 264.765625 39.96875 264.558594 40.429688 C 264.375 40.84375 264.054688 41.230469 263.894531 41.644531 C 264.4375 40.242188 264.445312 38.773438 264.699219 37.320312 C 264.886719 36.242188 264.960938 35.445312 264.457031 34.449219 C 263.703125 32.957031 264 33.40625 263.324219 32.769531 Z M 263.324219 32.769531 " fill-opacity="1" fill-rule="nonzero"/><path fill="#7bbcd6" d="M 274.714844 40.757812 C 274.691406 40.789062 274.6875 40.773438 274.714844 40.761719 Z M 274.714844 40.757812 " fill-opacity="1" fill-rule="nonzero"/><path fill="#e5f5fb" d="M 277.453125 54.285156 C 274.414062 54.285156 275.035156 54.519531 279.597656 49.429688 C 282.621094 46.054688 279.980469 50.476562 277.453125 54.285156 Z M 268.929688 30.457031 C 268.84375 30.410156 267.328125 29.996094 266.84375 30.519531 C 266.261719 31.152344 266.582031 30.679688 263.890625 32.03125 C 263.890625 32.308594 264.46875 32.367188 264.597656 32.554688 C 264.867188 32.941406 265.023438 32.535156 265.375 32.679688 C 265.964844 32.925781 266.203125 33.195312 266.59375 32.941406 C 267.011719 32.667969 268.5625 30.953125 268.929688 30.457031 Z M 271.015625 47.976562 C 270.609375 49.269531 268.160156 52.664062 267.214844 53.71875 C 266.828125 54.148438 266.691406 54.191406 267.039062 53.550781 C 267.679688 52.367188 267.9375 52.1875 268.007812 51.65625 C 268.101562 50.960938 268.917969 49.3125 268.460938 48.234375 C 268.273438 47.789062 268.445312 47.871094 268.96875 43.824219 C 269.003906 43.558594 269.035156 43.328125 269.066406 43.125 C 269.3125 41.46875 269.445312 41.75 269.519531 41.5 C 269.625 41.15625 269.609375 41.03125 269.84375 41.035156 C 270.015625 41.042969 270.039062 41.414062 270.035156 41.585938 C 269.957031 47.089844 269.324219 45.34375 270.855469 47.476562 C 271.089844 47.445312 271.125 47.640625 271.015625 47.976562 Z M 269.292969 45.324219 C 269.277344 45.320312 269.261719 45.316406 269.25 45.3125 C 269.257812 45.574219 269.136719 45.828125 269.175781 46.09375 C 269.246094 46.097656 269.222656 46.199219 269.292969 45.324219 Z M 270.4375 32.9375 C 270.382812 32.632812 270.363281 31.964844 270.144531 31.546875 C 269.804688 31.890625 270.113281 31.453125 270.027344 31.304688 C 269.679688 30.707031 269.730469 30.816406 269.644531 31.027344 C 268.195312 34.703125 268.183594 34.238281 268.21875 34.664062 C 268.59375 39.003906 268.292969 36.933594 268.429688 37.78125 C 268.675781 37.742188 269.78125 36.660156 269.964844 36.492188 C 270.074219 36.386719 270.367188 36.332031 270.695312 35.902344 C 271.492188 34.863281 270.992188 35.527344 271.929688 34.464844 C 271.246094 33.722656 270.535156 33.503906 270.4375 32.9375 Z M 275.59375 45.464844 C 275.617188 45.238281 275.863281 44.039062 275.507812 44.300781 C 275.09375 44.605469 273.484375 50.191406 273.367188 50.691406 C 273.546875 50.78125 274.164062 49.589844 274.292969 49.269531 C 274.351562 49.289062 274.15625 51.253906 274.164062 53.667969 C 274.164062 53.882812 274.144531 53.835938 274.429688 53.863281 C 274.59375 53.480469 274.566406 53.519531 274.605469 53.53125 C 274.605469 53.972656 274.511719 53.871094 275.070312 53.957031 C 275.144531 52.78125 275.097656 53.472656 275.234375 52.160156 C 275.984375 44.832031 275.511719 46.277344 275.59375 45.464844 Z M 286.8125 42.085938 C 285.90625 41.003906 285.527344 40.289062 284.894531 40.371094 C 284.796875 40.617188 284.714844 41.09375 284.554688 41.609375 C 282.453125 42.714844 280.109375 43.261719 278.015625 44.378906 C 277.863281 44.460938 277.976562 44.667969 278.125 44.640625 C 278.351562 44.601562 278.582031 44.601562 278.808594 44.570312 C 279.035156 44.539062 279.257812 44.507812 279.484375 44.480469 C 279.9375 44.421875 280.390625 44.375 280.84375 44.339844 C 281.246094 44.3125 281.648438 44.308594 282.050781 44.304688 C 281.355469 44.820312 280.609375 45.398438 280.261719 45.734375 C 280.363281 45.734375 280.464844 45.730469 280.570312 45.734375 C 280.699219 45.738281 280.835938 45.746094 280.972656 45.761719 C 281.386719 45.621094 282.09375 45.316406 283.375 44.617188 C 284.347656 44.089844 287.046875 42.363281 286.8125 42.085938 Z M 286.8125 42.085938 " fill-opacity="1" fill-rule="nonzero"/></svg>