<svg xmlns="http://www.w3.org/2000/svg" xmlns:xlink="http://www.w3.org/1999/xlink" width="500" zoomAndPan="magnify" viewBox="0 0 375 374.999991" height="500" preserveAspectRatio="xMidYMid meet" version="1.0"><defs><clipPath id="854ed484a4"><path d="M 31.636719 31.636719 L 343.636719 31.636719 L 343.636719 343.636719 L 31.636719 343.636719 Z M 31.636719 31.636719 " clip-rule="nonzero"/></clipPath><clipPath id="2494c97dbe"><path d="M 147 40 L 343.636719 40 L 343.636719 226 L 147 226 Z M 147 40 " clip-rule="nonzero"/></clipPath></defs><g clip-path="url(#854ed484a4)"><path fill="#03a8e8" d="M 343.375 187.488281 C 343.375 187.855469 343.375 188.261719 343.351562 188.636719 C 343.304688 196.3125 342.703125 203.863281 341.546875 211.246094 C 336.121094 246.902344 318.617188 278.558594 293.339844 301.917969 L 293.3125 301.917969 C 265.507812 327.648438 228.320312 343.375 187.488281 343.375 C 167.503906 343.375 148.398438 339.625 130.871094 332.746094 C 128.699219 331.925781 126.542969 331.023438 124.414062 330.078125 C 94.757812 316.941406 70 294.84375 53.523438 267.179688 C 45.25 253.28125 39.042969 237.972656 35.390625 221.722656 C 32.917969 210.691406 31.617188 199.234375 31.617188 187.488281 C 31.617188 183.363281 31.769531 179.28125 32.121094 175.261719 C 34.746094 141.070312 48.425781 109.984375 69.582031 85.558594 C 77.726562 76.148438 86.984375 67.722656 97.140625 60.5 L 97.164062 60.476562 C 99.914062 58.53125 102.738281 56.628906 105.640625 54.851562 C 123.347656 43.898438 143.398438 36.367188 164.878906 33.242188 C 172.253906 32.164062 179.808594 31.617188 187.488281 31.617188 C 205.789062 31.617188 223.390625 34.789062 239.699219 40.597656 C 266.058594 49.949219 289.109375 66.203125 306.765625 87.15625 C 329.628906 114.269531 343.375 149.277344 343.375 187.488281 " fill-opacity="1" fill-rule="nonzero"/></g><path fill="#03a8e8" d="M 208.3125 309.480469 C 208.3125 309.480469 199.824219 297.640625 200.769531 277.34375 C 201.707031 257.046875 199.824219 253.667969 186.628906 249.4375 C 173.433594 245.210938 160.230469 237.59375 158.347656 227.449219 C 156.464844 217.296875 167.773438 193.617188 167.773438 193.617188 C 167.773438 193.617188 182.859375 183.472656 196.054688 185.160156 C 209.25 186.855469 231.878906 186.855469 242.246094 196.160156 C 252.617188 205.457031 259.207031 226.601562 263.921875 227.449219 C 268.636719 228.296875 257.324219 264.660156 255.441406 270.582031 C 253.554688 276.496094 247.902344 300.183594 243.191406 309.480469 C 238.476562 318.785156 233.761719 327.242188 229.988281 327.242188 C 226.21875 327.242188 209.25 328.933594 208.3125 309.480469 " fill-opacity="1" fill-rule="nonzero"/><path fill="#03a8e8" d="M 135.070312 307.546875 C 134.246094 311.542969 132.773438 322.171875 130.871094 332.746094 C 128.699219 331.925781 126.542969 331.023438 124.414062 330.078125 C 94.757812 316.941406 70 294.84375 53.523438 267.179688 C 45.25 253.28125 39.042969 237.972656 35.390625 221.722656 C 41.144531 218.664062 48.347656 215.917969 55.425781 216.046875 C 70.925781 216.34375 72.878906 220.15625 86.082031 229.625 C 99.257812 239.109375 109.585938 262.761719 115.164062 263.167969 C 120.738281 263.542969 136.5 300.441406 135.070312 307.546875 " fill-opacity="1" fill-rule="nonzero"/><g clip-path="url(#2494c97dbe)"><path fill="#03a8e8" d="M 343.375 187.488281 C 343.375 187.855469 343.375 188.261719 343.351562 188.636719 C 343.304688 196.3125 342.703125 203.863281 341.546875 211.246094 C 334.550781 200.964844 326.996094 185.535156 323.148438 182.835938 C 317.21875 178.65625 295.492188 176.160156 303.390625 187.007812 C 311.296875 197.890625 314.640625 197.890625 314.640625 197.890625 C 314.640625 197.890625 299.4375 228.496094 288.589844 225.527344 C 277.714844 222.574219 255.980469 182.835938 255.980469 182.835938 C 243.148438 172.734375 267.832031 165.28125 267.832031 165.28125 C 267.832031 165.28125 275.738281 158.378906 263.878906 150.472656 C 252.027344 142.574219 243.148438 159.355469 235.25 157.378906 C 227.351562 155.402344 225.367188 163.300781 222.894531 171.207031 C 220.421875 179.105469 213.214844 183.835938 211.539062 171.207031 C 209.839844 158.574219 191.785156 166.285156 185.863281 166.285156 C 179.933594 166.285156 168.082031 187.007812 157.199219 187.007812 C 146.347656 187.007812 146.347656 172.207031 148.324219 165.28125 C 150.300781 158.378906 167.082031 151.449219 182.886719 150.472656 C 198.6875 149.480469 183.886719 135.644531 188.8125 132.96875 C 193.761719 130.269531 208.570312 134.667969 222.894531 140.597656 C 237.199219 146.527344 252.027344 132.695312 264.878906 132.96875 C 277.714844 133.246094 237.226562 122.820312 250.050781 112.9375 C 262.910156 103.0625 235.25 94.164062 236.222656 83.304688 C 237.226562 72.429688 228.320312 59.597656 228.320312 47.746094 C 228.320312 43.972656 232.523438 41.515625 239.699219 40.597656 C 266.058594 49.949219 289.109375 66.203125 306.765625 87.15625 C 329.628906 114.269531 343.375 149.277344 343.375 187.488281 " fill-opacity="1" fill-rule="nonzero"/></g><path fill="#03a8e8" d="M 122.707031 134.792969 C 122.707031 134.792969 128.433594 141.554688 132.847656 134.792969 C 137.265625 128.023438 137.890625 122.628906 135.128906 122.144531 C 132.355469 121.644531 115.921875 131.976562 122.707031 134.792969 " fill-opacity="1" fill-rule="nonzero"/><path fill="#03a8e8" d="M 89.351562 134.792969 C 89.351562 134.792969 101.121094 131.785156 103.738281 125.898438 C 106.359375 120.007812 121.402344 122.628906 125.324219 116.738281 C 129.25 110.851562 139.40625 108.75 141.855469 103.257812 C 144.292969 97.773438 146.949219 89.273438 136.792969 88.609375 C 126.636719 87.957031 116.621094 83.386719 116.722656 88.609375 C 116.824219 93.851562 114.207031 92.535156 105.050781 95.808594 C 95.894531 99.078125 86.082031 94.359375 86.082031 103.257812 C 86.082031 112.164062 88.699219 122.117188 88.699219 122.117188 C 88.699219 122.117188 83.464844 129.300781 89.351562 134.792969 " fill-opacity="1" fill-rule="nonzero"/><path fill="#03a8e8" d="M 164.878906 33.242188 C 164.878906 33.242188 147.347656 56.652344 144.097656 57.277344 C 140.824219 57.898438 130.796875 64.769531 128.945312 71.65625 C 127.070312 78.539062 113.9375 82.90625 103.941406 78.539062 C 93.9375 74.15625 91.632812 69.332031 97.140625 60.5 L 97.164062 60.476562 C 99.914062 58.53125 102.738281 56.628906 105.640625 54.851562 C 123.347656 43.898438 143.398438 36.367188 164.878906 33.242188 " fill-opacity="1" fill-rule="nonzero"/><path fill="#03a8e8" d="M 66.632812 125.21875 C 64.972656 130.21875 65.378906 136.050781 59.976562 137.792969 C 54.546875 139.550781 56.628906 146.046875 52.878906 154.375 C 49.5 161.882812 35.023438 173.082031 32.121094 175.261719 C 34.746094 141.070312 48.425781 109.984375 69.582031 85.558594 C 71.78125 92.234375 70.925781 103.257812 72.878906 106.863281 C 75.804688 112.285156 68.300781 120.214844 66.632812 125.21875 " fill-opacity="1" fill-rule="nonzero"/></svg>