<svg xmlns="http://www.w3.org/2000/svg" xmlns:xlink="http://www.w3.org/1999/xlink" width="500" zoomAndPan="magnify" viewBox="0 0 375 374.999991" height="500" preserveAspectRatio="xMidYMid meet" version="1.0"><defs><clipPath id="5372223758"><path d="M 31.636719 31.636719 L 343.636719 31.636719 L 343.636719 343.636719 L 31.636719 343.636719 Z M 31.636719 31.636719 " clip-rule="nonzero"/></clipPath><clipPath id="ec9601a0af"><path d="M 147 40 L 343.636719 40 L 343.636719 226 L 147 226 Z M 147 40 " clip-rule="nonzero"/></clipPath><clipPath id="e4ba6b5473"><path d="M 79.734375 83.308594 L 182.613281 83.308594 L 182.613281 145.570312 L 79.734375 145.570312 Z M 79.734375 83.308594 " clip-rule="nonzero"/></clipPath><clipPath id="21aba6b8d4"><path d="M 154.339844 83.308594 C 169.871094 83.308594 182.464844 97.246094 182.464844 114.441406 C 182.464844 131.632812 169.871094 145.570312 154.339844 145.570312 L 107.859375 145.570312 C 92.328125 145.570312 79.734375 131.632812 79.734375 114.441406 C 79.734375 97.246094 92.328125 83.308594 107.859375 83.308594 Z M 154.339844 83.308594 " clip-rule="nonzero"/></clipPath><clipPath id="80bc8f6a97"><path d="M 111.277344 119.226562 L 250.832031 119.226562 L 250.832031 179.988281 L 111.277344 179.988281 Z M 111.277344 119.226562 " clip-rule="nonzero"/></clipPath><clipPath id="18d971559f"><path d="M 222.707031 119.226562 C 238.238281 119.226562 250.832031 132.828125 250.832031 149.605469 C 250.832031 166.386719 238.238281 179.988281 222.707031 179.988281 L 139.402344 179.988281 C 123.867188 179.988281 111.277344 166.386719 111.277344 149.605469 C 111.277344 132.828125 123.867188 119.226562 139.402344 119.226562 Z M 222.707031 119.226562 " clip-rule="nonzero"/></clipPath><clipPath id="214ebbeef3"><path d="M 93.351562 127.492188 L 181.167969 127.492188 L 181.167969 188.25 L 93.351562 188.25 Z M 93.351562 127.492188 " clip-rule="nonzero"/></clipPath><clipPath id="18ae8addd0"><path d="M 152.929688 127.492188 C 168.460938 127.492188 181.054688 141.09375 181.054688 157.871094 C 181.054688 174.648438 168.460938 188.25 152.929688 188.25 L 121.476562 188.25 C 105.945312 188.25 93.351562 174.648438 93.351562 157.871094 C 93.351562 141.09375 105.945312 127.492188 121.476562 127.492188 Z M 152.929688 127.492188 " clip-rule="nonzero"/></clipPath><clipPath id="b03a94a706"><path d="M 163.128906 259.730469 L 250.839844 259.730469 L 250.839844 331.011719 L 163.128906 331.011719 Z M 163.128906 259.730469 " clip-rule="nonzero"/></clipPath><clipPath id="8a8ca9d0fd"><path d="M 222.707031 259.730469 C 238.238281 259.730469 250.832031 275.6875 250.832031 295.371094 C 250.832031 315.054688 238.238281 331.011719 222.707031 331.011719 L 191.253906 331.011719 C 175.722656 331.011719 163.128906 315.054688 163.128906 295.371094 C 163.128906 275.6875 175.722656 259.730469 191.253906 259.730469 Z M 222.707031 259.730469 " clip-rule="nonzero"/></clipPath><clipPath id="97ab79bc01"><path d="M 223.316406 237.050781 L 301.914062 237.050781 L 301.914062 300.925781 L 223.316406 300.925781 Z M 223.316406 237.050781 " clip-rule="nonzero"/></clipPath><clipPath id="096e441eb2"><path d="M 276.703125 237.050781 C 290.625 237.050781 301.910156 251.351562 301.910156 268.988281 C 301.910156 286.628906 290.625 300.925781 276.703125 300.925781 L 248.519531 300.925781 C 234.601562 300.925781 223.316406 286.628906 223.316406 268.988281 C 223.316406 251.351562 234.601562 237.050781 248.519531 237.050781 Z M 276.703125 237.050781 " clip-rule="nonzero"/></clipPath><clipPath id="7ea24a5dbf"><path d="M 192.414062 56.210938 L 262.613281 56.210938 L 262.613281 127.507812 L 192.414062 127.507812 Z M 192.414062 56.210938 " clip-rule="nonzero"/></clipPath><clipPath id="03e2fcf0e0"><path d="M 234.488281 56.210938 C 250.019531 56.210938 262.613281 72.167969 262.613281 91.851562 C 262.613281 111.535156 250.019531 127.492188 234.488281 127.492188 L 220.539062 127.492188 C 205.007812 127.492188 192.414062 111.535156 192.414062 91.851562 C 192.414062 72.167969 205.007812 56.210938 220.539062 56.210938 Z M 234.488281 56.210938 " clip-rule="nonzero"/></clipPath><clipPath id="cce1d6ee78"><path d="M 173.34375 39.75 L 261.050781 39.75 L 261.050781 111.03125 L 173.34375 111.03125 Z M 173.34375 39.75 " clip-rule="nonzero"/></clipPath><clipPath id="3ee23933d4"><path d="M 232.917969 39.75 C 248.453125 39.75 261.042969 55.707031 261.042969 75.390625 C 261.042969 95.074219 248.453125 111.03125 232.917969 111.03125 L 201.46875 111.03125 C 185.9375 111.03125 173.34375 95.074219 173.34375 75.390625 C 173.34375 55.707031 185.9375 39.75 201.46875 39.75 Z M 232.917969 39.75 " clip-rule="nonzero"/></clipPath><clipPath id="68be8cec0f"><path d="M 174.914062 47.949219 L 262.621094 47.949219 L 262.621094 119.226562 L 174.914062 119.226562 Z M 174.914062 47.949219 " clip-rule="nonzero"/></clipPath><clipPath id="91c6138226"><path d="M 234.488281 47.949219 C 250.019531 47.949219 262.613281 63.902344 262.613281 83.585938 C 262.613281 103.269531 250.019531 119.226562 234.488281 119.226562 L 203.039062 119.226562 C 187.503906 119.226562 174.914062 103.269531 174.914062 83.585938 C 174.914062 63.902344 187.503906 47.949219 203.039062 47.949219 Z M 234.488281 47.949219 " clip-rule="nonzero"/></clipPath><clipPath id="ab71b0a9e4"><path d="M 174.914062 66.6875 L 262.621094 66.6875 L 262.621094 137.96875 L 174.914062 137.96875 Z M 174.914062 66.6875 " clip-rule="nonzero"/></clipPath><clipPath id="2131359dfe"><path d="M 234.488281 66.6875 C 250.019531 66.6875 262.613281 82.644531 262.613281 102.328125 C 262.613281 122.011719 250.019531 137.96875 234.488281 137.96875 L 203.039062 137.96875 C 187.503906 137.96875 174.914062 122.011719 174.914062 102.328125 C 174.914062 82.644531 187.503906 66.6875 203.039062 66.6875 Z M 234.488281 66.6875 " clip-rule="nonzero"/></clipPath><clipPath id="cf22642807"><path d="M 169.59375 78.6875 L 257.300781 78.6875 L 257.300781 149.96875 L 169.59375 149.96875 Z M 169.59375 78.6875 " clip-rule="nonzero"/></clipPath><clipPath id="fdda073f28"><path d="M 229.167969 78.6875 C 244.703125 78.6875 257.292969 94.644531 257.292969 114.328125 C 257.292969 134.011719 244.703125 149.96875 229.167969 149.96875 L 197.71875 149.96875 C 182.1875 149.96875 169.59375 134.011719 169.59375 114.328125 C 169.59375 94.644531 182.1875 78.6875 197.71875 78.6875 Z M 229.167969 78.6875 " clip-rule="nonzero"/></clipPath><clipPath id="204eda8e72"><path d="M 181.054688 91.851562 L 268.761719 91.851562 L 268.761719 163.132812 L 181.054688 163.132812 Z M 181.054688 91.851562 " clip-rule="nonzero"/></clipPath><clipPath id="55dba18441"><path d="M 240.628906 91.851562 C 256.160156 91.851562 268.753906 107.808594 268.753906 127.492188 C 268.753906 147.175781 256.160156 163.132812 240.628906 163.132812 L 209.179688 163.132812 C 193.644531 163.132812 181.054688 147.175781 181.054688 127.492188 C 181.054688 107.808594 193.644531 91.851562 209.179688 91.851562 Z M 240.628906 91.851562 " clip-rule="nonzero"/></clipPath><clipPath id="c2ee417f2c"><path d="M 174.914062 83.308594 L 262.621094 83.308594 L 262.621094 154.589844 L 174.914062 154.589844 Z M 174.914062 83.308594 " clip-rule="nonzero"/></clipPath><clipPath id="197b8954b7"><path d="M 234.488281 83.308594 C 250.019531 83.308594 262.613281 99.265625 262.613281 118.949219 C 262.613281 138.632812 250.019531 154.589844 234.488281 154.589844 L 203.039062 154.589844 C 187.503906 154.589844 174.914062 138.632812 174.914062 118.949219 C 174.914062 99.265625 187.503906 83.308594 203.039062 83.308594 Z M 234.488281 83.308594 " clip-rule="nonzero"/></clipPath><clipPath id="3d312ed6c1"><path d="M 181.054688 108.707031 L 268.761719 108.707031 L 268.761719 179.988281 L 181.054688 179.988281 Z M 181.054688 108.707031 " clip-rule="nonzero"/></clipPath><clipPath id="250999ab6c"><path d="M 240.628906 108.707031 C 256.160156 108.707031 268.753906 124.664062 268.753906 144.347656 C 268.753906 164.03125 256.160156 179.988281 240.628906 179.988281 L 209.179688 179.988281 C 193.644531 179.988281 181.054688 164.03125 181.054688 144.347656 C 181.054688 124.664062 193.644531 108.707031 209.179688 108.707031 Z M 240.628906 108.707031 " clip-rule="nonzero"/></clipPath><clipPath id="47f56eef22"><path d="M 238 151 L 306 151 L 306 238 L 238 238 Z M 238 151 " clip-rule="nonzero"/></clipPath><clipPath id="9e534f3630"><path d="M 266.820312 142.652344 L 315.121094 224.371094 L 277.222656 246.773438 L 228.921875 165.054688 Z M 266.820312 142.652344 " clip-rule="nonzero"/></clipPath><clipPath id="a20f00da5b"><path d="M 299.617188 198.140625 C 308.167969 212.609375 306.617188 229.351562 296.152344 235.535156 C 285.6875 241.722656 270.269531 235.007812 261.71875 220.542969 L 244.402344 191.25 C 235.851562 176.78125 237.40625 160.039062 247.871094 153.851562 C 258.335938 147.667969 273.75 154.378906 282.304688 168.847656 Z M 299.617188 198.140625 " clip-rule="nonzero"/></clipPath><clipPath id="ea4bdac75e"><path d="M 116 268 L 172 268 L 172 335 L 116 335 Z M 116 268 " clip-rule="nonzero"/></clipPath><clipPath id="e6b0cc3eec"><path d="M 144.855469 259.730469 L 181.085938 321.019531 L 143.1875 343.421875 L 106.957031 282.132812 Z M 144.855469 259.730469 " clip-rule="nonzero"/></clipPath><clipPath id="b7e005c07f"><path d="M 165.566406 294.765625 C 174.117188 309.230469 172.566406 325.976562 162.101562 332.160156 C 151.632812 338.347656 136.21875 331.632812 127.667969 317.167969 L 122.441406 308.328125 C 113.890625 293.859375 115.441406 277.117188 125.90625 270.933594 C 136.375 264.746094 151.789062 271.460938 160.339844 285.925781 Z M 165.566406 294.765625 " clip-rule="nonzero"/></clipPath><clipPath id="285ce55d3b"><path d="M 141.832031 179.988281 L 280.128906 179.988281 L 280.128906 292.378906 L 141.832031 292.378906 Z M 141.832031 179.988281 " clip-rule="nonzero"/></clipPath><clipPath id="e3440a1655"><path d="M 235.769531 179.988281 C 260.261719 179.988281 280.117188 205.148438 280.117188 236.183594 C 280.117188 267.21875 260.261719 292.378906 235.769531 292.378906 L 186.179688 292.378906 C 161.6875 292.378906 141.832031 267.21875 141.832031 236.183594 C 141.832031 205.148438 161.6875 179.988281 186.179688 179.988281 Z M 235.769531 179.988281 " clip-rule="nonzero"/></clipPath><clipPath id="0736f6f3aa"><path d="M 154 157 L 231.941406 157 L 231.941406 219 L 154 219 Z M 154 157 " clip-rule="nonzero"/></clipPath><clipPath id="2951e2b945"><path d="M 204 66 L 300 66 L 300 163 L 204 163 Z M 204 66 " clip-rule="nonzero"/></clipPath><clipPath id="144576cf16"><path d="M 263.980469 52.335938 L 312.402344 134.253906 L 240.828125 176.558594 L 192.410156 94.640625 Z M 263.980469 52.335938 " clip-rule="nonzero"/></clipPath><clipPath id="9f0ce30cfd"><path d="M 296.78125 107.824219 C 305.332031 122.292969 296.242188 143.488281 276.476562 155.171875 C 256.710938 166.855469 233.757812 164.597656 225.207031 150.128906 L 207.890625 120.835938 C 199.339844 106.371094 208.429688 85.171875 228.195312 73.488281 C 247.960938 61.808594 270.914062 64.0625 279.464844 78.53125 Z M 296.78125 107.824219 " clip-rule="nonzero"/></clipPath><clipPath id="b6f7b19920"><path d="M 241 132 L 337 132 L 337 230 L 241 230 Z M 241 132 " clip-rule="nonzero"/></clipPath><clipPath id="864e3f9b86"><path d="M 300.492188 119.230469 L 348.914062 201.148438 L 277.339844 243.453125 L 228.921875 161.535156 Z M 300.492188 119.230469 " clip-rule="nonzero"/></clipPath><clipPath id="9203e26f51"><path d="M 333.292969 174.71875 C 341.84375 189.183594 332.753906 210.382812 312.988281 222.066406 C 293.222656 233.75 270.269531 231.492188 261.71875 217.023438 L 244.402344 187.730469 C 235.851562 173.265625 244.941406 152.066406 264.707031 140.382812 C 284.472656 128.699219 307.425781 130.957031 315.976562 145.425781 Z M 333.292969 174.71875 " clip-rule="nonzero"/></clipPath><clipPath id="984ceed81c"><path d="M 239 95 L 331 95 L 331 182 L 239 182 Z M 239 95 " clip-rule="nonzero"/></clipPath><clipPath id="9fa1f93e50"><path d="M 295.765625 91.847656 L 337.328125 169.132812 L 275.238281 202.523438 L 233.675781 125.242188 Z M 295.765625 91.847656 " clip-rule="nonzero"/></clipPath><clipPath id="4509e2a7d8"><path d="M 295.765625 91.847656 L 337.328125 169.132812 L 275.238281 202.523438 L 233.675781 125.242188 Z M 295.765625 91.847656 " clip-rule="nonzero"/></clipPath><clipPath id="552d8ee47d"><path d="M 34 157 L 163 157 L 163 323 L 34 323 Z M 34 157 " clip-rule="nonzero"/></clipPath><clipPath id="c5956e3c4a"><path d="M 9.191406 203.824219 L 97.539062 135.394531 L 200.414062 268.214844 L 112.0625 336.644531 Z M 9.191406 203.824219 " clip-rule="nonzero"/></clipPath><clipPath id="3e4d0a4e77"><path d="M 9.191406 203.824219 L 97.539062 135.394531 L 200.414062 268.214844 L 112.0625 336.644531 Z M 9.191406 203.824219 " clip-rule="nonzero"/></clipPath><clipPath id="acb2a737db"><path d="M 94.753906 260.441406 L 173.351562 260.441406 L 173.351562 324.320312 L 94.753906 324.320312 Z M 94.753906 260.441406 " clip-rule="nonzero"/></clipPath><clipPath id="1b813f03a3"><path d="M 148.140625 260.441406 C 162.058594 260.441406 173.34375 274.742188 173.34375 292.378906 C 173.34375 310.019531 162.058594 324.320312 148.140625 324.320312 L 119.957031 324.320312 C 106.035156 324.320312 94.753906 310.019531 94.753906 292.378906 C 94.753906 274.742188 106.035156 260.441406 119.957031 260.441406 Z M 148.140625 260.441406 " clip-rule="nonzero"/></clipPath></defs><g clip-path="url(#5372223758)"><path fill="#03a8e8" d="M 343.65625 187.628906 C 343.65625 187.996094 343.65625 188.402344 343.632812 188.777344 C 343.585938 196.460938 342.980469 204.019531 341.828125 211.40625 C 336.398438 247.097656 318.878906 278.78125 293.574219 302.164062 L 293.550781 302.164062 C 265.71875 327.914062 228.496094 343.65625 187.628906 343.65625 C 167.628906 343.65625 148.503906 339.90625 130.960938 333.019531 C 128.785156 332.195312 126.628906 331.292969 124.496094 330.347656 C 94.816406 317.199219 70.035156 295.078125 53.542969 267.394531 C 45.261719 253.480469 39.050781 238.160156 35.394531 221.894531 C 32.917969 210.855469 31.617188 199.386719 31.617188 187.628906 C 31.617188 183.5 31.769531 179.414062 32.121094 175.390625 C 34.75 141.167969 48.441406 110.054688 69.617188 85.605469 C 77.769531 76.191406 87.03125 67.757812 97.199219 60.527344 L 97.222656 60.5 C 99.976562 58.554688 102.800781 56.648438 105.707031 54.875 C 123.429688 43.910156 143.496094 36.371094 164.996094 33.246094 C 172.382812 32.164062 179.945312 31.617188 187.628906 31.617188 C 205.945312 31.617188 223.5625 34.792969 239.886719 40.605469 C 266.269531 49.964844 289.34375 66.234375 307.015625 87.203125 C 329.898438 114.34375 343.65625 149.382812 343.65625 187.628906 " fill-opacity="1" fill-rule="nonzero"/></g><path fill="#70c573" d="M 208.472656 309.730469 C 208.472656 309.730469 199.976562 297.882812 200.921875 277.566406 C 201.863281 257.25 199.976562 253.867188 186.769531 249.632812 C 173.5625 245.402344 160.347656 237.777344 158.460938 227.625 C 156.574219 217.464844 167.898438 193.765625 167.898438 193.765625 C 167.898438 193.765625 182.996094 183.609375 196.203125 185.300781 C 209.410156 186.996094 232.058594 186.996094 242.433594 196.308594 C 252.816406 205.613281 259.414062 226.777344 264.132812 227.625 C 268.851562 228.472656 257.527344 264.867188 255.640625 270.796875 C 253.757812 276.71875 248.097656 300.425781 243.382812 309.730469 C 238.664062 319.042969 233.945312 327.507812 230.167969 327.507812 C 226.394531 327.507812 209.410156 329.203125 208.472656 309.730469 " fill-opacity="1" fill-rule="nonzero"/><path fill="#70c573" d="M 135.160156 307.796875 C 134.339844 311.792969 132.863281 322.433594 130.960938 333.019531 C 128.785156 332.195312 126.628906 331.292969 124.496094 330.347656 C 94.816406 317.199219 70.035156 295.078125 53.542969 267.394531 C 45.261719 253.480469 39.050781 238.160156 35.394531 221.894531 C 41.152344 218.835938 48.363281 216.082031 55.445312 216.210938 C 70.960938 216.511719 72.917969 220.328125 86.128906 229.804688 C 99.316406 239.296875 109.65625 262.972656 115.242188 263.375 C 120.816406 263.75 136.59375 300.683594 135.160156 307.796875 " fill-opacity="1" fill-rule="nonzero"/><g clip-path="url(#ec9601a0af)"><path fill="#70c573" d="M 343.65625 187.628906 C 343.65625 187.996094 343.65625 188.402344 343.632812 188.777344 C 343.585938 196.460938 342.980469 204.019531 341.828125 211.40625 C 334.824219 201.117188 327.261719 185.675781 323.410156 182.972656 C 317.476562 178.789062 295.730469 176.289062 303.636719 187.148438 C 311.550781 198.039062 314.898438 198.039062 314.898438 198.039062 C 314.898438 198.039062 299.679688 228.675781 288.820312 225.703125 C 277.933594 222.746094 256.183594 182.972656 256.183594 182.972656 C 243.339844 172.859375 268.046875 165.402344 268.046875 165.402344 C 268.046875 165.402344 275.957031 158.492188 264.089844 150.582031 C 252.226562 142.675781 243.339844 159.46875 235.433594 157.492188 C 227.527344 155.511719 225.542969 163.417969 223.066406 171.332031 C 220.589844 179.238281 213.378906 183.972656 211.703125 171.332031 C 210 158.6875 191.929688 166.40625 186 166.40625 C 180.066406 166.40625 168.203125 187.148438 157.3125 187.148438 C 146.453125 187.148438 146.453125 172.332031 148.429688 165.402344 C 150.410156 158.492188 167.203125 151.558594 183.019531 150.582031 C 198.839844 149.585938 184.023438 135.738281 188.957031 133.0625 C 193.90625 130.359375 208.730469 134.761719 223.066406 140.695312 C 237.386719 146.628906 252.226562 132.785156 265.089844 133.0625 C 277.933594 133.335938 237.410156 122.902344 250.25 113.011719 C 263.117188 103.125 235.433594 94.21875 236.410156 83.351562 C 237.410156 72.46875 228.496094 59.621094 228.496094 47.761719 C 228.496094 43.984375 232.703125 41.527344 239.886719 40.605469 C 266.269531 49.964844 289.34375 66.234375 307.015625 87.203125 C 329.898438 114.34375 343.65625 149.382812 343.65625 187.628906 " fill-opacity="1" fill-rule="nonzero"/></g><path fill="#70c573" d="M 122.789062 134.886719 C 122.789062 134.886719 128.523438 141.65625 132.9375 134.886719 C 137.359375 128.109375 137.988281 122.710938 135.222656 122.226562 C 132.445312 121.726562 115.996094 132.066406 122.789062 134.886719 " fill-opacity="1" fill-rule="nonzero"/><path fill="#70c573" d="M 89.402344 134.886719 C 89.402344 134.886719 101.1875 131.875 103.800781 125.984375 C 106.425781 120.085938 121.480469 122.710938 125.40625 116.8125 C 129.339844 110.921875 139.503906 108.820312 141.957031 103.324219 C 144.394531 97.832031 147.054688 89.324219 136.886719 88.660156 C 126.722656 88.007812 116.695312 83.433594 116.800781 88.660156 C 116.898438 93.90625 114.28125 92.589844 105.117188 95.867188 C 95.953125 99.140625 86.128906 94.417969 86.128906 103.324219 C 86.128906 112.238281 88.753906 122.199219 88.753906 122.199219 C 88.753906 122.199219 83.511719 129.386719 89.402344 134.886719 " fill-opacity="1" fill-rule="nonzero"/><path fill="#70c573" d="M 164.996094 33.246094 C 164.996094 33.246094 147.453125 56.675781 144.199219 57.300781 C 140.925781 57.921875 130.886719 64.800781 129.03125 71.695312 C 127.15625 78.578125 114.011719 82.953125 104.003906 78.578125 C 93.992188 74.195312 91.6875 69.367188 97.199219 60.527344 L 97.222656 60.5 C 99.976562 58.554688 102.800781 56.648438 105.707031 54.875 C 123.429688 43.910156 143.496094 36.371094 164.996094 33.246094 " fill-opacity="1" fill-rule="nonzero"/><path fill="#70c573" d="M 66.664062 125.300781 C 65.003906 130.308594 65.410156 136.144531 60.003906 137.890625 C 54.566406 139.644531 56.648438 146.152344 52.894531 154.488281 C 49.519531 162 35.027344 173.210938 32.121094 175.390625 C 34.75 141.167969 48.441406 110.054688 69.617188 85.605469 C 71.816406 92.289062 70.960938 103.324219 72.917969 106.929688 C 75.847656 112.359375 68.332031 120.296875 66.664062 125.300781 " fill-opacity="1" fill-rule="nonzero"/><g clip-path="url(#e4ba6b5473)"><g clip-path="url(#21aba6b8d4)"><path fill="#03a8e8" d="M 79.734375 83.308594 L 182.371094 83.308594 L 182.371094 145.570312 L 79.734375 145.570312 Z M 79.734375 83.308594 " fill-opacity="1" fill-rule="nonzero"/></g></g><g clip-path="url(#80bc8f6a97)"><g clip-path="url(#18d971559f)"><path fill="#03a8e8" d="M 111.277344 119.226562 L 250.832031 119.226562 L 250.832031 179.988281 L 111.277344 179.988281 Z M 111.277344 119.226562 " fill-opacity="1" fill-rule="nonzero"/></g></g><g clip-path="url(#214ebbeef3)"><g clip-path="url(#18ae8addd0)"><path fill="#03a8e8" d="M 93.351562 127.492188 L 181.167969 127.492188 L 181.167969 188.25 L 93.351562 188.25 Z M 93.351562 127.492188 " fill-opacity="1" fill-rule="nonzero"/></g></g><g clip-path="url(#b03a94a706)"><g clip-path="url(#8a8ca9d0fd)"><path fill="#03a8e8" d="M 163.128906 259.730469 L 250.839844 259.730469 L 250.839844 331.011719 L 163.128906 331.011719 Z M 163.128906 259.730469 " fill-opacity="1" fill-rule="nonzero"/></g></g><g clip-path="url(#97ab79bc01)"><g clip-path="url(#096e441eb2)"><path fill="#03a8e8" d="M 223.316406 237.050781 L 301.914062 237.050781 L 301.914062 300.925781 L 223.316406 300.925781 Z M 223.316406 237.050781 " fill-opacity="1" fill-rule="nonzero"/></g></g><g clip-path="url(#7ea24a5dbf)"><g clip-path="url(#03e2fcf0e0)"><path fill="#03a8e8" d="M 192.414062 56.210938 L 262.613281 56.210938 L 262.613281 127.507812 L 192.414062 127.507812 Z M 192.414062 56.210938 " fill-opacity="1" fill-rule="nonzero"/></g></g><g clip-path="url(#cce1d6ee78)"><g clip-path="url(#3ee23933d4)"><path fill="#03a8e8" d="M 173.34375 39.75 L 261.050781 39.75 L 261.050781 111.03125 L 173.34375 111.03125 Z M 173.34375 39.75 " fill-opacity="1" fill-rule="nonzero"/></g></g><g clip-path="url(#68be8cec0f)"><g clip-path="url(#91c6138226)"><path fill="#03a8e8" d="M 174.914062 47.949219 L 262.621094 47.949219 L 262.621094 119.226562 L 174.914062 119.226562 Z M 174.914062 47.949219 " fill-opacity="1" fill-rule="nonzero"/></g></g><g clip-path="url(#ab71b0a9e4)"><g clip-path="url(#2131359dfe)"><path fill="#03a8e8" d="M 174.914062 66.6875 L 262.621094 66.6875 L 262.621094 137.96875 L 174.914062 137.96875 Z M 174.914062 66.6875 " fill-opacity="1" fill-rule="nonzero"/></g></g><g clip-path="url(#cf22642807)"><g clip-path="url(#fdda073f28)"><path fill="#03a8e8" d="M 169.59375 78.6875 L 257.300781 78.6875 L 257.300781 149.96875 L 169.59375 149.96875 Z M 169.59375 78.6875 " fill-opacity="1" fill-rule="nonzero"/></g></g><g clip-path="url(#204eda8e72)"><g clip-path="url(#55dba18441)"><path fill="#03a8e8" d="M 181.054688 91.851562 L 268.761719 91.851562 L 268.761719 163.132812 L 181.054688 163.132812 Z M 181.054688 91.851562 " fill-opacity="1" fill-rule="nonzero"/></g></g><g clip-path="url(#c2ee417f2c)"><g clip-path="url(#197b8954b7)"><path fill="#03a8e8" d="M 174.914062 83.308594 L 262.621094 83.308594 L 262.621094 154.589844 L 174.914062 154.589844 Z M 174.914062 83.308594 " fill-opacity="1" fill-rule="nonzero"/></g></g><g clip-path="url(#3d312ed6c1)"><g clip-path="url(#250999ab6c)"><path fill="#03a8e8" d="M 181.054688 108.707031 L 268.761719 108.707031 L 268.761719 179.988281 L 181.054688 179.988281 Z M 181.054688 108.707031 " fill-opacity="1" fill-rule="nonzero"/></g></g><g clip-path="url(#47f56eef22)"><g clip-path="url(#9e534f3630)"><g clip-path="url(#a20f00da5b)"><path fill="#03a8e8" d="M 266.820312 142.652344 L 315.121094 224.371094 L 277.222656 246.773438 L 228.921875 165.054688 Z M 266.820312 142.652344 " fill-opacity="1" fill-rule="nonzero"/></g></g></g><g clip-path="url(#ea4bdac75e)"><g clip-path="url(#e6b0cc3eec)"><g clip-path="url(#b7e005c07f)"><path fill="#03a8e8" d="M 144.855469 259.730469 L 181.085938 321.019531 L 143.1875 343.421875 L 106.957031 282.132812 Z M 144.855469 259.730469 " fill-opacity="1" fill-rule="nonzero"/></g></g></g><g clip-path="url(#285ce55d3b)"><g clip-path="url(#e3440a1655)"><path fill="#03a8e8" d="M 141.832031 179.988281 L 280.128906 179.988281 L 280.128906 292.378906 L 141.832031 292.378906 Z M 141.832031 179.988281 " fill-opacity="1" fill-rule="nonzero"/></g></g><g clip-path="url(#0736f6f3aa)"><path fill="#70c573" d="M 203.605469 216.476562 C 198.886719 213.878906 193.84375 214.15625 188.457031 215.105469 C 183.410156 216.066406 178.53125 216.738281 173.304688 216.882812 C 167.25 217.015625 161.683594 215.25 160.179688 210.191406 C 158.824219 205.960938 160.6875 202.941406 161.355469 198.992188 C 162.367188 193.246094 157.144531 189.425781 155.117188 184.234375 C 153.273438 179.859375 153.765625 176.722656 157.304688 173.035156 C 161.191406 168.789062 167.753906 165.785156 174.15625 165.359375 C 181.222656 164.953125 186.449219 164.265625 193.011719 161.539062 C 197.386719 159.761719 201.417969 156.480469 206.804688 158.40625 C 217.417969 162.226562 226.003906 171.382812 227.6875 180.804688 C 228.355469 185.03125 228.191406 189.277344 229.203125 193.652344 C 230.054688 197.34375 231.554688 200.625 231.230469 204.589844 C 230.886719 208.964844 227.867188 214.566406 223.3125 217.160156 C 219.769531 219.070312 206.984375 220.019531 203.605469 216.476562 " fill-opacity="1" fill-rule="nonzero"/></g><g clip-path="url(#2951e2b945)"><g clip-path="url(#144576cf16)"><g clip-path="url(#9f0ce30cfd)"><path fill="#03a8e8" d="M 263.980469 52.335938 L 312.238281 133.972656 L 240.664062 176.28125 L 192.410156 94.640625 Z M 263.980469 52.335938 " fill-opacity="1" fill-rule="nonzero"/></g></g></g><g clip-path="url(#b6f7b19920)"><g clip-path="url(#864e3f9b86)"><g clip-path="url(#9203e26f51)"><path fill="#03a8e8" d="M 300.492188 119.230469 L 348.75 200.867188 L 277.175781 243.175781 L 228.921875 161.535156 Z M 300.492188 119.230469 " fill-opacity="1" fill-rule="nonzero"/></g></g></g><g clip-path="url(#984ceed81c)"><g clip-path="url(#9fa1f93e50)"><g clip-path="url(#4509e2a7d8)"><path fill="#03a8e8" d="M 313.230469 179.429688 C 307.4375 180.222656 301.4375 180.078125 295.589844 180.378906 C 292.707031 180.578125 289.742188 181.222656 286.820312 180.960938 C 282.441406 180.578125 277.378906 178.769531 273.675781 175.804688 C 269.082031 172.121094 268.503906 166.972656 266.339844 161.855469 C 264.820312 158.246094 262.605469 154.671875 260.035156 151.734375 C 257.9375 149.363281 255.078125 147.929688 252.460938 146.46875 C 249.757812 144.972656 247.1875 143.214844 244.847656 141.097656 C 239.070312 135.921875 236.5 127.101562 242.308594 121.953125 C 245.765625 118.894531 250.007812 117.730469 254.570312 117.195312 C 258.898438 116.703125 264.058594 117.085938 267.75 114.660156 C 269.460938 113.527344 270.894531 112 272.242188 110.429688 C 276.609375 105.34375 280.503906 100.085938 286.457031 96.882812 C 293.195312 93.617188 298.480469 97.058594 302.308594 104.019531 C 306.214844 111.59375 305.589844 120.152344 307.929688 128.105469 C 309.585938 134.402344 313.128906 140.167969 317.589844 144.851562 C 321.75 149.613281 327.097656 153.671875 329.625 159.710938 C 331.566406 164.378906 330.09375 169.472656 327.191406 172.742188 C 323.667969 176.847656 318.515625 178.796875 313.230469 179.429688 Z M 313.230469 179.429688 " fill-opacity="1" fill-rule="nonzero"/></g></g></g><g clip-path="url(#552d8ee47d)"><g clip-path="url(#c5956e3c4a)"><g clip-path="url(#3e4d0a4e77)"><path fill="#03a8e8" d="M 105.941406 162.96875 C 97.550781 158.585938 88.285156 156.640625 78.449219 158.265625 C 69.679688 159.714844 61.140625 163.71875 54.074219 169.339844 C 38.828125 181.480469 32.242188 200.574219 34.804688 218.527344 C 36.109375 227.65625 39.53125 236.339844 44.84375 243.695312 C 51.363281 252.726562 60.59375 259.332031 68.792969 266.769531 C 73.011719 270.589844 76.992188 274.742188 80.046875 279.558594 C 83.007812 284.226562 84.847656 289.542969 86.792969 294.722656 C 90.402344 304.347656 94.738281 314.285156 104.460938 319.09375 C 108.785156 321.234375 113.496094 322.078125 118.257812 321.886719 C 123.148438 322.691406 128.550781 321.703125 133.144531 319.375 C 136.527344 317.667969 139.410156 315.398438 141.867188 312.738281 C 145.214844 310.144531 148.191406 307.125 150.578125 303.816406 C 163.09375 286.488281 163.839844 263.804688 161.074219 244.46875 C 159.132812 230.886719 155.269531 214.734375 146.117188 203.714844 C 145.714844 202.964844 145.3125 202.214844 144.894531 201.476562 C 135.808594 185.457031 122.523438 171.632812 105.941406 162.96875 Z M 105.941406 162.96875 " fill-opacity="1" fill-rule="nonzero"/></g></g></g><g clip-path="url(#acb2a737db)"><g clip-path="url(#1b813f03a3)"><path fill="#03a8e8" d="M 94.753906 260.441406 L 173.351562 260.441406 L 173.351562 324.320312 L 94.753906 324.320312 Z M 94.753906 260.441406 " fill-opacity="1" fill-rule="nonzero"/></g></g></svg>