<svg xmlns="http://www.w3.org/2000/svg" xmlns:xlink="http://www.w3.org/1999/xlink" width="500" zoomAndPan="magnify" viewBox="0 0 375 374.999991" height="500" preserveAspectRatio="xMidYMid meet" version="1.0"><defs><clipPath id="fbdd321f06"><path d="M 31.636719 31.636719 L 343.636719 31.636719 L 343.636719 343.636719 L 31.636719 343.636719 Z M 31.636719 31.636719 " clip-rule="nonzero"/></clipPath><clipPath id="fefd8330c0"><path d="M 147 40 L 343.636719 40 L 343.636719 226 L 147 226 Z M 147 40 " clip-rule="nonzero"/></clipPath></defs><g clip-path="url(#fbdd321f06)"><path fill="#03a8e8" d="M 343.65625 187.628906 C 343.65625 187.996094 343.65625 188.402344 343.632812 188.777344 C 343.585938 196.460938 342.980469 204.019531 341.828125 211.40625 C 336.398438 247.097656 318.878906 278.78125 293.574219 302.164062 L 293.550781 302.164062 C 265.71875 327.914062 228.496094 343.65625 187.628906 343.65625 C 167.628906 343.65625 148.503906 339.90625 130.960938 333.019531 C 128.785156 332.195312 126.628906 331.292969 124.496094 330.347656 C 94.816406 317.199219 70.035156 295.078125 53.542969 267.394531 C 45.261719 253.480469 39.050781 238.160156 35.394531 221.894531 C 32.917969 210.855469 31.617188 199.386719 31.617188 187.628906 C 31.617188 183.5 31.769531 179.414062 32.121094 175.390625 C 34.75 141.167969 48.441406 110.054688 69.617188 85.605469 C 77.769531 76.191406 87.03125 67.757812 97.199219 60.527344 L 97.222656 60.5 C 99.976562 58.554688 102.800781 56.648438 105.707031 54.875 C 123.429688 43.910156 143.496094 36.371094 164.996094 33.246094 C 172.382812 32.164062 179.945312 31.617188 187.628906 31.617188 C 205.945312 31.617188 223.5625 34.792969 239.886719 40.605469 C 266.269531 49.964844 289.34375 66.234375 307.015625 87.203125 C 329.898438 114.34375 343.65625 149.382812 343.65625 187.628906 " fill-opacity="1" fill-rule="nonzero"/></g><path fill="#70c573" d="M 208.472656 309.730469 C 208.472656 309.730469 199.976562 297.882812 200.921875 277.566406 C 201.863281 257.253906 199.976562 253.867188 186.769531 249.636719 C 173.5625 245.402344 160.347656 237.777344 158.460938 227.625 C 156.574219 217.464844 167.898438 193.765625 167.898438 193.765625 C 167.898438 193.765625 182.996094 183.609375 196.203125 185.300781 C 209.410156 186.996094 232.058594 186.996094 242.433594 196.308594 C 252.816406 205.613281 259.414062 226.777344 264.132812 227.625 C 268.851562 228.472656 257.527344 264.871094 255.640625 270.796875 C 253.757812 276.71875 248.097656 300.425781 243.382812 309.730469 C 238.664062 319.042969 233.945312 327.507812 230.167969 327.507812 C 226.394531 327.507812 209.410156 329.203125 208.472656 309.730469 " fill-opacity="1" fill-rule="nonzero"/><path fill="#70c573" d="M 135.160156 307.796875 C 134.339844 311.792969 132.863281 322.433594 130.960938 333.019531 C 128.785156 332.195312 126.628906 331.292969 124.496094 330.347656 C 94.816406 317.199219 70.035156 295.078125 53.542969 267.394531 C 45.261719 253.480469 39.050781 238.160156 35.394531 221.894531 C 41.152344 218.835938 48.363281 216.082031 55.445312 216.210938 C 70.960938 216.511719 72.917969 220.328125 86.128906 229.804688 C 99.316406 239.296875 109.65625 262.972656 115.242188 263.375 C 120.816406 263.75 136.59375 300.683594 135.160156 307.796875 " fill-opacity="1" fill-rule="nonzero"/><g clip-path="url(#fefd8330c0)"><path fill="#70c573" d="M 343.65625 187.628906 C 343.65625 187.996094 343.65625 188.402344 343.632812 188.777344 C 343.585938 196.460938 342.980469 204.019531 341.828125 211.40625 C 334.824219 201.117188 327.261719 185.675781 323.410156 182.972656 C 317.476562 178.789062 295.730469 176.289062 303.636719 187.148438 C 311.550781 198.039062 314.898438 198.039062 314.898438 198.039062 C 314.898438 198.039062 299.679688 228.675781 288.820312 225.703125 C 277.933594 222.746094 256.183594 182.972656 256.183594 182.972656 C 243.339844 172.859375 268.046875 165.402344 268.046875 165.402344 C 268.046875 165.402344 275.957031 158.492188 264.089844 150.582031 C 252.226562 142.675781 243.339844 159.46875 235.433594 157.492188 C 227.527344 155.511719 225.542969 163.417969 223.066406 171.332031 C 220.589844 179.238281 213.378906 183.972656 211.703125 171.332031 C 210 158.6875 191.929688 166.40625 186 166.40625 C 180.066406 166.40625 168.203125 187.148438 157.3125 187.148438 C 146.453125 187.148438 146.453125 172.332031 148.429688 165.402344 C 150.410156 158.492188 167.203125 151.558594 183.019531 150.582031 C 198.839844 149.585938 184.023438 135.738281 188.957031 133.0625 C 193.90625 130.359375 208.730469 134.761719 223.066406 140.695312 C 237.386719 146.628906 252.226562 132.785156 265.089844 133.0625 C 277.933594 133.335938 237.410156 122.902344 250.25 113.011719 C 263.117188 103.125 235.433594 94.21875 236.410156 83.351562 C 237.410156 72.46875 228.496094 59.621094 228.496094 47.761719 C 228.496094 43.984375 232.703125 41.527344 239.886719 40.605469 C 266.269531 49.964844 289.34375 66.234375 307.015625 87.203125 C 329.898438 114.34375 343.65625 149.382812 343.65625 187.628906 " fill-opacity="1" fill-rule="nonzero"/></g><path fill="#70c573" d="M 122.789062 134.886719 C 122.789062 134.886719 128.523438 141.65625 132.9375 134.886719 C 137.359375 128.109375 137.988281 122.710938 135.222656 122.226562 C 132.445312 121.726562 115.996094 132.066406 122.789062 134.886719 " fill-opacity="1" fill-rule="nonzero"/><path fill="#70c573" d="M 89.402344 134.886719 C 89.402344 134.886719 101.1875 131.875 103.800781 125.984375 C 106.425781 120.085938 121.480469 122.710938 125.40625 116.8125 C 129.339844 110.921875 139.503906 108.820312 141.957031 103.324219 C 144.394531 97.832031 147.054688 89.324219 136.886719 88.660156 C 126.722656 88.007812 116.695312 83.433594 116.800781 88.660156 C 116.898438 93.90625 114.28125 92.589844 105.117188 95.867188 C 95.953125 99.140625 86.128906 94.417969 86.128906 103.324219 C 86.128906 112.238281 88.753906 122.199219 88.753906 122.199219 C 88.753906 122.199219 83.511719 129.386719 89.402344 134.886719 " fill-opacity="1" fill-rule="nonzero"/><path fill="#70c573" d="M 164.996094 33.246094 C 164.996094 33.246094 147.453125 56.675781 144.199219 57.300781 C 140.925781 57.921875 130.886719 64.800781 129.03125 71.695312 C 127.15625 78.578125 114.011719 82.953125 104.003906 78.578125 C 93.992188 74.195312 91.6875 69.367188 97.199219 60.527344 L 97.222656 60.5 C 99.976562 58.554688 102.800781 56.648438 105.707031 54.875 C 123.429688 43.910156 143.496094 36.371094 164.996094 33.246094 " fill-opacity="1" fill-rule="nonzero"/><path fill="#70c573" d="M 66.664062 125.300781 C 65.003906 130.308594 65.410156 136.144531 60.003906 137.890625 C 54.566406 139.644531 56.648438 146.152344 52.894531 154.488281 C 49.519531 162 35.027344 173.210938 32.121094 175.390625 C 34.75 141.167969 48.441406 110.054688 69.617188 85.605469 C 71.816406 92.289062 70.960938 103.324219 72.917969 106.929688 C 75.847656 112.359375 68.332031 120.296875 66.664062 125.300781 " fill-opacity="1" fill-rule="nonzero"/></svg>