<svg xmlns="http://www.w3.org/2000/svg" xmlns:xlink="http://www.w3.org/1999/xlink" width="500" zoomAndPan="magnify" viewBox="0 0 375 374.999991" height="500" preserveAspectRatio="xMidYMid meet" version="1.0"><defs><clipPath id="4751ed55dc"><path d="M 31.636719 31.636719 L 343.636719 31.636719 L 343.636719 343.636719 L 31.636719 343.636719 Z M 31.636719 31.636719 " clip-rule="nonzero"/></clipPath><clipPath id="f84953b3b7"><path d="M 147 40 L 343.636719 40 L 343.636719 226 L 147 226 Z M 147 40 " clip-rule="nonzero"/></clipPath><clipPath id="a5ce661586"><path d="M 43 201 L 123 201 L 123 275 L 43 275 Z M 43 201 " clip-rule="nonzero"/></clipPath><clipPath id="28e38f265f"><path d="M 61.136719 187.5 L 131.351562 224.785156 L 101.804688 280.425781 L 31.589844 243.140625 Z M 61.136719 187.5 " clip-rule="nonzero"/></clipPath><clipPath id="54b6ec0edb"><path d="M 61.136719 187.5 L 131.351562 224.785156 L 101.804688 280.425781 L 31.589844 243.140625 Z M 61.136719 187.5 " clip-rule="nonzero"/></clipPath><clipPath id="08f8816ef2"><path d="M 79 233 L 159 233 L 159 307 L 79 307 Z M 79 233 " clip-rule="nonzero"/></clipPath><clipPath id="2448f8b0b6"><path d="M 97.425781 219.375 L 167.644531 256.660156 L 138.097656 312.300781 L 67.882812 275.019531 Z M 97.425781 219.375 " clip-rule="nonzero"/></clipPath><clipPath id="9bbc531e26"><path d="M 97.425781 219.375 L 167.644531 256.660156 L 138.097656 312.300781 L 67.882812 275.019531 Z M 97.425781 219.375 " clip-rule="nonzero"/></clipPath><clipPath id="d6d22e5e4b"><path d="M 95 198 L 220 198 L 220 281 L 95 281 Z M 95 198 " clip-rule="nonzero"/></clipPath><clipPath id="5f867a5103"><path d="M 88.949219 228.398438 L 205.210938 183.855469 L 227.210938 241.285156 L 110.953125 285.824219 Z M 88.949219 228.398438 " clip-rule="nonzero"/></clipPath><clipPath id="1d9aa78a63"><path d="M 88.949219 228.398438 L 205.210938 183.855469 L 227.210938 241.285156 L 110.953125 285.824219 Z M 88.949219 228.398438 " clip-rule="nonzero"/></clipPath><clipPath id="51e7e5b2dd"><path d="M 82 34 L 200 34 L 200 130 L 82 130 Z M 82 34 " clip-rule="nonzero"/></clipPath><clipPath id="8c94face78"><path d="M 217.371094 112.972656 L 96.941406 152.496094 L 68.175781 64.84375 L 188.605469 25.324219 Z M 217.371094 112.972656 " clip-rule="nonzero"/></clipPath><clipPath id="b7fbc9eb1c"><path d="M 217.371094 112.972656 L 96.941406 152.496094 L 68.175781 64.84375 L 188.605469 25.324219 Z M 217.371094 112.972656 " clip-rule="nonzero"/></clipPath></defs><g clip-path="url(#4751ed55dc)"><path fill="#03a8e8" d="M 343.375 187.488281 C 343.375 187.855469 343.375 188.261719 343.351562 188.636719 C 343.304688 196.3125 342.703125 203.863281 341.546875 211.246094 C 336.121094 246.902344 318.617188 278.558594 293.339844 301.917969 L 293.3125 301.917969 C 265.507812 327.648438 228.320312 343.375 187.488281 343.375 C 167.503906 343.375 148.398438 339.625 130.871094 332.746094 C 128.699219 331.925781 126.542969 331.023438 124.414062 330.078125 C 94.757812 316.941406 70 294.84375 53.523438 267.179688 C 45.25 253.28125 39.042969 237.972656 35.390625 221.722656 C 32.917969 210.691406 31.617188 199.234375 31.617188 187.488281 C 31.617188 183.363281 31.769531 179.28125 32.121094 175.261719 C 34.746094 141.070312 48.425781 109.984375 69.582031 85.558594 C 77.726562 76.148438 86.984375 67.722656 97.140625 60.5 L 97.164062 60.476562 C 99.914062 58.53125 102.738281 56.628906 105.640625 54.851562 C 123.347656 43.898438 143.398438 36.367188 164.878906 33.242188 C 172.253906 32.164062 179.808594 31.617188 187.488281 31.617188 C 205.789062 31.617188 223.390625 34.789062 239.699219 40.597656 C 266.058594 49.949219 289.109375 66.203125 306.765625 87.15625 C 329.628906 114.269531 343.375 149.277344 343.375 187.488281 " fill-opacity="1" fill-rule="nonzero"/></g><path fill="#f1efef" d="M 208.3125 309.480469 C 208.3125 309.480469 199.824219 297.640625 200.769531 277.34375 C 201.707031 257.046875 199.824219 253.667969 186.628906 249.4375 C 173.433594 245.210938 160.230469 237.59375 158.347656 227.449219 C 156.464844 217.296875 167.773438 193.617188 167.773438 193.617188 C 167.773438 193.617188 182.859375 183.472656 196.054688 185.160156 C 209.25 186.855469 231.878906 186.855469 242.246094 196.160156 C 252.617188 205.457031 259.207031 226.601562 263.921875 227.449219 C 268.636719 228.296875 257.324219 264.660156 255.441406 270.582031 C 253.554688 276.496094 247.902344 300.183594 243.191406 309.480469 C 238.476562 318.785156 233.761719 327.242188 229.988281 327.242188 C 226.21875 327.242188 209.25 328.933594 208.3125 309.480469 " fill-opacity="1" fill-rule="nonzero"/><path fill="#f1efef" d="M 135.070312 307.546875 C 134.246094 311.542969 132.773438 322.171875 130.871094 332.746094 C 128.699219 331.925781 126.542969 331.023438 124.414062 330.078125 C 94.757812 316.941406 70 294.84375 53.523438 267.179688 C 45.25 253.28125 39.042969 237.972656 35.390625 221.722656 C 41.144531 218.664062 48.347656 215.917969 55.425781 216.046875 C 70.925781 216.34375 72.878906 220.15625 86.082031 229.625 C 99.257812 239.109375 109.585938 262.761719 115.164062 263.167969 C 120.738281 263.542969 136.5 300.441406 135.070312 307.546875 " fill-opacity="1" fill-rule="nonzero"/><g clip-path="url(#f84953b3b7)"><path fill="#f1efef" d="M 343.375 187.488281 C 343.375 187.855469 343.375 188.261719 343.351562 188.636719 C 343.304688 196.3125 342.703125 203.863281 341.546875 211.246094 C 334.550781 200.964844 326.996094 185.535156 323.148438 182.835938 C 317.21875 178.65625 295.492188 176.160156 303.390625 187.007812 C 311.296875 197.890625 314.640625 197.890625 314.640625 197.890625 C 314.640625 197.890625 299.4375 228.496094 288.589844 225.527344 C 277.714844 222.574219 255.980469 182.835938 255.980469 182.835938 C 243.148438 172.734375 267.832031 165.28125 267.832031 165.28125 C 267.832031 165.28125 275.738281 158.378906 263.878906 150.472656 C 252.027344 142.574219 243.148438 159.355469 235.25 157.378906 C 227.351562 155.402344 225.367188 163.300781 222.894531 171.207031 C 220.421875 179.105469 213.214844 183.835938 211.539062 171.207031 C 209.839844 158.574219 191.785156 166.285156 185.863281 166.285156 C 179.933594 166.285156 168.082031 187.007812 157.199219 187.007812 C 146.347656 187.007812 146.347656 172.207031 148.324219 165.28125 C 150.300781 158.378906 167.082031 151.449219 182.886719 150.472656 C 198.6875 149.480469 183.886719 135.644531 188.8125 132.96875 C 193.761719 130.269531 208.570312 134.667969 222.894531 140.597656 C 237.199219 146.527344 252.027344 132.695312 264.878906 132.96875 C 277.714844 133.246094 237.226562 122.820312 250.050781 112.9375 C 262.910156 103.0625 235.25 94.164062 236.222656 83.304688 C 237.226562 72.429688 228.320312 59.597656 228.320312 47.746094 C 228.320312 43.972656 232.523438 41.515625 239.699219 40.597656 C 266.058594 49.949219 289.109375 66.203125 306.765625 87.15625 C 329.628906 114.269531 343.375 149.277344 343.375 187.488281 " fill-opacity="1" fill-rule="nonzero"/></g><path fill="#f1efef" d="M 122.707031 134.792969 C 122.707031 134.792969 128.433594 141.554688 132.847656 134.792969 C 137.265625 128.023438 137.890625 122.628906 135.128906 122.144531 C 132.355469 121.644531 115.921875 131.976562 122.707031 134.792969 " fill-opacity="1" fill-rule="nonzero"/><path fill="#f1efef" d="M 89.351562 134.792969 C 89.351562 134.792969 101.121094 131.785156 103.738281 125.898438 C 106.359375 120.007812 121.402344 122.628906 125.324219 116.738281 C 129.25 110.851562 139.40625 108.75 141.855469 103.257812 C 144.292969 97.773438 146.949219 89.273438 136.792969 88.609375 C 126.636719 87.957031 116.621094 83.386719 116.722656 88.609375 C 116.824219 93.851562 114.207031 92.535156 105.050781 95.808594 C 95.894531 99.078125 86.082031 94.359375 86.082031 103.257812 C 86.082031 112.164062 88.699219 122.117188 88.699219 122.117188 C 88.699219 122.117188 83.464844 129.300781 89.351562 134.792969 " fill-opacity="1" fill-rule="nonzero"/><path fill="#f1efef" d="M 164.878906 33.242188 C 164.878906 33.242188 147.347656 56.652344 144.097656 57.277344 C 140.824219 57.898438 130.796875 64.769531 128.945312 71.65625 C 127.070312 78.539062 113.9375 82.90625 103.941406 78.539062 C 93.9375 74.15625 91.632812 69.332031 97.140625 60.5 L 97.164062 60.476562 C 99.914062 58.53125 102.738281 56.628906 105.640625 54.851562 C 123.347656 43.898438 143.398438 36.367188 164.878906 33.242188 " fill-opacity="1" fill-rule="nonzero"/><path fill="#f1efef" d="M 66.632812 125.21875 C 64.972656 130.21875 65.378906 136.050781 59.976562 137.792969 C 54.546875 139.550781 56.628906 146.046875 52.878906 154.375 C 49.5 161.882812 35.023438 173.082031 32.121094 175.261719 C 34.746094 141.070312 48.425781 109.984375 69.582031 85.558594 C 71.78125 92.234375 70.925781 103.257812 72.878906 106.863281 C 75.804688 112.285156 68.300781 120.214844 66.632812 125.21875 " fill-opacity="1" fill-rule="nonzero"/><g clip-path="url(#a5ce661586)"><g clip-path="url(#28e38f265f)"><g clip-path="url(#54b6ec0edb)"><path fill="#f1efef" d="M 109.972656 265.082031 C 110.265625 264.359375 110.503906 263.617188 110.695312 262.863281 C 112.304688 256.527344 115.195312 250.546875 119.460938 245.589844 C 120.824219 244.003906 121.832031 242.097656 122.285156 240.066406 C 123.5625 234.355469 120.851562 228.28125 116.273438 225.011719 C 115.320312 224.332031 114.300781 223.761719 113.234375 223.304688 C 106.550781 220.4375 100.941406 215.582031 96.769531 209.550781 C 94.195312 205.820312 90.347656 203.035156 85.910156 202.167969 C 77.066406 200.441406 67.15625 206.605469 64.390625 215.558594 C 63.492188 218.464844 63.21875 221.679688 61.371094 224.101562 C 56.390625 230.636719 34.503906 237.65625 47.746094 250.078125 C 51.433594 253.535156 56.8125 254.316406 61.871094 254.679688 C 66.933594 255.042969 72.253906 255.214844 76.5625 257.832031 C 83.617188 262.113281 86.738281 272.230469 94.785156 274.148438 C 100.28125 275.460938 106.371094 271.964844 109.167969 266.789062 C 109.472656 266.234375 109.742188 265.664062 109.972656 265.082031 Z M 109.972656 265.082031 " fill-opacity="1" fill-rule="nonzero"/></g></g></g><g clip-path="url(#08f8816ef2)"><g clip-path="url(#2448f8b0b6)"><g clip-path="url(#9bbc531e26)"><path fill="#f1efef" d="M 146.265625 296.960938 C 146.554688 296.234375 146.796875 295.492188 146.988281 294.738281 C 148.597656 288.402344 151.488281 282.421875 155.753906 277.464844 C 157.117188 275.878906 158.121094 273.976562 158.578125 271.941406 C 159.851562 266.230469 157.144531 260.15625 152.566406 256.886719 C 151.613281 256.207031 150.59375 255.636719 149.523438 255.179688 C 142.84375 252.3125 137.234375 247.457031 133.0625 241.425781 C 130.488281 237.695312 126.640625 234.910156 122.203125 234.042969 C 113.359375 232.316406 103.449219 238.480469 100.683594 247.433594 C 99.785156 250.339844 99.511719 253.554688 97.664062 255.976562 C 92.683594 262.511719 70.792969 269.53125 84.039062 281.953125 C 87.726562 285.414062 93.105469 286.191406 98.164062 286.554688 C 103.226562 286.917969 108.546875 287.089844 112.851562 289.707031 C 119.910156 293.988281 123.03125 304.105469 131.078125 306.027344 C 136.574219 307.335938 142.664062 303.839844 145.460938 298.664062 C 145.765625 298.109375 146.03125 297.539062 146.265625 296.960938 Z M 146.265625 296.960938 " fill-opacity="1" fill-rule="nonzero"/></g></g></g><g clip-path="url(#d6d22e5e4b)"><g clip-path="url(#5f867a5103)"><g clip-path="url(#1d9aa78a63)"><path fill="#f1efef" d="M 101.996094 227.007812 C 108.707031 220.886719 118.035156 218.246094 127.121094 218.078125 C 130.738281 218.011719 134.359375 218.304688 137.976562 218.253906 C 141.597656 218.199219 145.269531 217.785156 148.605469 216.371094 C 151.992188 214.9375 154.875 212.542969 157.5625 210.039062 C 160.253906 207.53125 162.820312 204.867188 165.816406 202.734375 C 169.347656 200.21875 173.480469 198.484375 177.792969 198.089844 C 182.105469 197.695312 186.597656 198.699219 190.132812 201.203125 C 193.464844 203.558594 195.84375 207.113281 199.300781 209.285156 C 203.078125 211.660156 207.726562 212.128906 211.851562 213.835938 C 213.914062 214.6875 215.886719 215.882812 217.296875 217.613281 C 218.003906 218.476562 218.558594 219.46875 218.882812 220.539062 C 219.203125 221.605469 219.285156 222.753906 219.070312 223.847656 C 218.832031 225.042969 218.242188 226.15625 217.464844 227.097656 C 216.6875 228.035156 215.722656 228.808594 214.691406 229.460938 C 212.628906 230.769531 210.300781 231.59375 208.136719 232.714844 C 201.902344 235.945312 197.25 241.46875 192.085938 246.226562 C 185.835938 251.988281 178.351562 256.859375 169.933594 258.046875 C 166.910156 258.472656 163.847656 258.414062 160.796875 258.527344 C 157.75 258.644531 154.660156 258.941406 151.8125 260.035156 C 147.136719 261.835938 143.539062 265.597656 140.152344 269.285156 C 138.285156 271.320312 136.421875 273.367188 134.328125 275.164062 C 132.234375 276.960938 129.886719 278.507812 127.277344 279.402344 C 124.667969 280.292969 121.769531 280.496094 119.144531 279.648438 C 117.832031 279.222656 116.601562 278.539062 115.574219 277.617188 C 114.546875 276.695312 113.730469 275.535156 113.25 274.242188 C 112.777344 272.96875 112.640625 271.589844 112.660156 270.234375 C 112.683594 268.875 112.863281 267.523438 113.011719 266.175781 C 113.164062 264.824219 113.285156 263.464844 113.1875 262.109375 C 113.09375 260.753906 112.769531 259.398438 112.085938 258.226562 C 111.460938 257.15625 110.550781 256.273438 109.535156 255.5625 C 108.523438 254.851562 107.402344 254.3125 106.261719 253.828125 C 103.984375 252.855469 101.574219 252.085938 99.613281 250.574219 C 97.828125 249.199219 96.511719 247.253906 95.789062 245.121094 C 95.066406 242.988281 94.933594 240.671875 95.292969 238.449219 C 96.015625 234.003906 98.667969 230.042969 101.996094 227.007812 Z M 101.996094 227.007812 " fill-opacity="1" fill-rule="nonzero"/></g></g></g><g clip-path="url(#51e7e5b2dd)"><g clip-path="url(#8c94face78)"><g clip-path="url(#b7fbc9eb1c)"><path fill="#f1efef" d="M 123.984375 51.121094 C 129.527344 49.351562 135.792969 47.921875 141.382812 45.855469 C 147.3125 43.652344 152.402344 39.761719 157.992188 36.886719 C 167.921875 32.03125 179.703125 35.851562 187.960938 42.277344 C 193.964844 46.78125 197.878906 53.585938 199.386719 60.917969 C 200.011719 63.328125 199.71875 65.726562 199.535156 68.117188 C 199.285156 71.320312 198.890625 74.515625 197.78125 77.558594 C 194.015625 87.199219 186.730469 94.867188 181.316406 103.5625 C 180.773438 104.382812 180.515625 105.300781 180.359375 106.265625 C 179.601562 111.824219 178.902344 117.84375 174.5625 121.890625 C 167.75 129.25 156.386719 131.503906 147.1875 127.492188 C 144.882812 126.457031 142.777344 125.050781 140.460938 124.058594 C 133.691406 120.953125 126.640625 116.777344 118.921875 117.617188 C 111.066406 119.464844 108.960938 126.445312 99.925781 126.550781 C 91.316406 127.066406 85.609375 118.734375 83.546875 111.273438 C 81.953125 104.425781 82.546875 97.21875 84.285156 90.460938 C 90.425781 70.03125 103.699219 57.375 123.984375 51.121094 Z M 123.984375 51.121094 " fill-opacity="1" fill-rule="nonzero"/></g></g></g></svg>