<svg xmlns="http://www.w3.org/2000/svg" xmlns:xlink="http://www.w3.org/1999/xlink" width="125" zoomAndPan="magnify" viewBox="0 0 93.75 468.749999" height="625" preserveAspectRatio="xMidYMid meet" version="1.0"><defs><clipPath id="8f8099480e"><path d="M 0 0.5 L 93.5 0.5 L 93.5 468.003906 L 0 468.003906 Z M 0 0.5 " clip-rule="nonzero"/></clipPath><clipPath id="698cbb27ab"><path d="M 89.507812 312.082031 C 91.917969 288.117188 93.5 260.867188 93.5 234.125 C 93.5 207.378906 92.144531 181.644531 89.734375 157.929688 C 89.660156 157.425781 89.660156 156.921875 89.585938 156.417969 C 79.945312 67.355469 54.488281 1.761719 26.4375 0.5 L 0 0.5 L 0 468.003906 L 26.417969 468.003906 C 54.636719 466.742188 80.09375 402.152344 89.507812 312.082031 Z M 89.507812 312.082031 " clip-rule="nonzero"/></clipPath></defs><g clip-path="url(#8f8099480e)"><g clip-path="url(#698cbb27ab)"><path fill="#70c573" d="M 0 468.003906 L 0 0.5 L 93.5 0.5 L 93.5 468.003906 Z M 0 468.003906 " fill-opacity="1" fill-rule="nonzero"/></g></g></svg>