<svg xmlns="http://www.w3.org/2000/svg" xmlns:xlink="http://www.w3.org/1999/xlink" width="125" zoomAndPan="magnify" viewBox="0 0 93.75 468.749999" height="625" preserveAspectRatio="xMidYMid meet" version="1.0"><defs><clipPath id="12a2eb0b7a"><path d="M 0 0.5 L 93.5 0.5 L 93.5 468.003906 L 0 468.003906 Z M 0 0.5 " clip-rule="nonzero"/></clipPath><clipPath id="11b2a29fda"><path d="M 3.554688 156.417969 C 1.410156 180.386719 0 207.632812 0 234.375 C 0 261.121094 1.207031 286.855469 3.355469 310.570312 C 3.421875 311.074219 3.421875 311.578125 3.488281 312.082031 C 12.074219 401.144531 34.742188 466.742188 59.945312 468.003906 L 93.5 468.003906 L 93.5 0.5 L 59.96875 0.5 C 34.609375 1.761719 11.9375 66.347656 3.554688 156.417969 Z M 3.554688 156.417969 " clip-rule="nonzero"/></clipPath></defs><g clip-path="url(#12a2eb0b7a)"><g clip-path="url(#11b2a29fda)"><path fill="#70c573" d="M 93.5 0.5 L 93.5 468.003906 L 0 468.003906 L 0 0.5 Z M 93.5 0.5 " fill-opacity="1" fill-rule="nonzero"/></g></g></svg>