<svg xmlns="http://www.w3.org/2000/svg" xmlns:xlink="http://www.w3.org/1999/xlink" width="500" zoomAndPan="magnify" viewBox="0 0 375 374.999991" height="500" preserveAspectRatio="xMidYMid meet" version="1.0"><defs><g/></defs><g fill="#000000" fill-opacity="1"><g transform="translate(29.301444, 216.596108)"><g><path d="M 35.703125 0.890625 C 33.796875 0.890625 31.953125 0.890625 30.171875 0.890625 C 18.867188 0.890625 11.640625 0.523438 8.484375 -0.203125 L 7.203125 -0.203125 C 7.203125 -5.066406 6.835938 -27.945312 6.109375 -68.84375 L 5.921875 -70.8125 L 6.109375 -70.8125 L 6.109375 -70.90625 L 6.8125 -70.90625 C 16.40625 -71.632812 25.015625 -72.03125 32.640625 -72.09375 C 32.835938 -72.09375 33.035156 -72.09375 33.234375 -72.09375 C 35.273438 -72.09375 36.625 -71.828125 37.28125 -71.296875 C 37.9375 -70.773438 38.265625 -70.316406 38.265625 -69.921875 C 38.265625 -69.523438 37.882812 -69 37.125 -68.34375 C 36.375 -67.6875 34.847656 -67.257812 32.546875 -67.0625 C 25.640625 -66.46875 19.425781 -66.070312 13.90625 -65.875 C 13.96875 -62.71875 14.226562 -51.9375 14.6875 -33.53125 C 19.945312 -33.664062 24.519531 -33.734375 28.40625 -33.734375 C 29.71875 -33.734375 30.929688 -33.734375 32.046875 -33.734375 C 34.085938 -33.734375 35.367188 -33.4375 35.890625 -32.84375 C 36.421875 -32.25 36.6875 -31.753906 36.6875 -31.359375 C 36.6875 -30.898438 36.359375 -30.359375 35.703125 -29.734375 C 35.046875 -29.109375 33.726562 -28.765625 31.75 -28.703125 C 27.875 -28.441406 23.863281 -28.3125 19.71875 -28.3125 C 18.082031 -28.3125 16.441406 -28.34375 14.796875 -28.40625 C 15.117188 -13.082031 15.28125 -5.160156 15.28125 -4.640625 C 20.8125 -4.640625 27.785156 -4.503906 36.203125 -4.234375 C 39.484375 -4.109375 41.289062 -3.390625 41.625 -2.078125 C 41.6875 -1.941406 41.71875 -1.804688 41.71875 -1.671875 C 41.71875 -0.890625 40.894531 -0.234375 39.25 0.296875 C 38.257812 0.617188 37.078125 0.816406 35.703125 0.890625 Z M 35.703125 0.890625 "/></g></g></g><g fill="#000000" fill-opacity="1"><g transform="translate(74.371445, 216.596108)"><g><path d="M 37.671875 -48.921875 L 45.265625 -49.109375 C 45.265625 -47.335938 45.25 -40.269531 45.21875 -27.90625 C 45.1875 -15.550781 45.171875 -7.035156 45.171875 -2.359375 C 45.171875 2.304688 45.171875 5.164062 45.171875 6.21875 L 37.1875 6.515625 C 37.25 5.722656 37.28125 2.894531 37.28125 -1.96875 C 34.257812 -0.65625 30.019531 0 24.5625 0 C 24.289062 0 24.023438 0 23.765625 0 C 17.128906 0 12.757812 -0.722656 10.65625 -2.171875 C 8.351562 -3.816406 6.738281 -5.394531 5.8125 -6.90625 C 4.894531 -8.414062 3.976562 -10.78125 3.0625 -14 C 2.332031 -16.5 1.96875 -19.722656 1.96875 -23.671875 C 1.96875 -24.660156 2.03125 -26.78125 2.15625 -30.03125 C 2.289062 -33.28125 2.953125 -36.351562 4.140625 -39.25 C 4.929688 -41.15625 5.472656 -42.40625 5.765625 -43 C 6.066406 -43.59375 6.625 -44.363281 7.4375 -45.3125 C 8.257812 -46.269531 9.242188 -46.992188 10.390625 -47.484375 C 11.546875 -47.984375 13.175781 -48.523438 15.28125 -49.109375 C 16.988281 -49.640625 19.0625 -49.90625 21.5 -49.90625 C 24.914062 -49.90625 29.125 -49.378906 34.125 -48.328125 C 35.507812 -48.066406 36.691406 -47.671875 37.671875 -47.140625 Z M 36.890625 -19.328125 C 36.890625 -26.953125 36.164062 -32.9375 34.71875 -37.28125 C 33.207031 -41.550781 30.148438 -44.113281 25.546875 -44.96875 C 24.816406 -45.101562 24.09375 -45.171875 23.375 -45.171875 C 21.664062 -45.171875 19.804688 -44.691406 17.796875 -43.734375 C 15.796875 -42.785156 14.234375 -41.226562 13.109375 -39.0625 C 10.878906 -34.851562 9.765625 -30.707031 9.765625 -26.625 C 9.765625 -26.5 9.765625 -26.367188 9.765625 -26.234375 C 9.898438 -20.316406 10.753906 -15.613281 12.328125 -12.125 C 14.097656 -8.1875 17.710938 -5.722656 23.171875 -4.734375 C 23.703125 -4.671875 24.195312 -4.640625 24.65625 -4.640625 C 27.21875 -4.640625 29.847656 -5.738281 32.546875 -7.9375 C 35.242188 -10.144531 36.691406 -13.941406 36.890625 -19.328125 Z M 36.890625 -19.328125 "/></g></g></g><g fill="#000000" fill-opacity="1"><g transform="translate(123.090499, 216.596108)"><g><path d="M 7.390625 5.125 C 7.328125 2.695312 6.800781 -6.390625 5.8125 -22.140625 C 4.832031 -37.890625 4.273438 -46.453125 4.140625 -47.828125 L 11.734375 -48.125 C 11.796875 -47.53125 11.894531 -46.476562 12.03125 -44.96875 C 12.164062 -45.101562 12.378906 -45.285156 12.671875 -45.515625 C 12.960938 -45.742188 13.175781 -45.925781 13.3125 -46.0625 C 15.09375 -47.4375 16.6875 -48.367188 18.09375 -48.859375 C 19.507812 -49.359375 22.320312 -49.835938 26.53125 -50.296875 C 31.59375 -50.890625 35.898438 -50.132812 39.453125 -48.03125 C 41.160156 -47.039062 42.539062 -45.066406 43.59375 -42.109375 C 44.644531 -39.148438 45.332031 -36.320312 45.65625 -33.625 C 45.988281 -30.9375 46.253906 -27.6875 46.453125 -23.875 L 38.65625 -23.578125 C 38 -29.890625 36.882812 -34.914062 35.3125 -38.65625 C 34.457031 -40.695312 33.46875 -42.34375 32.34375 -43.59375 C 31.226562 -44.84375 29.929688 -45.613281 28.453125 -45.90625 C 26.972656 -46.207031 25.410156 -45.765625 23.765625 -44.578125 C 21.003906 -42.671875 18.945312 -40.78125 17.59375 -38.90625 C 16.25 -37.03125 15.445312 -34.351562 15.1875 -30.875 C 15.050781 -29.289062 14.96875 -26.113281 14.9375 -21.34375 C 14.90625 -16.582031 14.90625 -11.960938 14.9375 -7.484375 C 14.96875 -3.015625 14.953125 1.023438 14.890625 4.640625 L 14.890625 5.328125 Z M 7.390625 5.125 "/></g></g></g><g fill="#000000" fill-opacity="1"><g transform="translate(172.894355, 216.596108)"><g><path d="M 17.84375 2.953125 C 17.78125 -0.203125 17.75 -16.96875 17.75 -47.34375 C 16.238281 -47.34375 12.65625 -47.472656 7 -47.734375 C 5.03125 -47.867188 3.648438 -48.363281 2.859375 -49.21875 C 2.066406 -50.070312 2.03125 -50.910156 2.75 -51.734375 C 3.476562 -52.554688 4.765625 -53 6.609375 -53.0625 C 10.421875 -53.257812 14.132812 -53.457031 17.75 -53.65625 C 17.75 -56.476562 17.75 -59.269531 17.75 -62.03125 C 17.75 -64.789062 17.765625 -67.007812 17.796875 -68.6875 C 17.828125 -70.363281 17.84375 -71.269531 17.84375 -71.40625 L 25.546875 -71.3125 C 25.546875 -65.382812 25.578125 -59.597656 25.640625 -53.953125 C 29.523438 -54.015625 33.832031 -53.816406 38.5625 -53.359375 C 40.269531 -53.222656 41.597656 -52.773438 42.546875 -52.015625 C 43.503906 -51.265625 43.617188 -50.492188 42.890625 -49.703125 C 42.171875 -48.921875 40.5625 -48.460938 38.0625 -48.328125 C 32.34375 -47.867188 28.203125 -47.601562 25.640625 -47.53125 C 25.640625 -17.550781 25.671875 -0.6875 25.734375 3.0625 Z M 17.84375 2.953125 "/></g></g></g><g fill="#000000" fill-opacity="1"><g transform="translate(219.640938, 216.596108)"><g><path d="M 7.09375 -0.09375 C 7.09375 -3.707031 6.925781 -17.050781 6.59375 -40.125 C 6.269531 -63.207031 6.078125 -75.738281 6.015625 -77.71875 L 13.703125 -77.8125 C 13.835938 -75.382812 14.035156 -65.128906 14.296875 -47.046875 C 16.140625 -48.890625 18.507812 -50.269531 21.40625 -51.1875 C 22.914062 -51.644531 26.132812 -51.675781 31.0625 -51.28125 C 36.519531 -50.820312 40.238281 -49.738281 42.21875 -48.03125 C 43.65625 -46.78125 44.769531 -45.265625 45.5625 -43.484375 C 46.351562 -41.710938 46.828125 -40.234375 46.984375 -39.046875 C 47.148438 -37.867188 47.332031 -36.097656 47.53125 -33.734375 C 48 -26.765625 47.769531 -14.734375 46.84375 2.359375 L 39.0625 2.265625 C 39.78125 -9.429688 40.140625 -19.03125 40.140625 -26.53125 C 40.003906 -32.382812 39.347656 -37.019531 38.171875 -40.4375 C 37.515625 -42.28125 36.476562 -43.890625 35.0625 -45.265625 C 33.644531 -46.648438 31.953125 -47.472656 29.984375 -47.734375 C 28.140625 -47.992188 26.265625 -47.515625 24.359375 -46.296875 C 22.453125 -45.085938 21.003906 -43.757812 20.015625 -42.3125 C 18.765625 -40.53125 17.710938 -36.976562 16.859375 -31.65625 C 16.460938 -29.226562 16.164062 -26.070312 15.96875 -22.1875 C 15.78125 -18.3125 15.632812 -14.054688 15.53125 -9.421875 C 15.4375 -4.785156 15.351562 -1.675781 15.28125 -0.09375 L 7.6875 -0.203125 Z M 7.09375 -0.09375 "/></g></g></g><g fill="#000000" fill-opacity="1"><g transform="translate(270.726825, 216.596108)"><g><path d="M 7.09375 2.265625 C 7.363281 -8.117188 7.5 -33.234375 7.5 -73.078125 L 15.1875 -72.890625 C 15.25 -70.191406 15.25 -57.628906 15.1875 -35.203125 C 15.125 -12.785156 15.09375 -0.359375 15.09375 2.078125 Z M 7.09375 2.265625 "/></g></g></g><g fill="#000000" fill-opacity="1"><g transform="translate(289.366261, 216.596108)"><g><path d="M 19.140625 -36.59375 C 19.660156 -27.78125 20.773438 -21.53125 22.484375 -17.84375 C 24.066406 -14.226562 25.398438 -11.75 26.484375 -10.40625 C 27.566406 -9.0625 28.992188 -8.390625 30.765625 -8.390625 C 30.898438 -8.390625 31.066406 -8.390625 31.265625 -8.390625 C 33.109375 -8.453125 35.257812 -9.960938 37.71875 -12.921875 C 40.1875 -15.878906 42.078125 -19.195312 43.390625 -22.875 L 44.28125 -24.953125 C 44.476562 -33.109375 44.578125 -39.976562 44.578125 -45.5625 C 44.578125 -48.914062 44.546875 -51.773438 44.484375 -54.140625 L 52.671875 -54.25 C 52.867188 -52.34375 52.96875 -48.363281 52.96875 -42.3125 C 52.96875 -41.320312 52.945312 -38.570312 52.90625 -34.0625 C 52.875 -29.5625 52.757812 -24.453125 52.5625 -18.734375 C 52.039062 -4.472656 50.695312 6.273438 48.53125 13.515625 C 48.457031 13.773438 48.269531 14.394531 47.96875 15.375 C 47.675781 16.363281 47.476562 17.003906 47.375 17.296875 C 47.28125 17.597656 47.085938 18.144531 46.796875 18.9375 C 46.503906 19.726562 46.273438 20.269531 46.109375 20.5625 C 45.941406 20.851562 45.660156 21.296875 45.265625 21.890625 C 44.867188 22.484375 44.488281 22.925781 44.125 23.21875 C 43.769531 23.519531 43.328125 23.847656 42.796875 24.203125 C 42.273438 24.566406 41.71875 24.882812 41.125 25.15625 C 37.707031 26.46875 33.367188 27.1875 28.109375 27.3125 C 27.648438 27.3125 27.191406 27.3125 26.734375 27.3125 C 21.140625 27.3125 17.289062 26.921875 15.1875 26.140625 C 10.78125 24.492188 7.460938 20.582031 5.234375 14.40625 C 4.242188 11.632812 3.582031 8.914062 3.25 6.25 C 2.925781 3.59375 2.765625 1.507812 2.765625 0 C 2.765625 -1.644531 2.894531 -3.191406 3.15625 -4.640625 L 11.046875 -4.828125 C 11.242188 -0.296875 11.40625 2.753906 11.53125 4.328125 C 11.664062 5.910156 12.109375 8.050781 12.859375 10.75 C 13.617188 13.445312 14.820312 16.078125 16.46875 18.640625 C 18.632812 22.128906 21.820312 23.875 26.03125 23.875 C 26.5 23.875 26.960938 23.835938 27.421875 23.765625 C 32.347656 23.304688 35.796875 21.332031 37.765625 17.84375 C 40.597656 12.914062 42.507812 4.238281 43.5 -8.1875 C 41.457031 -5.75 38.828125 -4.332031 35.609375 -3.9375 C 33.035156 -3.75 30.863281 -3.65625 29.09375 -3.65625 C 27.519531 -3.65625 26.007812 -3.785156 24.5625 -4.046875 C 23.113281 -4.304688 21.664062 -5.128906 20.21875 -6.515625 C 16.269531 -10.253906 13.570312 -16.070312 12.125 -23.96875 C 11.34375 -27.84375 10.703125 -32.34375 10.203125 -37.46875 C 9.710938 -42.601562 9.46875 -46.78125 9.46875 -50 C 9.46875 -51.1875 9.5 -52.269531 9.5625 -53.25 L 18.84375 -53.25 C 18.84375 -44.707031 18.941406 -39.15625 19.140625 -36.59375 Z M 19.140625 -36.59375 "/></g></g></g></svg>