<svg xmlns="http://www.w3.org/2000/svg" xmlns:xlink="http://www.w3.org/1999/xlink" width="500" zoomAndPan="magnify" viewBox="0 0 375 374.999991" height="500" preserveAspectRatio="xMidYMid meet" version="1.0"><defs><g/></defs><g fill="#000000" fill-opacity="1"><g transform="translate(28.270337, 215.279236)"><g><path d="M 42.046875 -6.921875 C 42.046875 -6.972656 42.070312 -7 42.125 -7 C 40.90625 -10.125 37.21875 -19.335938 31.0625 -34.640625 C 26.914062 -23.765625 22.835938 -13.476562 18.828125 -3.78125 C 18.734375 -3.5 18.507812 -2.898438 18.15625 -1.984375 C 17.800781 -1.078125 17.554688 -0.367188 17.421875 0.140625 C 17.234375 0.648438 16.179688 0.859375 14.265625 0.765625 C 12.359375 0.671875 11.378906 0.347656 11.328125 -0.203125 C 11.234375 -0.578125 11.1875 -0.835938 11.1875 -0.984375 C 11.007812 -2.285156 10.921875 -3.097656 10.921875 -3.421875 C 7.929688 -28.523438 5.921875 -44.710938 4.890625 -51.984375 L 10.359375 -52.46875 C 10.546875 -51.3125 12.269531 -37.691406 15.53125 -11.609375 C 22.664062 -29.753906 26.582031 -40.039062 27.28125 -42.46875 C 29.519531 -42.5625 31.757812 -42.65625 34 -42.75 C 33.957031 -42.75 33.9375 -42.726562 33.9375 -42.6875 L 34.078125 -42.6875 C 35.191406 -40.445312 39.503906 -29.859375 47.015625 -10.921875 C 48.460938 -37.828125 49.210938 -51.65625 49.265625 -52.40625 L 55.28125 -52.34375 C 55.226562 -51.082031 55.023438 -47.613281 54.671875 -41.9375 C 54.328125 -36.269531 53.894531 -29.472656 53.375 -21.546875 C 52.863281 -13.617188 52.519531 -8.066406 52.34375 -4.890625 L 52.34375 -4.828125 C 52.25 -3.523438 52.1875 -2.425781 52.15625 -1.53125 C 52.132812 -0.644531 52.078125 0.445312 51.984375 1.75 C 51.941406 2.3125 50.894531 2.601562 48.84375 2.625 C 46.789062 2.644531 45.671875 2.398438 45.484375 1.890625 C 45.390625 1.609375 45.316406 1.421875 45.265625 1.328125 C 45.222656 1.234375 45.140625 1.007812 45.015625 0.65625 C 44.898438 0.3125 44.773438 -0.0546875 44.640625 -0.453125 C 44.503906 -0.847656 44.34375 -1.253906 44.15625 -1.671875 C 43.5 -3.453125 42.796875 -5.203125 42.046875 -6.921875 Z M 34 -42.75 Z M 34 -42.75 "/></g></g></g><g fill="#000000" fill-opacity="1"><g transform="translate(85.930193, 215.279236)"><g><path d="M 18.46875 -37.5 C 18.519531 -37.5 18.648438 -37.507812 18.859375 -37.53125 C 19.066406 -37.5625 19.265625 -37.578125 19.453125 -37.578125 C 23.179688 -37.429688 26.304688 -36.632812 28.828125 -35.1875 C 31.722656 -33.5625 33.566406 -30.972656 34.359375 -27.421875 C 34.816406 -25.273438 34.976562 -22.742188 34.84375 -19.828125 C 34.707031 -16.921875 34.332031 -14.347656 33.71875 -12.109375 C 32.320312 -6.929688 30.0625 -3.410156 26.9375 -1.546875 C 24.09375 0.273438 20.523438 1 16.234375 0.625 C 11.335938 0.113281 7.910156 -1.679688 5.953125 -4.765625 C 4.503906 -7.179688 3.429688 -12.285156 2.734375 -20.078125 C 2.492188 -22.410156 2.734375 -24.765625 3.453125 -27.140625 C 4.179688 -29.523438 5.289062 -31.535156 6.78125 -33.171875 C 8.09375 -34.609375 9.796875 -35.710938 11.890625 -36.484375 C 13.992188 -37.253906 16.070312 -37.59375 18.125 -37.5 Z M 14.0625 -32.328125 C 12.425781 -31.296875 11.1875 -30.300781 10.34375 -29.34375 C 9.507812 -28.394531 8.976562 -27.148438 8.75 -25.609375 C 8.1875 -21.503906 8.300781 -17.445312 9.09375 -13.4375 C 9.882812 -9.425781 11.304688 -6.300781 13.359375 -4.0625 C 14.484375 -2.800781 16 -2.085938 17.90625 -1.921875 C 19.820312 -1.753906 21.335938 -2.09375 22.453125 -2.9375 C 25.160156 -4.664062 26.957031 -7.414062 27.84375 -11.1875 C 29.0625 -16.132812 29.53125 -20.546875 29.25 -24.421875 C 29.101562 -26.378906 28.503906 -28.160156 27.453125 -29.765625 C 26.410156 -31.378906 25.164062 -32.535156 23.71875 -33.234375 C 19.894531 -34.210938 16.675781 -33.910156 14.0625 -32.328125 Z M 14.0625 -32.328125 "/></g></g></g><g fill="#000000" fill-opacity="1"><g transform="translate(123.227162, 215.279236)"><g><path d="M 5.25 3.640625 C 5.195312 1.910156 4.820312 -4.535156 4.125 -15.703125 C 3.425781 -26.878906 3.03125 -32.957031 2.9375 -33.9375 L 8.328125 -34.140625 C 8.367188 -33.722656 8.4375 -32.976562 8.53125 -31.90625 C 8.625 -32 8.773438 -32.125 8.984375 -32.28125 C 9.203125 -32.445312 9.359375 -32.578125 9.453125 -32.671875 C 10.703125 -33.648438 11.828125 -34.3125 12.828125 -34.65625 C 13.835938 -35.007812 15.835938 -35.351562 18.828125 -35.6875 C 22.410156 -36.101562 25.460938 -35.566406 27.984375 -34.078125 C 29.203125 -33.378906 30.179688 -31.976562 30.921875 -29.875 C 31.671875 -27.78125 32.160156 -25.773438 32.390625 -23.859375 C 32.628906 -21.941406 32.816406 -19.632812 32.953125 -16.9375 L 27.421875 -16.71875 C 26.960938 -21.195312 26.171875 -24.765625 25.046875 -27.421875 C 24.441406 -28.867188 23.742188 -30.035156 22.953125 -30.921875 C 22.160156 -31.804688 21.238281 -32.351562 20.1875 -32.5625 C 19.132812 -32.78125 18.023438 -32.46875 16.859375 -31.625 C 14.898438 -30.269531 13.441406 -28.925781 12.484375 -27.59375 C 11.535156 -26.269531 10.96875 -24.375 10.78125 -21.90625 C 10.6875 -20.78125 10.625 -18.523438 10.59375 -15.140625 C 10.570312 -11.765625 10.570312 -8.488281 10.59375 -5.3125 C 10.625 -2.144531 10.613281 0.71875 10.5625 3.28125 L 10.5625 3.78125 Z M 5.25 3.640625 "/></g></g></g><g fill="#000000" fill-opacity="1"><g transform="translate(158.564817, 215.279236)"><g><path d="M 5.03125 1.609375 C 5.21875 -5.765625 5.3125 -23.582031 5.3125 -51.84375 L 10.78125 -51.703125 C 10.820312 -49.796875 10.816406 -40.890625 10.765625 -24.984375 C 10.722656 -9.078125 10.703125 -0.257812 10.703125 1.46875 Z M 5.03125 1.609375 "/></g></g></g><g fill="#000000" fill-opacity="1"><g transform="translate(171.790203, 215.279236)"><g><path d="M 26.515625 -1.265625 C 24.328125 -0.460938 21.363281 -0.0859375 17.625 -0.140625 C 13.0625 -0.140625 9.984375 -0.648438 8.390625 -1.671875 C 6.710938 -2.796875 5.554688 -3.90625 4.921875 -5 C 4.296875 -6.09375 3.660156 -7.785156 3.015625 -10.078125 C 2.359375 -12.265625 2.109375 -15.28125 2.265625 -19.125 C 2.429688 -22.976562 2.9375 -25.929688 3.78125 -27.984375 C 4.34375 -29.335938 4.726562 -30.222656 4.9375 -30.640625 C 5.144531 -31.066406 5.539062 -31.617188 6.125 -32.296875 C 6.707031 -32.972656 7.40625 -33.492188 8.21875 -33.859375 C 9.039062 -34.234375 10.195312 -34.628906 11.6875 -35.046875 C 14.625 -35.890625 19.078125 -35.679688 25.046875 -34.421875 C 26.023438 -34.234375 26.9375 -33.929688 27.78125 -33.515625 C 28.195312 -44.898438 28.429688 -50.847656 28.484375 -51.359375 L 33.859375 -51.21875 C 33.816406 -49.300781 33.503906 -40.050781 32.921875 -23.46875 C 32.335938 -6.882812 32.019531 2.40625 31.96875 4.40625 L 26.3125 4.265625 C 26.351562 3.429688 26.421875 1.585938 26.515625 -1.265625 Z M 27.015625 -13.859375 C 27.015625 -19.265625 26.5 -23.507812 25.46875 -26.59375 C 24.394531 -29.625 22.226562 -31.441406 18.96875 -32.046875 C 17.1875 -32.367188 15.46875 -32.144531 13.8125 -31.375 C 12.15625 -30.601562 10.910156 -29.425781 10.078125 -27.84375 C 8.492188 -24.71875 7.722656 -21.6875 7.765625 -18.75 C 7.859375 -14.457031 8.441406 -11.125 9.515625 -8.75 C 10.816406 -5.945312 13.40625 -4.195312 17.28125 -3.5 C 19.476562 -3.175781 21.613281 -3.863281 23.6875 -5.5625 C 25.757812 -7.257812 26.867188 -10.023438 27.015625 -13.859375 Z M 27.015625 -13.859375 "/></g></g></g><g fill="#000000" fill-opacity="1"><g transform="translate(208.037542, 215.279236)"><g><path d="M 42.046875 -6.921875 C 42.046875 -6.972656 42.070312 -7 42.125 -7 C 40.90625 -10.125 37.21875 -19.335938 31.0625 -34.640625 C 26.914062 -23.765625 22.835938 -13.476562 18.828125 -3.78125 C 18.734375 -3.5 18.507812 -2.898438 18.15625 -1.984375 C 17.800781 -1.078125 17.554688 -0.367188 17.421875 0.140625 C 17.234375 0.648438 16.179688 0.859375 14.265625 0.765625 C 12.359375 0.671875 11.378906 0.347656 11.328125 -0.203125 C 11.234375 -0.578125 11.1875 -0.835938 11.1875 -0.984375 C 11.007812 -2.285156 10.921875 -3.097656 10.921875 -3.421875 C 7.929688 -28.523438 5.921875 -44.710938 4.890625 -51.984375 L 10.359375 -52.46875 C 10.546875 -51.3125 12.269531 -37.691406 15.53125 -11.609375 C 22.664062 -29.753906 26.582031 -40.039062 27.28125 -42.46875 C 29.519531 -42.5625 31.757812 -42.65625 34 -42.75 C 33.957031 -42.75 33.9375 -42.726562 33.9375 -42.6875 L 34.078125 -42.6875 C 35.191406 -40.445312 39.503906 -29.859375 47.015625 -10.921875 C 48.460938 -37.828125 49.210938 -51.65625 49.265625 -52.40625 L 55.28125 -52.34375 C 55.226562 -51.082031 55.023438 -47.613281 54.671875 -41.9375 C 54.328125 -36.269531 53.894531 -29.472656 53.375 -21.546875 C 52.863281 -13.617188 52.519531 -8.066406 52.34375 -4.890625 L 52.34375 -4.828125 C 52.25 -3.523438 52.1875 -2.425781 52.15625 -1.53125 C 52.132812 -0.644531 52.078125 0.445312 51.984375 1.75 C 51.941406 2.3125 50.894531 2.601562 48.84375 2.625 C 46.789062 2.644531 45.671875 2.398438 45.484375 1.890625 C 45.390625 1.609375 45.316406 1.421875 45.265625 1.328125 C 45.222656 1.234375 45.140625 1.007812 45.015625 0.65625 C 44.898438 0.3125 44.773438 -0.0546875 44.640625 -0.453125 C 44.503906 -0.847656 44.34375 -1.253906 44.15625 -1.671875 C 43.5 -3.453125 42.796875 -5.203125 42.046875 -6.921875 Z M 34 -42.75 Z M 34 -42.75 "/></g></g></g><g fill="#000000" fill-opacity="1"><g transform="translate(265.697388, 215.279236)"><g><path d="M 11.75 -48.203125 C 11.84375 -47.835938 11.890625 -47.46875 11.890625 -47.09375 C 11.941406 -46.34375 11.921875 -45.570312 11.828125 -44.78125 C 11.734375 -43.988281 11.546875 -43.085938 11.265625 -42.078125 C 10.984375 -41.078125 10.503906 -40.257812 9.828125 -39.625 C 9.148438 -39 8.300781 -38.710938 7.28125 -38.765625 C 5.738281 -38.765625 4.617188 -39.253906 3.921875 -40.234375 C 3.128906 -41.398438 2.6875 -43.054688 2.59375 -45.203125 C 2.40625 -48.328125 2.960938 -50.492188 4.265625 -51.703125 C 5.847656 -53.203125 7.484375 -53.503906 9.171875 -52.609375 C 10.515625 -51.960938 11.375 -50.492188 11.75 -48.203125 Z M 4.484375 1.953125 C 4.617188 -6.015625 4.6875 -18.863281 4.6875 -36.59375 L 10.140625 -36.53125 C 10.191406 -33.863281 10.203125 -30.328125 10.171875 -25.921875 C 10.148438 -21.515625 10.128906 -15.972656 10.109375 -9.296875 C 10.085938 -2.628906 10.078125 1.070312 10.078125 1.8125 Z M 4.484375 1.953125 "/></g></g></g><g fill="#000000" fill-opacity="1"><g transform="translate(280.042379, 215.279236)"><g><path d="M 15.328125 -35.265625 C 14.015625 -35.210938 12.671875 -34.625 11.296875 -33.5 C 9.921875 -32.382812 8.976562 -31.128906 8.46875 -29.734375 C 7.957031 -28.378906 7.898438 -26.941406 8.296875 -25.421875 C 8.691406 -23.910156 9.492188 -22.664062 10.703125 -21.6875 C 13.503906 -19.5 16.300781 -17.796875 19.09375 -16.578125 C 23.757812 -14.617188 26.164062 -12.03125 26.3125 -8.8125 C 26.445312 -6.195312 26.222656 -4.222656 25.640625 -2.890625 C 25.054688 -1.566406 23.945312 -0.441406 22.3125 0.484375 C 20.3125 1.554688 17.769531 2.070312 14.6875 2.03125 C 11.375 1.976562 8.460938 1.535156 5.953125 0.703125 C 2.679688 -0.421875 1.582031 -4.457031 2.65625 -11.40625 L 8.328125 -11.265625 C 8.328125 -10.890625 8.28125 -10.257812 8.1875 -9.375 C 8.09375 -8.488281 8.03125 -7.785156 8 -7.265625 C 7.976562 -6.753906 8.003906 -6.140625 8.078125 -5.421875 C 8.148438 -4.703125 8.28125 -4.0625 8.46875 -3.5 C 8.75 -2.707031 9.425781 -2.050781 10.5 -1.53125 C 11.570312 -1.019531 12.644531 -0.742188 13.71875 -0.703125 C 14.925781 -0.648438 16.207031 -1.03125 17.5625 -1.84375 C 18.914062 -2.664062 19.800781 -3.867188 20.21875 -5.453125 C 20.875 -7.929688 20.269531 -10.101562 18.40625 -11.96875 C 17.65625 -12.707031 16.6875 -13.40625 15.5 -14.0625 C 14.3125 -14.71875 12.910156 -15.40625 11.296875 -16.125 C 9.691406 -16.851562 8.539062 -17.398438 7.84375 -17.765625 C 4.289062 -19.722656 2.398438 -22.804688 2.171875 -27.015625 C 2.078125 -29.109375 2.460938 -30.984375 3.328125 -32.640625 C 4.191406 -34.296875 5.296875 -35.519531 6.640625 -36.3125 C 6.785156 -36.40625 7.078125 -36.59375 7.515625 -36.875 C 7.960938 -37.15625 8.253906 -37.316406 8.390625 -37.359375 C 8.535156 -37.410156 8.875 -37.515625 9.40625 -37.671875 C 9.945312 -37.835938 10.519531 -37.929688 11.125 -37.953125 C 11.726562 -37.984375 12.554688 -38.03125 13.609375 -38.09375 C 14.660156 -38.164062 15.910156 -38.203125 17.359375 -38.203125 C 20.753906 -38.242188 23.570312 -37.378906 25.8125 -35.609375 C 27.820312 -34.117188 28.664062 -31.390625 28.34375 -27.421875 L 23.296875 -27.703125 C 23.484375 -30.179688 22.804688 -32.082031 21.265625 -33.40625 C 19.734375 -34.738281 17.753906 -35.359375 15.328125 -35.265625 Z M 15.328125 -35.265625 "/></g></g></g><g fill="#000000" fill-opacity="1"><g transform="translate(310.901609, 215.279236)"><g><path d="M 31.765625 -30.4375 C 31.804688 -30.382812 31.828125 -30.335938 31.828125 -30.296875 C 31.878906 -30.203125 31.90625 -30.132812 31.90625 -30.09375 L 31.90625 -30.015625 C 32.226562 -28.941406 32.4375 -27.632812 32.53125 -26.09375 C 32.582031 -25.632812 32.609375 -25.191406 32.609375 -24.765625 C 32.609375 -22.804688 32.328125 -21.222656 31.765625 -20.015625 C 30.691406 -17.628906 28.476562 -15.390625 25.125 -13.296875 C 23.113281 -11.984375 21.242188 -11.316406 19.515625 -11.296875 C 17.796875 -11.273438 16.84375 -11.265625 16.65625 -11.265625 C 13.625 -11.265625 10.988281 -11.640625 8.75 -12.390625 C 9.539062 -7.253906 11.148438 -3.707031 13.578125 -1.75 C 14.785156 -0.8125 16.273438 -0.34375 18.046875 -0.34375 C 18.140625 -0.34375 18.695312 -0.363281 19.71875 -0.40625 C 20.75 -0.457031 22.035156 -0.925781 23.578125 -1.8125 C 25.066406 -2.65625 26.1875 -4.3125 26.9375 -6.78125 C 27.6875 -9.257812 28.082031 -11.523438 28.125 -13.578125 L 33.3125 -14.34375 C 33.394531 -13.363281 33.4375 -12.453125 33.4375 -11.609375 C 33.4375 -6.710938 32.015625 -3.171875 29.171875 -0.984375 C 28.378906 -0.367188 27.679688 0.132812 27.078125 0.53125 C 26.472656 0.925781 25.757812 1.210938 24.9375 1.390625 C 24.125 1.578125 23.585938 1.691406 23.328125 1.734375 C 23.078125 1.785156 22.351562 1.832031 21.15625 1.875 C 19.96875 1.925781 19.257812 1.953125 19.03125 1.953125 C 18.28125 2.003906 17.582031 2.03125 16.9375 2.03125 C 12.5 2.03125 9.421875 1.210938 7.703125 -0.421875 C 6.253906 -1.867188 4.828125 -5.25 3.421875 -10.5625 C 2.679688 -13.40625 2.3125 -16.179688 2.3125 -18.890625 C 2.3125 -20.429688 2.539062 -22.585938 3 -25.359375 C 3.46875 -28.140625 4.847656 -30.789062 7.140625 -33.3125 C 8.347656 -34.65625 9.300781 -35.59375 10 -36.125 C 10.707031 -36.664062 11.804688 -37.097656 13.296875 -37.421875 C 14.785156 -37.753906 16.675781 -37.921875 18.96875 -37.921875 C 19.238281 -37.921875 19.539062 -37.921875 19.875 -37.921875 C 23.09375 -37.828125 25.34375 -37.507812 26.625 -36.96875 C 27.90625 -36.4375 29.175781 -35.191406 30.4375 -33.234375 C 31.039062 -32.296875 31.484375 -31.363281 31.765625 -30.4375 Z M 21.625 -16.09375 C 24.976562 -18.75 26.65625 -22.015625 26.65625 -25.890625 C 26.65625 -26.773438 26.5625 -27.707031 26.375 -28.6875 C 25.769531 -30.695312 25 -32.070312 24.0625 -32.8125 C 22.71875 -33.9375 21.597656 -34.554688 20.703125 -34.671875 C 19.816406 -34.785156 19.257812 -34.84375 19.03125 -34.84375 C 17.726562 -34.84375 16.398438 -34.445312 15.046875 -33.65625 C 10.984375 -30.90625 8.789062 -26.050781 8.46875 -19.09375 L 8.46875 -18.609375 C 10.195312 -17.117188 11.957031 -16.148438 13.75 -15.703125 C 15.539062 -15.265625 16.859375 -15.046875 17.703125 -15.046875 C 19.148438 -15.046875 20.457031 -15.394531 21.625 -16.09375 Z M 21.625 -16.09375 "/></g></g></g></svg>