<svg xmlns="http://www.w3.org/2000/svg" xmlns:xlink="http://www.w3.org/1999/xlink" width="381" zoomAndPan="magnify" viewBox="0 0 285.75 74.999997" height="100" preserveAspectRatio="xMidYMid meet" version="1.0"><defs><g/></defs><g fill="#000000" fill-opacity="1"><g transform="translate(0.296949, 62.352417)"><g><path d="M 37.625 -6.203125 C 37.625 -6.242188 37.644531 -6.265625 37.6875 -6.265625 C 36.601562 -9.054688 33.304688 -17.296875 27.796875 -30.984375 C 24.078125 -21.265625 20.425781 -12.0625 16.84375 -3.375 C 16.757812 -3.125 16.5625 -2.59375 16.25 -1.78125 C 15.9375 -0.96875 15.71875 -0.332031 15.59375 0.125 C 15.425781 0.582031 14.484375 0.769531 12.765625 0.6875 C 11.054688 0.601562 10.179688 0.3125 10.140625 -0.1875 C 10.054688 -0.519531 10.015625 -0.75 10.015625 -0.875 C 9.847656 -2.039062 9.765625 -2.769531 9.765625 -3.0625 C 7.097656 -25.519531 5.300781 -40.003906 4.375 -46.515625 L 9.265625 -46.953125 C 9.429688 -45.910156 10.976562 -33.722656 13.90625 -10.390625 C 20.289062 -26.628906 23.796875 -35.832031 24.421875 -38 C 26.421875 -38.082031 28.421875 -38.164062 30.421875 -38.25 C 30.378906 -38.25 30.359375 -38.226562 30.359375 -38.1875 L 30.484375 -38.1875 C 31.492188 -36.1875 35.359375 -26.710938 42.078125 -9.765625 C 43.367188 -33.847656 44.035156 -46.222656 44.078125 -46.890625 L 49.46875 -46.828125 C 49.425781 -45.703125 49.242188 -42.601562 48.921875 -37.53125 C 48.609375 -32.457031 48.222656 -26.375 47.765625 -19.28125 C 47.304688 -12.1875 46.992188 -7.21875 46.828125 -4.375 L 46.828125 -4.3125 C 46.742188 -3.144531 46.691406 -2.164062 46.671875 -1.375 C 46.648438 -0.582031 46.597656 0.394531 46.515625 1.5625 C 46.472656 2.0625 45.535156 2.320312 43.703125 2.34375 C 41.867188 2.363281 40.867188 2.144531 40.703125 1.6875 C 40.617188 1.4375 40.554688 1.269531 40.515625 1.1875 C 40.472656 1.101562 40.394531 0.90625 40.28125 0.59375 C 40.175781 0.28125 40.0625 -0.0507812 39.9375 -0.40625 C 39.8125 -0.757812 39.664062 -1.125 39.5 -1.5 C 38.914062 -3.082031 38.289062 -4.648438 37.625 -6.203125 Z M 30.421875 -38.25 Z M 30.421875 -38.25 "/></g></g></g><g fill="#000000" fill-opacity="1"><g transform="translate(51.881737, 62.352417)"><g><path d="M 16.53125 -33.5625 C 16.570312 -33.5625 16.6875 -33.570312 16.875 -33.59375 C 17.0625 -33.613281 17.238281 -33.625 17.40625 -33.625 C 20.75 -33.5 23.546875 -32.789062 25.796875 -31.5 C 28.378906 -30.03125 30.023438 -27.710938 30.734375 -24.546875 C 31.160156 -22.617188 31.304688 -20.351562 31.171875 -17.75 C 31.046875 -15.144531 30.710938 -12.835938 30.171875 -10.828125 C 28.921875 -6.191406 26.898438 -3.039062 24.109375 -1.375 C 21.554688 0.25 18.363281 0.894531 14.53125 0.5625 C 10.144531 0.101562 7.078125 -1.5 5.328125 -4.25 C 4.023438 -6.425781 3.0625 -11 2.4375 -17.96875 C 2.226562 -20.050781 2.445312 -22.15625 3.09375 -24.28125 C 3.738281 -26.414062 4.734375 -28.210938 6.078125 -29.671875 C 7.242188 -30.972656 8.765625 -31.96875 10.640625 -32.65625 C 12.523438 -33.34375 14.382812 -33.644531 16.21875 -33.5625 Z M 12.578125 -28.921875 C 11.117188 -28.003906 10.015625 -27.117188 9.265625 -26.265625 C 8.515625 -25.410156 8.035156 -24.296875 7.828125 -22.921875 C 7.328125 -19.242188 7.429688 -15.609375 8.140625 -12.015625 C 8.847656 -8.429688 10.117188 -5.632812 11.953125 -3.625 C 12.960938 -2.5 14.320312 -1.863281 16.03125 -1.71875 C 17.738281 -1.570312 19.09375 -1.875 20.09375 -2.625 C 22.519531 -4.175781 24.128906 -6.640625 24.921875 -10.015625 C 26.003906 -14.441406 26.421875 -18.382812 26.171875 -21.84375 C 26.046875 -23.601562 25.515625 -25.203125 24.578125 -26.640625 C 23.640625 -28.078125 22.519531 -29.109375 21.21875 -29.734375 C 17.800781 -30.609375 14.921875 -30.335938 12.578125 -28.921875 Z M 12.578125 -28.921875 "/></g></g></g><g fill="#000000" fill-opacity="1"><g transform="translate(85.24908, 62.352417)"><g><path d="M 4.703125 3.25 C 4.660156 1.707031 4.320312 -4.054688 3.6875 -14.046875 C 3.0625 -24.046875 2.707031 -29.484375 2.625 -30.359375 L 7.453125 -30.546875 C 7.492188 -30.171875 7.554688 -29.503906 7.640625 -28.546875 C 7.722656 -28.628906 7.859375 -28.742188 8.046875 -28.890625 C 8.234375 -29.035156 8.367188 -29.148438 8.453125 -29.234375 C 9.578125 -30.109375 10.585938 -30.703125 11.484375 -31.015625 C 12.378906 -31.335938 14.164062 -31.644531 16.84375 -31.9375 C 20.050781 -32.3125 22.785156 -31.828125 25.046875 -30.484375 C 26.128906 -29.859375 27.003906 -28.609375 27.671875 -26.734375 C 28.335938 -24.859375 28.773438 -23.0625 28.984375 -21.34375 C 29.191406 -19.632812 29.359375 -17.570312 29.484375 -15.15625 L 24.546875 -14.96875 C 24.128906 -18.96875 23.421875 -22.160156 22.421875 -24.546875 C 21.867188 -25.835938 21.238281 -26.878906 20.53125 -27.671875 C 19.820312 -28.460938 19 -28.953125 18.0625 -29.140625 C 17.125 -29.328125 16.132812 -29.046875 15.09375 -28.296875 C 13.332031 -27.085938 12.023438 -25.890625 11.171875 -24.703125 C 10.316406 -23.515625 9.804688 -21.8125 9.640625 -19.59375 C 9.554688 -18.59375 9.503906 -16.578125 9.484375 -13.546875 C 9.460938 -10.523438 9.460938 -7.59375 9.484375 -4.75 C 9.503906 -1.914062 9.492188 0.644531 9.453125 2.9375 L 9.453125 3.375 Z M 4.703125 3.25 "/></g></g></g><g fill="#000000" fill-opacity="1"><g transform="translate(116.863543, 62.352417)"><g><path d="M 4.515625 1.4375 C 4.679688 -5.15625 4.765625 -21.097656 4.765625 -46.390625 L 9.640625 -46.265625 C 9.679688 -44.554688 9.679688 -36.582031 9.640625 -22.34375 C 9.597656 -8.113281 9.578125 -0.226562 9.578125 1.3125 Z M 4.515625 1.4375 "/></g></g></g><g fill="#000000" fill-opacity="1"><g transform="translate(128.695496, 62.352417)"><g><path d="M 23.734375 -1.125 C 21.765625 -0.414062 19.113281 -0.0820312 15.78125 -0.125 C 11.6875 -0.125 8.929688 -0.582031 7.515625 -1.5 C 6.015625 -2.5 4.976562 -3.488281 4.40625 -4.46875 C 3.84375 -5.457031 3.269531 -6.972656 2.6875 -9.015625 C 2.101562 -10.972656 1.882812 -13.671875 2.03125 -17.109375 C 2.175781 -20.554688 2.625 -23.203125 3.375 -25.046875 C 3.875 -26.253906 4.21875 -27.046875 4.40625 -27.421875 C 4.601562 -27.796875 4.960938 -28.285156 5.484375 -28.890625 C 6.003906 -29.492188 6.628906 -29.960938 7.359375 -30.296875 C 8.085938 -30.628906 9.117188 -30.988281 10.453125 -31.375 C 13.085938 -32.125 17.078125 -31.929688 22.421875 -30.796875 C 23.296875 -30.628906 24.109375 -30.359375 24.859375 -29.984375 C 25.234375 -40.171875 25.441406 -45.492188 25.484375 -45.953125 L 30.296875 -45.828125 C 30.253906 -44.117188 29.972656 -35.84375 29.453125 -21 C 28.929688 -6.164062 28.648438 2.144531 28.609375 3.9375 L 23.546875 3.8125 C 23.585938 3.0625 23.648438 1.414062 23.734375 -1.125 Z M 24.171875 -12.390625 C 24.171875 -17.234375 23.710938 -21.035156 22.796875 -23.796875 C 21.828125 -26.503906 19.882812 -28.128906 16.96875 -28.671875 C 15.382812 -28.960938 13.847656 -28.765625 12.359375 -28.078125 C 10.878906 -27.390625 9.765625 -26.335938 9.015625 -24.921875 C 7.597656 -22.117188 6.910156 -19.40625 6.953125 -16.78125 C 7.035156 -12.9375 7.554688 -9.953125 8.515625 -7.828125 C 9.679688 -5.316406 12 -3.75 15.46875 -3.125 C 17.425781 -2.832031 19.332031 -3.445312 21.1875 -4.96875 C 23.050781 -6.5 24.046875 -8.972656 24.171875 -12.390625 Z M 24.171875 -12.390625 "/></g></g></g><g fill="#000000" fill-opacity="1"><g transform="translate(161.1238, 62.352417)"><g><path d="M 37.625 -6.203125 C 37.625 -6.242188 37.644531 -6.265625 37.6875 -6.265625 C 36.601562 -9.054688 33.304688 -17.296875 27.796875 -30.984375 C 24.078125 -21.265625 20.425781 -12.0625 16.84375 -3.375 C 16.757812 -3.125 16.5625 -2.59375 16.25 -1.78125 C 15.9375 -0.96875 15.71875 -0.332031 15.59375 0.125 C 15.425781 0.582031 14.484375 0.769531 12.765625 0.6875 C 11.054688 0.601562 10.179688 0.3125 10.140625 -0.1875 C 10.054688 -0.519531 10.015625 -0.75 10.015625 -0.875 C 9.847656 -2.039062 9.765625 -2.769531 9.765625 -3.0625 C 7.097656 -25.519531 5.300781 -40.003906 4.375 -46.515625 L 9.265625 -46.953125 C 9.429688 -45.910156 10.976562 -33.722656 13.90625 -10.390625 C 20.289062 -26.628906 23.796875 -35.832031 24.421875 -38 C 26.421875 -38.082031 28.421875 -38.164062 30.421875 -38.25 C 30.378906 -38.25 30.359375 -38.226562 30.359375 -38.1875 L 30.484375 -38.1875 C 31.492188 -36.1875 35.359375 -26.710938 42.078125 -9.765625 C 43.367188 -33.847656 44.035156 -46.222656 44.078125 -46.890625 L 49.46875 -46.828125 C 49.425781 -45.703125 49.242188 -42.601562 48.921875 -37.53125 C 48.609375 -32.457031 48.222656 -26.375 47.765625 -19.28125 C 47.304688 -12.1875 46.992188 -7.21875 46.828125 -4.375 L 46.828125 -4.3125 C 46.742188 -3.144531 46.691406 -2.164062 46.671875 -1.375 C 46.648438 -0.582031 46.597656 0.394531 46.515625 1.5625 C 46.472656 2.0625 45.535156 2.320312 43.703125 2.34375 C 41.867188 2.363281 40.867188 2.144531 40.703125 1.6875 C 40.617188 1.4375 40.554688 1.269531 40.515625 1.1875 C 40.472656 1.101562 40.394531 0.90625 40.28125 0.59375 C 40.175781 0.28125 40.0625 -0.0507812 39.9375 -0.40625 C 39.8125 -0.757812 39.664062 -1.125 39.5 -1.5 C 38.914062 -3.082031 38.289062 -4.648438 37.625 -6.203125 Z M 30.421875 -38.25 Z M 30.421875 -38.25 "/></g></g></g><g fill="#000000" fill-opacity="1"><g transform="translate(212.708577, 62.352417)"><g><path d="M 10.515625 -43.140625 C 10.597656 -42.804688 10.640625 -42.472656 10.640625 -42.140625 C 10.679688 -41.472656 10.660156 -40.78125 10.578125 -40.0625 C 10.492188 -39.351562 10.328125 -38.550781 10.078125 -37.65625 C 9.828125 -36.757812 9.398438 -36.03125 8.796875 -35.46875 C 8.191406 -34.90625 7.429688 -34.644531 6.515625 -34.6875 C 5.128906 -34.6875 4.125 -35.125 3.5 -36 C 2.789062 -37.039062 2.394531 -38.523438 2.3125 -40.453125 C 2.144531 -43.242188 2.644531 -45.179688 3.8125 -46.265625 C 5.238281 -47.597656 6.703125 -47.867188 8.203125 -47.078125 C 9.410156 -46.492188 10.179688 -45.179688 10.515625 -43.140625 Z M 4 1.75 C 4.125 -5.382812 4.1875 -16.882812 4.1875 -32.75 L 9.078125 -32.6875 C 9.117188 -30.300781 9.128906 -27.132812 9.109375 -23.1875 C 9.085938 -19.25 9.066406 -14.296875 9.046875 -8.328125 C 9.023438 -2.359375 9.015625 0.957031 9.015625 1.625 Z M 4 1.75 "/></g></g></g><g fill="#000000" fill-opacity="1"><g transform="translate(225.542174, 62.352417)"><g><path d="M 13.71875 -31.5625 C 12.539062 -31.519531 11.335938 -30.992188 10.109375 -29.984375 C 8.878906 -28.984375 8.035156 -27.859375 7.578125 -26.609375 C 7.117188 -25.398438 7.066406 -24.113281 7.421875 -22.75 C 7.773438 -21.394531 8.492188 -20.28125 9.578125 -19.40625 C 12.078125 -17.445312 14.582031 -15.925781 17.09375 -14.84375 C 21.269531 -13.082031 23.421875 -10.765625 23.546875 -7.890625 C 23.671875 -5.546875 23.46875 -3.78125 22.9375 -2.59375 C 22.414062 -1.40625 21.425781 -0.394531 19.96875 0.4375 C 18.175781 1.394531 15.898438 1.851562 13.140625 1.8125 C 10.179688 1.769531 7.578125 1.375 5.328125 0.625 C 2.398438 -0.375 1.414062 -3.984375 2.375 -10.203125 L 7.453125 -10.078125 C 7.453125 -9.742188 7.410156 -9.179688 7.328125 -8.390625 C 7.242188 -7.597656 7.191406 -6.972656 7.171875 -6.515625 C 7.148438 -6.054688 7.171875 -5.5 7.234375 -4.84375 C 7.296875 -4.195312 7.410156 -3.625 7.578125 -3.125 C 7.828125 -2.414062 8.429688 -1.832031 9.390625 -1.375 C 10.347656 -0.914062 11.304688 -0.664062 12.265625 -0.625 C 13.359375 -0.582031 14.507812 -0.925781 15.71875 -1.65625 C 16.925781 -2.382812 17.71875 -3.460938 18.09375 -4.890625 C 18.675781 -7.097656 18.132812 -9.035156 16.46875 -10.703125 C 15.800781 -11.367188 14.929688 -11.992188 13.859375 -12.578125 C 12.796875 -13.171875 11.546875 -13.789062 10.109375 -14.4375 C 8.671875 -15.082031 7.640625 -15.570312 7.015625 -15.90625 C 3.835938 -17.65625 2.144531 -20.410156 1.9375 -24.171875 C 1.851562 -26.046875 2.195312 -27.722656 2.96875 -29.203125 C 3.738281 -30.691406 4.734375 -31.789062 5.953125 -32.5 C 6.078125 -32.582031 6.335938 -32.75 6.734375 -33 C 7.128906 -33.25 7.390625 -33.394531 7.515625 -33.4375 C 7.640625 -33.476562 7.941406 -33.570312 8.421875 -33.71875 C 8.898438 -33.863281 9.410156 -33.945312 9.953125 -33.96875 C 10.492188 -33.988281 11.234375 -34.03125 12.171875 -34.09375 C 13.117188 -34.15625 14.238281 -34.1875 15.53125 -34.1875 C 18.570312 -34.226562 21.097656 -33.457031 23.109375 -31.875 C 24.898438 -30.53125 25.648438 -28.085938 25.359375 -24.546875 L 20.84375 -24.796875 C 21.007812 -27.003906 20.40625 -28.703125 19.03125 -29.890625 C 17.65625 -31.085938 15.882812 -31.644531 13.71875 -31.5625 Z M 13.71875 -31.5625 "/></g></g></g><g fill="#000000" fill-opacity="1"><g transform="translate(253.150061, 62.352417)"><g><path d="M 28.421875 -27.234375 C 28.460938 -27.191406 28.484375 -27.148438 28.484375 -27.109375 C 28.523438 -27.023438 28.546875 -26.960938 28.546875 -26.921875 L 28.546875 -26.859375 C 28.835938 -25.898438 29.023438 -24.734375 29.109375 -23.359375 C 29.148438 -22.941406 29.171875 -22.539062 29.171875 -22.15625 C 29.171875 -20.40625 28.921875 -18.988281 28.421875 -17.90625 C 27.460938 -15.78125 25.484375 -13.773438 22.484375 -11.890625 C 20.679688 -10.722656 19.007812 -10.128906 17.46875 -10.109375 C 15.925781 -10.085938 15.070312 -10.078125 14.90625 -10.078125 C 12.1875 -10.078125 9.828125 -10.410156 7.828125 -11.078125 C 8.535156 -6.484375 9.972656 -3.3125 12.140625 -1.5625 C 13.234375 -0.726562 14.570312 -0.3125 16.15625 -0.3125 C 16.238281 -0.3125 16.738281 -0.332031 17.65625 -0.375 C 18.570312 -0.414062 19.71875 -0.832031 21.09375 -1.625 C 22.4375 -2.375 23.441406 -3.851562 24.109375 -6.0625 C 24.773438 -8.28125 25.128906 -10.304688 25.171875 -12.140625 L 29.796875 -12.828125 C 29.878906 -11.953125 29.921875 -11.140625 29.921875 -10.390625 C 29.921875 -6.003906 28.648438 -2.832031 26.109375 -0.875 C 25.398438 -0.332031 24.773438 0.113281 24.234375 0.46875 C 23.691406 0.820312 23.050781 1.082031 22.3125 1.25 C 21.582031 1.414062 21.101562 1.519531 20.875 1.5625 C 20.644531 1.601562 20 1.644531 18.9375 1.6875 C 17.875 1.726562 17.238281 1.75 17.03125 1.75 C 16.363281 1.789062 15.738281 1.8125 15.15625 1.8125 C 11.1875 1.8125 8.429688 1.082031 6.890625 -0.375 C 5.597656 -1.664062 4.320312 -4.691406 3.0625 -9.453125 C 2.394531 -11.992188 2.0625 -14.476562 2.0625 -16.90625 C 2.0625 -18.28125 2.269531 -20.207031 2.6875 -22.6875 C 3.101562 -25.175781 4.335938 -27.546875 6.390625 -29.796875 C 7.472656 -31.015625 8.328125 -31.863281 8.953125 -32.34375 C 9.578125 -32.820312 10.554688 -33.207031 11.890625 -33.5 C 13.234375 -33.789062 14.925781 -33.9375 16.96875 -33.9375 C 17.21875 -33.9375 17.488281 -33.9375 17.78125 -33.9375 C 20.65625 -33.851562 22.664062 -33.570312 23.8125 -33.09375 C 24.96875 -32.613281 26.109375 -31.492188 27.234375 -29.734375 C 27.773438 -28.898438 28.171875 -28.066406 28.421875 -27.234375 Z M 19.34375 -14.40625 C 22.351562 -16.78125 23.859375 -19.703125 23.859375 -23.171875 C 23.859375 -23.960938 23.773438 -24.796875 23.609375 -25.671875 C 23.066406 -27.460938 22.375 -28.691406 21.53125 -29.359375 C 20.320312 -30.359375 19.320312 -30.910156 18.53125 -31.015625 C 17.738281 -31.117188 17.238281 -31.171875 17.03125 -31.171875 C 15.863281 -31.171875 14.675781 -30.816406 13.46875 -30.109375 C 9.832031 -27.648438 7.867188 -23.3125 7.578125 -17.09375 L 7.578125 -16.65625 C 9.117188 -15.320312 10.691406 -14.457031 12.296875 -14.0625 C 13.910156 -13.664062 15.09375 -13.46875 15.84375 -13.46875 C 17.132812 -13.46875 18.300781 -13.78125 19.34375 -14.40625 Z M 19.34375 -14.40625 "/></g></g></g></svg>